SplineFontDB: 3.0
FontName: Sansita-Black
FullName: Sansita-Black
FamilyName: Sansita
Weight: Black
Copyright: Copyright (c) 2011-2013, Omnibus-Type (www.omnibus-type.com omnibus.type@gmail.com) with Reserved Font Name 'Sansita'
Version: 001.004
ItalicAngle: 0
UnderlinePosition: -102.4
UnderlineWidth: 102.4
Ascent: 1638
Descent: 410
sfntRevision: 0x00010106
LayerCount: 2
Layer: 0 1 "Back"  1
Layer: 1 1 "Fore"  0
XUID: [1021 809 -2065993493 8391797]
FSType: 8
OS2Version: 3
OS2_WeightWidthSlopeOnly: 0
OS2_UseTypoMetrics: 1
CreationTime: 1387883376
ModificationTime: 1388162579
PfmFamily: 81
TTFWeight: 900
TTFWidth: 5
LineGap: 0
VLineGap: 0
Panose: 0 0 10 0 0 0 0 0 0 0
OS2TypoAscent: 1434
OS2TypoAOffset: 0
OS2TypoDescent: -369
OS2TypoDOffset: 0
OS2TypoLinegap: 655
OS2WinAscent: 2089
OS2WinAOffset: 0
OS2WinDescent: 369
OS2WinDOffset: 0
HheadAscent: 2089
HheadAOffset: 0
HheadDescent: -369
HheadDOffset: 0
OS2SubXSize: 1331
OS2SubYSize: 1229
OS2SubXOff: 0
OS2SubYOff: 154
OS2SupXSize: 1331
OS2SupYSize: 1229
OS2SupXOff: 0
OS2SupYOff: 717
OS2StrikeYSize: 102
OS2StrikeYPos: 627
OS2Vendor: 'UKWN'
OS2CodePages: 20000093.00000000
OS2UnicodeRanges: 00000007.00000000.00000000.00000000
Lookup: 1 0 0 "'aalt' Access All Alternates lookup 0"  {"'aalt' Access All Alternates lookup 0 subtable"  } ['aalt' ('DFLT' <'dflt' > 'grek' <'dflt' > 'latn' <'AZE ' 'CAT ' 'CRT ' 'ESP ' 'KAZ ' 'MOL ' 'NLD ' 'PLK ' 'ROM ' 'TAT ' 'TRK ' 'dflt' > ) ]
Lookup: 3 0 0 "'aalt' Access All Alternates lookup 1"  {"'aalt' Access All Alternates lookup 1 subtable"  } ['aalt' ('DFLT' <'dflt' > 'grek' <'dflt' > 'latn' <'AZE ' 'CAT ' 'CRT ' 'ESP ' 'KAZ ' 'MOL ' 'NLD ' 'PLK ' 'ROM ' 'TAT ' 'TRK ' 'dflt' > ) ]

StartChar: .notdef
Encoding: 65536 -1 0
Width: 1052
Flags: MW
HStem: 0 102<176 872 176 1036> 1331 102<174 870 174 174>
VStem: 12 100<195 195 195 1239> 932 104<195 1239 1239 1239>
LayerCount: 2
UndoRedoHistory
Layer: 1
Undoes
EndUndoes
Redoes
EndRedoes
EndUndoRedoHistory
Fore
SplineSet
872 102 m 1,0,-1
 522 625 l 1,1,-1
 176 102 l 1,2,-1
 872 102 l 1,0,-1
932 195 m 1,3,-1
 932 1239 l 1,4,-1
 586 717 l 1,5,-1
 932 195 l 1,3,-1
113 195 m 1,6,-1
 463 717 l 1,7,-1
 113 1239 l 1,8,-1
 113 195 l 1,6,-1
870 1331 m 1,9,-1
 174 1331 l 1,10,-1
 524 809 l 1,11,-1
 870 1331 l 1,9,-1
12 1434 m 1,12,-1
 1036 1434 l 1,13,-1
 1036 0 l 1,14,-1
 12 0 l 1,15,-1
 12 1434 l 1,12,-1
EndSplineSet
Validated: 1
EndChar

StartChar: A
Encoding: 65 65 1
Width: 1300
Flags: MW
HStem: 313 182<377 627 377 670 336 627> 1053 299<500 500> 1311 41G<344 958 958 958>
VStem: -23 1319<0 0>
LayerCount: 2
UndoRedoHistory
Layer: 1
Undoes
EndUndoes
Redoes
EndRedoes
EndUndoRedoHistory
Fore
SplineSet
627 496 m 1,0,-1
 500 1053 l 1,1,-1
 377 496 l 1,2,-1
 627 496 l 1,0,-1
1296 0 m 1,3,-1
 741 0 l 1,4,-1
 670 313 l 1,5,-1
 336 313 l 1,6,-1
 266 0 l 1,7,-1
 -23 0 l 1,8,-1
 344 1352 l 1,9,-1
 958 1352 l 1,10,-1
 1296 0 l 1,3,-1
EndSplineSet
Validated: 8388609
Substitution2: "Single Substitution lookup 21 subtable" ordfeminine
Substitution2: "'aalt' Access All Alternates lookup 0 subtable" ordfeminine
Position2: "'cpsp' Capital Spacing lookup 3 subtable" dx=10 dy=0 dh=20 dv=0
EndChar

StartChar: Aacute
Encoding: 193 193 2
Width: 1300
Flags: MW
HStem: 313 182<377 627 377 670 336 627> 1053 299<500 500> 1311 41G<344 958 958 958>
VStem: -23 1319<0 0>
LayerCount: 2
UndoRedoHistory
Layer: 1
Undoes
EndUndoes
Redoes
EndRedoes
EndUndoRedoHistory
Fore
SplineSet
500 1053 m 1,0,-1
 377 496 l 1,1,-1
 627 496 l 1,2,-1
 500 1053 l 1,0,-1
741 0 m 1,3,-1
 670 313 l 1,4,-1
 336 313 l 1,5,-1
 266 0 l 1,6,-1
 -23 0 l 1,7,-1
 344 1352 l 1,8,-1
 958 1352 l 1,9,-1
 1296 0 l 1,10,-1
 741 0 l 1,3,-1
948 1853 m 1,11,12
 986 1821 986 1821 1012 1772.5 c 128,-1,13
 1038 1724 1038 1724 1038 1679 c 0,14,15
 1038 1643 1038 1643 1022 1616.5 c 128,-1,16
 1006 1590 1006 1590 980.5 1575.5 c 128,-1,17
 955 1561 955 1561 920 1552.5 c 128,-1,18
 885 1544 885 1544 851.5 1540.5 c 128,-1,19
 818 1537 818 1537 781 1535 c 0,20,21
 767 1534 767 1534 760 1534 c 2,22,-1
 434 1511 l 1,23,-1
 408 1626 l 1,24,-1
 948 1853 l 1,11,12
EndSplineSet
Validated: 8388609
Position2: "'cpsp' Capital Spacing lookup 3 subtable" dx=10 dy=0 dh=20 dv=0
EndChar

StartChar: Abreve
Encoding: 258 258 3
Width: 1300
Flags: MW
HStem: 313 182<377 627 377 670 336 627> 1053 299<500 500> 1311 41G<344 958 958 958> 1495 106<617 693 617 811>
VStem: 236 346<1719 1774 1719 1774> 729 344<1719 1774>
LayerCount: 2
UndoRedoHistory
Layer: 1
Undoes
EndUndoes
Redoes
EndRedoes
EndUndoRedoHistory
Fore
SplineSet
500 1053 m 1,0,-1
 377 496 l 1,1,-1
 627 496 l 1,2,-1
 500 1053 l 1,0,-1
741 0 m 1,3,-1
 670 313 l 1,4,-1
 336 313 l 1,5,-1
 266 0 l 1,6,-1
 -23 0 l 1,7,-1
 344 1352 l 1,8,-1
 958 1352 l 1,9,-1
 1296 0 l 1,10,-1
 741 0 l 1,3,-1
1073 1774 m 1,11,12
 1073 1495 1073 1495 655 1495 c 0,13,14
 236 1495 236 1495 236 1774 c 1,15,-1
 582 1774 l 1,16,17
 582 1669 582 1669 592 1642 c 0,18,19
 608 1602 608 1602 655 1602 c 0,20,21
 690 1602 690 1602 707 1624.5 c 128,-1,22
 724 1647 724 1647 726.5 1674 c 128,-1,23
 729 1701 729 1701 729 1766 c 0,24,25
 729 1771 729 1771 729 1774 c 1,26,-1
 1073 1774 l 1,11,12
EndSplineSet
Validated: 8388609
Position2: "'cpsp' Capital Spacing lookup 3 subtable" dx=10 dy=0 dh=20 dv=0
EndChar

StartChar: Acircumflex
Encoding: 194 194 4
Width: 1300
Flags: MW
HStem: 313 182<377 627 377 670 336 627> 1053 299<500 500> 1311 41G<344 958 958 958>
VStem: -23 1319<0 0>
LayerCount: 2
UndoRedoHistory
Layer: 1
Undoes
EndUndoes
Redoes
EndRedoes
EndUndoRedoHistory
Fore
SplineSet
500 1053 m 1,0,-1
 377 496 l 1,1,-1
 627 496 l 1,2,-1
 500 1053 l 1,0,-1
741 0 m 1,3,-1
 670 313 l 1,4,-1
 336 313 l 1,5,-1
 266 0 l 1,6,-1
 -23 0 l 1,7,-1
 344 1352 l 1,8,-1
 958 1352 l 1,9,-1
 1296 0 l 1,10,-1
 741 0 l 1,3,-1
268 1526 m 1,11,-1
 606 1755 l 1,12,-1
 694 1755 l 1,13,-1
 1038 1526 l 1,14,-1
 948 1419 l 1,15,-1
 653 1485 l 1,16,-1
 360 1419 l 1,17,-1
 268 1526 l 1,11,-1
EndSplineSet
Validated: 8388609
Position2: "'cpsp' Capital Spacing lookup 3 subtable" dx=10 dy=0 dh=20 dv=0
EndChar

StartChar: Adieresis
Encoding: 196 196 5
Width: 1300
Flags: MW
HStem: 313 182<377 627 377 670 336 627> 1053 299<500 500> 1311 41G<344 958 958 958> 1448 348<348 481 860 993>
VStem: -23 1319<0 0>
LayerCount: 2
UndoRedoHistory
Layer: 1
Undoes
EndUndoes
Redoes
EndRedoes
EndUndoRedoHistory
Fore
SplineSet
500 1053 m 1,0,-1
 377 496 l 1,1,-1
 627 496 l 1,2,-1
 500 1053 l 1,0,-1
741 0 m 1,3,-1
 670 313 l 1,4,-1
 336 313 l 1,5,-1
 266 0 l 1,6,-1
 -23 0 l 1,7,-1
 344 1352 l 1,8,-1
 958 1352 l 1,9,-1
 1296 0 l 1,10,-1
 741 0 l 1,3,-1
932 1796 m 0,11,12
 1038 1796 1038 1796 1103.5 1749 c 128,-1,13
 1169 1702 1169 1702 1169 1620 c 128,-1,14
 1169 1538 1169 1538 1101 1493 c 128,-1,15
 1033 1448 1033 1448 922 1448 c 0,16,17
 813 1448 813 1448 745.5 1492 c 128,-1,18
 678 1536 678 1536 678 1616 c 0,19,20
 678 1698 678 1698 750 1747 c 128,-1,21
 822 1796 822 1796 932 1796 c 0,11,12
420 1796 m 0,22,23
 526 1796 526 1796 591.5 1749 c 128,-1,24
 657 1702 657 1702 657 1620 c 128,-1,25
 657 1538 657 1538 589 1493 c 128,-1,26
 521 1448 521 1448 410 1448 c 0,27,28
 301 1448 301 1448 233.5 1492 c 128,-1,29
 166 1536 166 1536 166 1616 c 0,30,31
 166 1698 166 1698 238 1747 c 128,-1,32
 310 1796 310 1796 420 1796 c 0,22,23
EndSplineSet
Validated: 8388609
Position2: "'cpsp' Capital Spacing lookup 3 subtable" dx=10 dy=0 dh=20 dv=0
EndChar

StartChar: Agrave
Encoding: 192 192 6
Width: 1300
Flags: MW
HStem: 313 182<377 627 377 670 336 627> 1053 299<500 500> 1311 41G<344 958 958 958>
VStem: -23 1319<0 0>
LayerCount: 2
UndoRedoHistory
Layer: 1
Undoes
EndUndoes
Redoes
EndRedoes
EndUndoRedoHistory
Fore
SplineSet
500 1053 m 1,0,-1
 377 496 l 1,1,-1
 627 496 l 1,2,-1
 500 1053 l 1,0,-1
741 0 m 1,3,-1
 670 313 l 1,4,-1
 336 313 l 1,5,-1
 266 0 l 1,6,-1
 -23 0 l 1,7,-1
 344 1352 l 1,8,-1
 958 1352 l 1,9,-1
 1296 0 l 1,10,-1
 741 0 l 1,3,-1
549 1538 m 2,11,12
 424 1547 424 1547 380 1559 c 0,13,14
 270 1589 270 1589 270 1683 c 0,15,16
 270 1727 270 1727 295.5 1776.5 c 128,-1,17
 321 1826 321 1826 358 1858 c 1,18,-1
 901 1630 l 1,19,-1
 874 1516 l 1,20,-1
 549 1538 l 2,11,12
EndSplineSet
Validated: 8388609
Position2: "'cpsp' Capital Spacing lookup 3 subtable" dx=10 dy=0 dh=20 dv=0
EndChar

StartChar: Amacron
Encoding: 256 256 7
Width: 1300
Flags: MW
HStem: 313 182<377 627 377 670 336 627> 1053 299<500 500> 1311 41G<344 958 958 958> 1577 199<442 868 340 965>
VStem: -23 1319<0 0>
LayerCount: 2
UndoRedoHistory
Layer: 1
Undoes
EndUndoes
Redoes
EndRedoes
EndUndoRedoHistory
Fore
SplineSet
500 1053 m 1,0,-1
 377 496 l 1,1,-1
 627 496 l 1,2,-1
 500 1053 l 1,0,-1
741 0 m 1,3,-1
 670 313 l 1,4,-1
 336 313 l 1,5,-1
 266 0 l 1,6,-1
 -23 0 l 1,7,-1
 344 1352 l 1,8,-1
 958 1352 l 1,9,-1
 1296 0 l 1,10,-1
 741 0 l 1,3,-1
965 1776 m 1,11,12
 983 1750 983 1750 983 1696 c 0,13,14
 983 1643 983 1643 950.5 1610 c 128,-1,15
 918 1577 918 1577 868 1577 c 2,16,-1
 340 1577 l 1,17,18
 319 1607 319 1607 319 1661 c 0,19,20
 319 1712 319 1712 353 1744 c 128,-1,21
 387 1776 387 1776 442 1776 c 2,22,-1
 965 1776 l 1,11,12
EndSplineSet
Validated: 8388609
Position2: "'cpsp' Capital Spacing lookup 3 subtable" dx=10 dy=0 dh=20 dv=0
EndChar

StartChar: Aogonek
Encoding: 260 260 8
Width: 1300
Flags: MW
HStem: -582 209<1043 1232> -41 41G<-23 266 -23 -23 741 1296 741 741 1155 1296 1296 1296> 313 182<377 627 377 670 336 627> 1053 299<500 500> 1311 41G<344 958 958 958>
VStem: 807 283<-315 -260>
LayerCount: 2
UndoRedoHistory
Layer: 1
Undoes
EndUndoes
Redoes
EndRedoes
EndUndoRedoHistory
Fore
SplineSet
500 1053 m 1,0,-1
 377 496 l 1,1,-1
 627 496 l 1,2,-1
 500 1053 l 1,0,-1
741 0 m 1,3,-1
 670 313 l 1,4,-1
 336 313 l 1,5,-1
 266 0 l 1,6,-1
 -23 0 l 1,7,-1
 344 1352 l 1,8,-1
 958 1352 l 1,9,-1
 1296 0 l 1,10,11
 1090 -135 1090 -135 1090 -276 c 0,12,13
 1090 -331 1090 -331 1120 -352 c 128,-1,14
 1150 -373 1150 -373 1212 -373 c 0,15,16
 1248 -373 1248 -373 1287.5 -359 c 128,-1,17
 1327 -345 1327 -345 1341 -317 c 1,18,19
 1407 -363 1407 -363 1407 -430 c 0,20,21
 1407 -469 1407 -469 1375.5 -500 c 128,-1,22
 1344 -531 1344 -531 1296.5 -548 c 128,-1,23
 1249 -565 1249 -565 1202 -573.5 c 128,-1,24
 1155 -582 1155 -582 1116 -582 c 0,25,26
 1070 -582 1070 -582 1028 -576 c 128,-1,27
 986 -570 986 -570 945 -555 c 128,-1,28
 904 -540 904 -540 874 -517 c 128,-1,29
 844 -494 844 -494 825.5 -456.5 c 128,-1,30
 807 -419 807 -419 807 -371 c 0,31,32
 807 -291 807 -291 833.5 -229 c 128,-1,33
 860 -167 860 -167 911 -124 c 128,-1,34
 962 -81 962 -81 1019.5 -52.5 c 128,-1,35
 1077 -24 1077 -24 1155 0 c 1,36,-1
 741 0 l 1,3,-1
EndSplineSet
Validated: 8388609
Position2: "'cpsp' Capital Spacing lookup 3 subtable" dx=10 dy=0 dh=20 dv=0
EndChar

StartChar: Aring
Encoding: 197 197 9
Width: 1300
Flags: MW
HStem: 313 182<377 627 377 670 336 627> 1053 299<500 500> 1311 41G<344 958 958 958> 1491 90<618 686 618 727> 1823 88<620 686>
VStem: 401 156<1669 1738 1669 1772> 748 158<1669 1738>
LayerCount: 2
UndoRedoHistory
Layer: 1
Undoes
EndUndoes
Redoes
EndRedoes
EndUndoRedoHistory
Fore
SplineSet
500 1053 m 1,0,-1
 377 496 l 1,1,-1
 627 496 l 1,2,-1
 500 1053 l 1,0,-1
741 0 m 1,3,-1
 670 313 l 1,4,-1
 336 313 l 1,5,-1
 266 0 l 1,6,-1
 -23 0 l 1,7,-1
 344 1352 l 1,8,-1
 958 1352 l 1,9,-1
 1296 0 l 1,10,-1
 741 0 l 1,3,-1
653 1581 m 0,11,12
 700 1581 700 1581 724 1615 c 128,-1,13
 748 1649 748 1649 748 1704 c 0,14,15
 748 1758 748 1758 724 1790.5 c 128,-1,16
 700 1823 700 1823 653 1823 c 0,17,18
 604 1823 604 1823 580.5 1790.5 c 128,-1,19
 557 1758 557 1758 557 1704 c 0,20,21
 557 1581 557 1581 653 1581 c 0,11,12
653 1491 m 128,-1,23
 541 1491 541 1491 471 1549 c 128,-1,24
 401 1607 401 1607 401 1704 c 0,25,26
 401 1803 401 1803 469.5 1857 c 128,-1,27
 538 1911 538 1911 653 1911 c 128,-1,28
 768 1911 768 1911 836.5 1857 c 128,-1,29
 905 1803 905 1803 905 1704 c 0,30,31
 905 1607 905 1607 835 1549 c 128,-1,22
 765 1491 765 1491 653 1491 c 128,-1,23
EndSplineSet
Validated: 8388609
Position2: "'cpsp' Capital Spacing lookup 3 subtable" dx=10 dy=0 dh=20 dv=0
EndChar

StartChar: Aringacute
Encoding: 506 506 10
Width: 1300
Flags: MW
HStem: 313 182<377 627 377 670 336 627> 1311 41G<344 436 436 436 614 682 862 958 958 958> 1538 70<615 682>
VStem: 397 156<1428 1473 1420 1499> 743 158<1428 1473>
LayerCount: 2
UndoRedoHistory
Layer: 1
Undoes
EndUndoes
Redoes
EndRedoes
EndUndoRedoHistory
Fore
SplineSet
627 496 m 1,0,-1
 500 1053 l 1,1,-1
 377 496 l 1,2,-1
 627 496 l 1,0,-1
553 1448 m 0,3,4
 553 1352 553 1352 649 1352 c 0,5,6
 696 1352 696 1352 719.5 1378 c 128,-1,7
 743 1404 743 1404 743 1448 c 0,8,9
 743 1487 743 1487 719.5 1512.5 c 128,-1,10
 696 1538 696 1538 649 1538 c 0,11,12
 601 1538 601 1538 577 1513 c 128,-1,13
 553 1488 553 1488 553 1448 c 0,3,4
1296 0 m 1,14,-1
 741 0 l 1,15,-1
 670 313 l 1,16,-1
 336 313 l 1,17,-1
 266 0 l 1,18,-1
 -23 0 l 1,19,-1
 344 1352 l 1,20,-1
 436 1352 l 1,21,22
 397 1394 397 1394 397 1448 c 0,23,24
 397 1523 397 1523 466 1565.5 c 128,-1,25
 535 1608 535 1608 649 1608 c 128,-1,26
 763 1608 763 1608 832 1565.5 c 128,-1,27
 901 1523 901 1523 901 1448 c 0,28,29
 901 1394 901 1394 862 1352 c 1,30,-1
 958 1352 l 1,31,-1
 1296 0 l 1,14,-1
434 1622 m 1,32,-1
 408 1737 l 1,33,-1
 948 1964 l 1,34,35
 986 1932 986 1932 1012 1883.5 c 128,-1,36
 1038 1835 1038 1835 1038 1790 c 0,37,38
 1038 1754 1038 1754 1022 1727.5 c 128,-1,39
 1006 1701 1006 1701 980.5 1686.5 c 128,-1,40
 955 1672 955 1672 920 1663.5 c 128,-1,41
 885 1655 885 1655 851.5 1651.5 c 128,-1,42
 818 1648 818 1648 781 1646 c 0,43,44
 767 1645 767 1645 760 1645 c 2,45,-1
 434 1622 l 1,32,-1
EndSplineSet
Validated: 1
Position2: "'cpsp' Capital Spacing lookup 3 subtable" dx=10 dy=0 dh=20 dv=0
EndChar

StartChar: Atilde
Encoding: 195 195 11
Width: 1300
Flags: MW
HStem: 313 182<377 627 377 670 336 627> 1053 299<500 500> 1311 41G<344 958 958 958> 1509 233<861 934> 1546 233<379 451>
VStem: -23 1319<0 0>
LayerCount: 2
UndoRedoHistory
Layer: 1
Undoes
EndUndoes
Redoes
EndRedoes
EndUndoRedoHistory
Fore
SplineSet
500 1053 m 1,0,-1
 377 496 l 1,1,-1
 627 496 l 1,2,-1
 500 1053 l 1,0,-1
741 0 m 1,3,-1
 670 313 l 1,4,-1
 336 313 l 1,5,-1
 266 0 l 1,6,-1
 -23 0 l 1,7,-1
 344 1352 l 1,8,-1
 958 1352 l 1,9,-1
 1296 0 l 1,10,-1
 741 0 l 1,3,-1
1071 1790 m 1,11,12
 1114 1717 1114 1717 1114 1657 c 0,13,14
 1114 1611 1114 1611 1095 1580 c 128,-1,15
 1076 1549 1076 1549 1039 1534.5 c 128,-1,16
 1002 1520 1002 1520 962.5 1514.5 c 128,-1,17
 923 1509 923 1509 868 1509 c 0,18,19
 806 1509 806 1509 628.5 1527.5 c 128,-1,20
 451 1546 451 1546 385 1546 c 0,21,22
 287 1546 287 1546 242 1499 c 1,23,24
 199 1572 199 1572 199 1632 c 0,25,26
 199 1678 199 1678 218 1709 c 128,-1,27
 237 1740 237 1740 273.5 1754.5 c 128,-1,28
 310 1769 310 1769 349.5 1774.5 c 128,-1,29
 389 1780 389 1780 444 1780 c 0,30,31
 506 1780 506 1780 683 1761.5 c 128,-1,32
 860 1743 860 1743 928 1743 c 0,33,34
 1026 1743 1026 1743 1071 1790 c 1,11,12
EndSplineSet
Validated: 8388609
Position2: "'cpsp' Capital Spacing lookup 3 subtable" dx=10 dy=0 dh=20 dv=0
EndChar

StartChar: AE
Encoding: 198 198 12
Width: 1568
Flags: MW
HStem: 0 182<1296 1583> 313 182<524 756 524 756 451 756> 602 184<1296 1507 1296 1507> 1169 182<1296 1569 1296 1296>
VStem: 756 541<182 313 313 313 496 602 786 1114 1114 1114>
LayerCount: 2
UndoRedoHistory
Layer: 1
Undoes
EndUndoes
Redoes
EndRedoes
EndUndoRedoHistory
Fore
SplineSet
524 496 m 1,0,-1
 756 496 l 1,1,-1
 756 1114 l 1,2,-1
 524 496 l 1,0,-1
1569 1169 m 1,3,-1
 1296 1169 l 1,4,-1
 1296 786 l 1,5,-1
 1507 786 l 1,6,-1
 1507 602 l 1,7,-1
 1296 602 l 1,8,-1
 1296 182 l 1,9,-1
 1599 182 l 1,10,-1
 1583 0 l 1,11,-1
 756 0 l 1,12,-1
 756 313 l 1,13,-1
 451 313 l 1,14,-1
 328 0 l 1,15,-1
 6 0 l 1,16,-1
 588 1352 l 1,17,-1
 1569 1352 l 1,18,-1
 1569 1169 l 1,3,-1
EndSplineSet
Validated: 1
Position2: "'cpsp' Capital Spacing lookup 3 subtable" dx=10 dy=0 dh=20 dv=0
EndChar

StartChar: AEacute
Encoding: 508 508 13
Width: 1568
Flags: MW
HStem: 0 182<1296 1583> 313 182<524 756 524 756 451 756> 602 184<1296 1507 1296 1507> 1169 182<1296 1296 1296 1569>
VStem: 756 541<182 313 313 313 496 602 786 1114 1114 1114>
LayerCount: 2
UndoRedoHistory
Layer: 1
Undoes
EndUndoes
Redoes
EndRedoes
EndUndoRedoHistory
Fore
SplineSet
756 496 m 1,0,-1
 756 1114 l 1,1,-1
 524 496 l 1,2,-1
 756 496 l 1,0,-1
1296 1169 m 1,3,-1
 1296 786 l 1,4,-1
 1507 786 l 1,5,-1
 1507 602 l 1,6,-1
 1296 602 l 1,7,-1
 1296 182 l 1,8,-1
 1599 182 l 1,9,-1
 1583 0 l 1,10,-1
 756 0 l 1,11,-1
 756 313 l 1,12,-1
 451 313 l 1,13,-1
 328 0 l 1,14,-1
 6 0 l 1,15,-1
 588 1352 l 1,16,-1
 1569 1352 l 1,17,-1
 1569 1169 l 1,18,-1
 1296 1169 l 1,3,-1
1219 1794 m 1,19,20
 1257 1762 1257 1762 1283 1713.5 c 128,-1,21
 1309 1665 1309 1665 1309 1620 c 0,22,23
 1309 1584 1309 1584 1292.5 1557.5 c 128,-1,24
 1276 1531 1276 1531 1251 1516.5 c 128,-1,25
 1226 1502 1226 1502 1190.5 1493.5 c 128,-1,26
 1155 1485 1155 1485 1121.5 1481.5 c 128,-1,27
 1088 1478 1088 1478 1051 1476 c 0,28,29
 1048 1476 1048 1476 1046 1476 c 128,-1,30
 1044 1476 1044 1476 1041 1476 c 128,-1,31
 1038 1476 1038 1476 1035 1475.5 c 128,-1,32
 1032 1475 1032 1475 1030 1475 c 2,33,-1
 705 1452 l 1,34,-1
 678 1567 l 1,35,-1
 1219 1794 l 1,19,20
EndSplineSet
Validated: 1
Position2: "'cpsp' Capital Spacing lookup 3 subtable" dx=10 dy=0 dh=20 dv=0
EndChar

StartChar: B
Encoding: 66 66 14
Width: 1366
Flags: MW
HStem: -20 156<683 752 683 839> 651 135<663 725 657 739> 1206 158<683 746>
VStem: 92 541<147 147 147 649 793 1194> 823 414<969 1073> 831 520<328 458>
LayerCount: 2
UndoRedoHistory
Layer: 1
Undoes
EndUndoes
Redoes
EndRedoes
EndUndoRedoHistory
Fore
SplineSet
633 147 m 1,0,1
 654 135 654 135 690 135 c 0,2,3
 734 135 734 135 763.5 156.5 c 128,-1,4
 793 178 793 178 807 217 c 128,-1,5
 821 256 821 256 826 296 c 128,-1,6
 831 336 831 336 831 389 c 0,7,8
 831 434 831 434 827.5 469 c 128,-1,9
 824 504 824 504 814 540 c 128,-1,10
 804 576 804 576 787 599 c 128,-1,11
 770 622 770 622 740 636.5 c 128,-1,12
 710 651 710 651 670 651 c 0,13,14
 663 651 663 651 651.5 650 c 128,-1,15
 640 649 640 649 633 649 c 1,16,-1
 633 147 l 1,0,1
633 793 m 1,17,18
 651 786 651 786 664 786 c 0,19,20
 823 786 823 786 823 1020 c 0,21,22
 823 1109 823 1109 795 1157.5 c 128,-1,23
 767 1206 767 1206 694 1206 c 0,24,25
 663 1206 663 1206 633 1194 c 1,26,-1
 633 793 l 1,17,18
92 1333 m 1,27,28
 412 1364 412 1364 686 1364 c 0,29,30
 763 1364 763 1364 825 1359.5 c 128,-1,31
 887 1355 887 1355 953 1343 c 128,-1,32
 1019 1331 1019 1331 1067.5 1307.5 c 128,-1,33
 1116 1284 1116 1284 1156 1249 c 128,-1,34
 1196 1214 1196 1214 1216.5 1161 c 128,-1,35
 1237 1108 1237 1108 1237 1040 c 0,36,37
 1237 935 1237 935 1167 862.5 c 128,-1,38
 1097 790 1097 790 985 768 c 1,39,40
 1352 707 1352 707 1352 395 c 0,41,42
 1352 302 1352 302 1312.5 228.5 c 128,-1,43
 1273 155 1273 155 1208 109.5 c 128,-1,44
 1143 64 1143 64 1053.5 34 c 128,-1,45
 964 4 964 4 872 -8 c 128,-1,46
 780 -20 780 -20 678 -20 c 0,47,48
 397 -20 397 -20 92 6 c 1,49,-1
 92 1333 l 1,27,28
EndSplineSet
Validated: 8388609
Position2: "'cpsp' Capital Spacing lookup 3 subtable" dx=10 dy=0 dh=20 dv=0
EndChar

StartChar: C
Encoding: 67 67 15
Width: 1286
Flags: MW
HStem: -45 360<813 883> 1237 156<674 798>
VStem: 25 582<641 863 641 909> 860 403<1040 1041>
LayerCount: 2
UndoRedoHistory
Layer: 1
Undoes
EndUndoes
Redoes
EndRedoes
EndUndoRedoHistory
Fore
SplineSet
739 1237 m 0,0,1
 715 1237 715 1237 695.5 1224.5 c 128,-1,2
 676 1212 676 1212 663 1187 c 128,-1,3
 650 1162 650 1162 639.5 1134.5 c 128,-1,4
 629 1107 629 1107 623 1067.5 c 128,-1,5
 617 1028 617 1028 613.5 996.5 c 128,-1,6
 610 965 610 965 608.5 921.5 c 128,-1,7
 607 878 607 878 606.5 853.5 c 128,-1,8
 606 829 606 829 606 793 c 0,9,10
 606 558 606 558 683 436.5 c 128,-1,11
 760 315 760 315 930 315 c 0,12,13
 1016 315 1016 315 1080.5 350 c 128,-1,14
 1145 385 1145 385 1202 459 c 1,15,16
 1282 392 1282 392 1282 297 c 0,17,18
 1282 212 1282 212 1235 144 c 128,-1,19
 1188 76 1188 76 1111.5 36 c 128,-1,20
 1035 -4 1035 -4 946 -24.5 c 128,-1,21
 857 -45 857 -45 764 -45 c 0,22,23
 616 -45 616 -45 493.5 -9 c 128,-1,24
 371 27 371 27 285 91.5 c 128,-1,25
 199 156 199 156 140 245.5 c 128,-1,26
 81 335 81 335 53 440.5 c 128,-1,27
 25 546 25 546 25 666 c 0,28,29
 25 1028 25 1028 216 1210.5 c 128,-1,30
 407 1393 407 1393 774 1393 c 0,31,32
 845 1393 845 1393 909 1386.5 c 128,-1,33
 973 1380 973 1380 1040 1362 c 128,-1,34
 1107 1344 1107 1344 1155 1315.5 c 128,-1,35
 1203 1287 1203 1287 1233.5 1239 c 128,-1,36
 1264 1191 1264 1191 1264 1128 c 0,37,38
 1264 1002 1264 1002 1175.5 932 c 128,-1,39
 1087 862 1087 862 958 862 c 0,40,41
 922 862 922 862 852 866 c 1,42,43
 860 929 860 929 860 983 c 0,44,45
 860 1020 860 1020 859 1043.5 c 128,-1,46
 858 1067 858 1067 854.5 1100 c 128,-1,47
 851 1133 851 1133 843 1154.5 c 128,-1,48
 835 1176 835 1176 822.5 1196.5 c 128,-1,49
 810 1217 810 1217 788.5 1227 c 128,-1,50
 767 1237 767 1237 739 1237 c 0,0,1
EndSplineSet
Validated: 1
Position2: "'cpsp' Capital Spacing lookup 3 subtable" dx=10 dy=0 dh=20 dv=0
EndChar

StartChar: Cacute
Encoding: 262 262 16
Width: 1286
Flags: MW
HStem: -45 360<813 883> 1237 156<674 798>
VStem: 25 582<641 863 641 909> 860 403<1040 1041>
LayerCount: 2
UndoRedoHistory
Layer: 1
Undoes
EndUndoes
Redoes
EndRedoes
EndUndoRedoHistory
Fore
SplineSet
739 1237 m 0,0,1
 715 1237 715 1237 695.5 1224.5 c 128,-1,2
 676 1212 676 1212 663 1187 c 128,-1,3
 650 1162 650 1162 639.5 1134.5 c 128,-1,4
 629 1107 629 1107 623 1067.5 c 128,-1,5
 617 1028 617 1028 613.5 996.5 c 128,-1,6
 610 965 610 965 608.5 921.5 c 128,-1,7
 607 878 607 878 606.5 853.5 c 128,-1,8
 606 829 606 829 606 793 c 0,9,10
 606 558 606 558 683 436.5 c 128,-1,11
 760 315 760 315 930 315 c 0,12,13
 1016 315 1016 315 1080.5 350 c 128,-1,14
 1145 385 1145 385 1202 459 c 1,15,16
 1282 392 1282 392 1282 297 c 0,17,18
 1282 212 1282 212 1235 144 c 128,-1,19
 1188 76 1188 76 1111.5 36 c 128,-1,20
 1035 -4 1035 -4 946 -24.5 c 128,-1,21
 857 -45 857 -45 764 -45 c 0,22,23
 616 -45 616 -45 493.5 -9 c 128,-1,24
 371 27 371 27 285 91.5 c 128,-1,25
 199 156 199 156 140 245.5 c 128,-1,26
 81 335 81 335 53 440.5 c 128,-1,27
 25 546 25 546 25 666 c 0,28,29
 25 1028 25 1028 216 1210.5 c 128,-1,30
 407 1393 407 1393 774 1393 c 0,31,32
 845 1393 845 1393 909 1386.5 c 128,-1,33
 973 1380 973 1380 1040 1362 c 128,-1,34
 1107 1344 1107 1344 1155 1315.5 c 128,-1,35
 1203 1287 1203 1287 1233.5 1239 c 128,-1,36
 1264 1191 1264 1191 1264 1128 c 0,37,38
 1264 1002 1264 1002 1175.5 932 c 128,-1,39
 1087 862 1087 862 958 862 c 0,40,41
 922 862 922 862 852 866 c 1,42,43
 860 929 860 929 860 983 c 0,44,45
 860 1020 860 1020 859 1043.5 c 128,-1,46
 858 1067 858 1067 854.5 1100 c 128,-1,47
 851 1133 851 1133 843 1154.5 c 128,-1,48
 835 1176 835 1176 822.5 1196.5 c 128,-1,49
 810 1217 810 1217 788.5 1227 c 128,-1,50
 767 1237 767 1237 739 1237 c 0,0,1
1032 1790 m 1,51,52
 1070 1758 1070 1758 1096 1709.5 c 128,-1,53
 1122 1661 1122 1661 1122 1616 c 0,54,55
 1122 1579 1122 1579 1105 1552.5 c 128,-1,56
 1088 1526 1088 1526 1064 1512 c 128,-1,57
 1040 1498 1040 1498 1002.5 1489 c 128,-1,58
 965 1480 965 1480 934 1477 c 128,-1,59
 903 1474 903 1474 863 1471 c 0,60,61
 850 1470 850 1470 844 1470 c 2,62,-1
 518 1448 l 1,63,-1
 492 1563 l 1,64,-1
 1032 1790 l 1,51,52
EndSplineSet
Validated: 1
Substitution2: "'locl' Localized Forms in Latin lookup 13 subtable" Cacute.loclPLK
Substitution2: "'aalt' Access All Alternates lookup 0 subtable" Cacute.loclPLK
Position2: "'cpsp' Capital Spacing lookup 3 subtable" dx=10 dy=0 dh=20 dv=0
EndChar

StartChar: Ccaron
Encoding: 268 268 17
Width: 1286
Flags: MW
HStem: -45 360<813 883> 1237 156<674 798>
VStem: 25 582<641 863 641 909> 860 403<1040 1041>
LayerCount: 2
UndoRedoHistory
Layer: 1
Undoes
EndUndoes
Redoes
EndRedoes
EndUndoRedoHistory
Fore
SplineSet
739 1237 m 0,0,1
 715 1237 715 1237 695.5 1224.5 c 128,-1,2
 676 1212 676 1212 663 1187 c 128,-1,3
 650 1162 650 1162 639.5 1134.5 c 128,-1,4
 629 1107 629 1107 623 1067.5 c 128,-1,5
 617 1028 617 1028 613.5 996.5 c 128,-1,6
 610 965 610 965 608.5 921.5 c 128,-1,7
 607 878 607 878 606.5 853.5 c 128,-1,8
 606 829 606 829 606 793 c 0,9,10
 606 558 606 558 683 436.5 c 128,-1,11
 760 315 760 315 930 315 c 0,12,13
 1016 315 1016 315 1080.5 350 c 128,-1,14
 1145 385 1145 385 1202 459 c 1,15,16
 1282 392 1282 392 1282 297 c 0,17,18
 1282 212 1282 212 1235 144 c 128,-1,19
 1188 76 1188 76 1111.5 36 c 128,-1,20
 1035 -4 1035 -4 946 -24.5 c 128,-1,21
 857 -45 857 -45 764 -45 c 0,22,23
 616 -45 616 -45 493.5 -9 c 128,-1,24
 371 27 371 27 285 91.5 c 128,-1,25
 199 156 199 156 140 245.5 c 128,-1,26
 81 335 81 335 53 440.5 c 128,-1,27
 25 546 25 546 25 666 c 0,28,29
 25 1028 25 1028 216 1210.5 c 128,-1,30
 407 1393 407 1393 774 1393 c 0,31,32
 845 1393 845 1393 909 1386.5 c 128,-1,33
 973 1380 973 1380 1040 1362 c 128,-1,34
 1107 1344 1107 1344 1155 1315.5 c 128,-1,35
 1203 1287 1203 1287 1233.5 1239 c 128,-1,36
 1264 1191 1264 1191 1264 1128 c 0,37,38
 1264 1002 1264 1002 1175.5 932 c 128,-1,39
 1087 862 1087 862 958 862 c 0,40,41
 922 862 922 862 852 866 c 1,42,43
 860 929 860 929 860 983 c 0,44,45
 860 1020 860 1020 859 1043.5 c 128,-1,46
 858 1067 858 1067 854.5 1100 c 128,-1,47
 851 1133 851 1133 843 1154.5 c 128,-1,48
 835 1176 835 1176 822.5 1196.5 c 128,-1,49
 810 1217 810 1217 788.5 1227 c 128,-1,50
 767 1237 767 1237 739 1237 c 0,0,1
1147 1663 m 1,51,-1
 850 1413 l 1,52,-1
 639 1413 l 1,53,-1
 336 1663 l 1,54,-1
 426 1769 l 1,55,-1
 741 1663 l 1,56,-1
 1055 1769 l 1,57,-1
 1147 1663 l 1,51,-1
EndSplineSet
Validated: 1
Position2: "'cpsp' Capital Spacing lookup 3 subtable" dx=10 dy=0 dh=20 dv=0
EndChar

StartChar: Ccedilla
Encoding: 199 199 18
Width: 1286
Flags: MW
HStem: -535 166<682 685 625 796> -223 115 1237 156<674 798>
VStem: 25 582<641 863 641 909> 735 299<-322 -267> 860 403<1040 1041>
LayerCount: 2
UndoRedoHistory
Layer: 1
Undoes
EndUndoes
Redoes
EndRedoes
EndUndoRedoHistory
Fore
SplineSet
610 -35 m 1,0,1
 464 -13 464 -13 351 49.5 c 128,-1,2
 238 112 238 112 167.5 206 c 128,-1,3
 97 300 97 300 61 416 c 128,-1,4
 25 532 25 532 25 666 c 0,5,6
 25 1028 25 1028 216 1210.5 c 128,-1,7
 407 1393 407 1393 774 1393 c 0,8,9
 845 1393 845 1393 909 1386.5 c 128,-1,10
 973 1380 973 1380 1040 1362 c 128,-1,11
 1107 1344 1107 1344 1155 1315.5 c 128,-1,12
 1203 1287 1203 1287 1233.5 1239 c 128,-1,13
 1264 1191 1264 1191 1264 1128 c 0,14,15
 1264 1002 1264 1002 1175.5 932 c 128,-1,16
 1087 862 1087 862 958 862 c 0,17,18
 922 862 922 862 852 866 c 1,19,20
 860 929 860 929 860 983 c 0,21,22
 860 1020 860 1020 859 1043.5 c 128,-1,23
 858 1067 858 1067 854.5 1100 c 128,-1,24
 851 1133 851 1133 843 1154.5 c 128,-1,25
 835 1176 835 1176 822.5 1196.5 c 128,-1,26
 810 1217 810 1217 788.5 1227 c 128,-1,27
 767 1237 767 1237 739 1237 c 0,28,29
 715 1237 715 1237 695.5 1224.5 c 128,-1,30
 676 1212 676 1212 663 1187 c 128,-1,31
 650 1162 650 1162 639.5 1134.5 c 128,-1,32
 629 1107 629 1107 623 1067.5 c 128,-1,33
 617 1028 617 1028 613.5 996.5 c 128,-1,34
 610 965 610 965 608.5 921.5 c 128,-1,35
 607 878 607 878 606.5 853.5 c 128,-1,36
 606 829 606 829 606 793 c 0,37,38
 606 558 606 558 683 436.5 c 128,-1,39
 760 315 760 315 930 315 c 0,40,41
 1016 315 1016 315 1080.5 350 c 128,-1,42
 1145 385 1145 385 1202 459 c 1,43,44
 1282 392 1282 392 1282 297 c 0,45,46
 1282 232 1282 232 1253.5 176.5 c 128,-1,47
 1225 121 1225 121 1178 82 c 128,-1,48
 1131 43 1131 43 1068 15 c 128,-1,49
 1005 -13 1005 -13 937.5 -27.5 c 128,-1,50
 870 -42 870 -42 799 -45 c 1,51,-1
 774 -109 l 1,52,53
 893 -111 893 -111 963.5 -160 c 128,-1,54
 1034 -209 1034 -209 1034 -315 c 0,55,56
 1034 -385 1034 -385 986 -436.5 c 128,-1,57
 938 -488 938 -488 868.5 -511.5 c 128,-1,58
 799 -535 799 -535 721 -535 c 0,59,60
 685 -535 685 -535 650.5 -530 c 128,-1,61
 616 -525 616 -525 576.5 -512.5 c 128,-1,62
 537 -500 537 -500 513 -471.5 c 128,-1,63
 489 -443 489 -443 489 -403 c 0,64,65
 489 -338 489 -338 516 -299 c 1,66,67
 562 -369 562 -369 668 -369 c 0,68,69
 696 -369 696 -369 715.5 -350.5 c 128,-1,70
 735 -332 735 -332 735 -297 c 0,71,72
 735 -257 735 -257 701.5 -240 c 128,-1,73
 668 -223 668 -223 621 -223 c 0,74,75
 595 -223 595 -223 541 -227 c 1,76,-1
 610 -35 l 1,0,1
EndSplineSet
Validated: 8388609
Position2: "'cpsp' Capital Spacing lookup 3 subtable" dx=10 dy=0 dh=20 dv=0
EndChar

StartChar: Ccircumflex
Encoding: 264 264 19
Width: 1286
Flags: MW
HStem: -45 360<813 883> 1237 156<674 798>
VStem: 25 582<641 863 641 909> 860 403<1040 1041>
LayerCount: 2
UndoRedoHistory
Layer: 1
Undoes
EndUndoes
Redoes
EndRedoes
EndUndoRedoHistory
Fore
SplineSet
739 1237 m 0,0,1
 715 1237 715 1237 695.5 1224.5 c 128,-1,2
 676 1212 676 1212 663 1187 c 128,-1,3
 650 1162 650 1162 639.5 1134.5 c 128,-1,4
 629 1107 629 1107 623 1067.5 c 128,-1,5
 617 1028 617 1028 613.5 996.5 c 128,-1,6
 610 965 610 965 608.5 921.5 c 128,-1,7
 607 878 607 878 606.5 853.5 c 128,-1,8
 606 829 606 829 606 793 c 0,9,10
 606 558 606 558 683 436.5 c 128,-1,11
 760 315 760 315 930 315 c 0,12,13
 1016 315 1016 315 1080.5 350 c 128,-1,14
 1145 385 1145 385 1202 459 c 1,15,16
 1282 392 1282 392 1282 297 c 0,17,18
 1282 212 1282 212 1235 144 c 128,-1,19
 1188 76 1188 76 1111.5 36 c 128,-1,20
 1035 -4 1035 -4 946 -24.5 c 128,-1,21
 857 -45 857 -45 764 -45 c 0,22,23
 616 -45 616 -45 493.5 -9 c 128,-1,24
 371 27 371 27 285 91.5 c 128,-1,25
 199 156 199 156 140 245.5 c 128,-1,26
 81 335 81 335 53 440.5 c 128,-1,27
 25 546 25 546 25 666 c 0,28,29
 25 1028 25 1028 216 1210.5 c 128,-1,30
 407 1393 407 1393 774 1393 c 0,31,32
 845 1393 845 1393 909 1386.5 c 128,-1,33
 973 1380 973 1380 1040 1362 c 128,-1,34
 1107 1344 1107 1344 1155 1315.5 c 128,-1,35
 1203 1287 1203 1287 1233.5 1239 c 128,-1,36
 1264 1191 1264 1191 1264 1128 c 0,37,38
 1264 1002 1264 1002 1175.5 932 c 128,-1,39
 1087 862 1087 862 958 862 c 0,40,41
 922 862 922 862 852 866 c 1,42,43
 860 929 860 929 860 983 c 0,44,45
 860 1020 860 1020 859 1043.5 c 128,-1,46
 858 1067 858 1067 854.5 1100 c 128,-1,47
 851 1133 851 1133 843 1154.5 c 128,-1,48
 835 1176 835 1176 822.5 1196.5 c 128,-1,49
 810 1217 810 1217 788.5 1227 c 128,-1,50
 767 1237 767 1237 739 1237 c 0,0,1
362 1526 m 1,51,-1
 700 1755 l 1,52,-1
 788 1755 l 1,53,-1
 1133 1526 l 1,54,-1
 1042 1419 l 1,55,-1
 748 1485 l 1,56,-1
 455 1419 l 1,57,-1
 362 1526 l 1,51,-1
EndSplineSet
Validated: 1
Position2: "'cpsp' Capital Spacing lookup 3 subtable" dx=10 dy=0 dh=20 dv=0
EndChar

StartChar: Cdotaccent
Encoding: 266 266 20
Width: 1286
Flags: MW
HStem: -45 360<813 883> 1237 156<674 798> 1505 348<653 786>
VStem: 25 582<641 863 641 909> 860 403<1040 1041>
LayerCount: 2
UndoRedoHistory
Layer: 1
Undoes
EndUndoes
Redoes
EndRedoes
EndUndoRedoHistory
Fore
SplineSet
739 1237 m 0,0,1
 715 1237 715 1237 695.5 1224.5 c 128,-1,2
 676 1212 676 1212 663 1187 c 128,-1,3
 650 1162 650 1162 639.5 1134.5 c 128,-1,4
 629 1107 629 1107 623 1067.5 c 128,-1,5
 617 1028 617 1028 613.5 996.5 c 128,-1,6
 610 965 610 965 608.5 921.5 c 128,-1,7
 607 878 607 878 606.5 853.5 c 128,-1,8
 606 829 606 829 606 793 c 0,9,10
 606 558 606 558 683 436.5 c 128,-1,11
 760 315 760 315 930 315 c 0,12,13
 1016 315 1016 315 1080.5 350 c 128,-1,14
 1145 385 1145 385 1202 459 c 1,15,16
 1282 392 1282 392 1282 297 c 0,17,18
 1282 212 1282 212 1235 144 c 128,-1,19
 1188 76 1188 76 1111.5 36 c 128,-1,20
 1035 -4 1035 -4 946 -24.5 c 128,-1,21
 857 -45 857 -45 764 -45 c 0,22,23
 616 -45 616 -45 493.5 -9 c 128,-1,24
 371 27 371 27 285 91.5 c 128,-1,25
 199 156 199 156 140 245.5 c 128,-1,26
 81 335 81 335 53 440.5 c 128,-1,27
 25 546 25 546 25 666 c 0,28,29
 25 1028 25 1028 216 1210.5 c 128,-1,30
 407 1393 407 1393 774 1393 c 0,31,32
 845 1393 845 1393 909 1386.5 c 128,-1,33
 973 1380 973 1380 1040 1362 c 128,-1,34
 1107 1344 1107 1344 1155 1315.5 c 128,-1,35
 1203 1287 1203 1287 1233.5 1239 c 128,-1,36
 1264 1191 1264 1191 1264 1128 c 0,37,38
 1264 1002 1264 1002 1175.5 932 c 128,-1,39
 1087 862 1087 862 958 862 c 0,40,41
 922 862 922 862 852 866 c 1,42,43
 860 929 860 929 860 983 c 0,44,45
 860 1020 860 1020 859 1043.5 c 128,-1,46
 858 1067 858 1067 854.5 1100 c 128,-1,47
 851 1133 851 1133 843 1154.5 c 128,-1,48
 835 1176 835 1176 822.5 1196.5 c 128,-1,49
 810 1217 810 1217 788.5 1227 c 128,-1,50
 767 1237 767 1237 739 1237 c 0,0,1
725 1853 m 0,51,52
 831 1853 831 1853 897 1806 c 128,-1,53
 963 1759 963 1759 963 1677 c 128,-1,54
 963 1595 963 1595 894.5 1550 c 128,-1,55
 826 1505 826 1505 715 1505 c 0,56,57
 606 1505 606 1505 538.5 1549 c 128,-1,58
 471 1593 471 1593 471 1673 c 0,59,60
 471 1755 471 1755 543 1804 c 128,-1,61
 615 1853 615 1853 725 1853 c 0,51,52
EndSplineSet
Validated: 1
Position2: "'cpsp' Capital Spacing lookup 3 subtable" dx=10 dy=0 dh=20 dv=0
EndChar

StartChar: D
Encoding: 68 68 21
Width: 1466
Flags: MW
HStem: -20 156<707 777 707 918> 1206 158<685 772>
VStem: 92 541<152 152 152 1188> 854 586<575 805>
LayerCount: 2
UndoRedoHistory
Layer: 1
Undoes
EndUndoes
Redoes
EndRedoes
EndUndoRedoHistory
Fore
SplineSet
633 152 m 1,0,1
 674 135 674 135 721 135 c 0,2,3
 761 135 761 135 789 188 c 128,-1,4
 817 241 817 241 830 330 c 128,-1,5
 843 419 843 419 848.5 504 c 128,-1,6
 854 589 854 589 854 684 c 0,7,8
 854 754 854 754 852.5 807.5 c 128,-1,9
 851 861 851 861 846 925.5 c 128,-1,10
 841 990 841 990 830 1036.5 c 128,-1,11
 819 1083 819 1083 803 1123.5 c 128,-1,12
 787 1164 787 1164 761.5 1185 c 128,-1,13
 736 1206 736 1206 702 1206 c 0,14,15
 689 1206 689 1206 680.5 1205 c 128,-1,16
 672 1204 672 1204 668.5 1203 c 128,-1,17
 665 1202 665 1202 653 1196.5 c 128,-1,18
 641 1191 641 1191 633 1188 c 1,19,-1
 633 152 l 1,0,1
92 1333 m 1,20,21
 412 1364 412 1364 694 1364 c 0,22,23
 881 1364 881 1364 1017.5 1326.5 c 128,-1,24
 1154 1289 1154 1289 1250 1208.5 c 128,-1,25
 1346 1128 1346 1128 1393 998 c 128,-1,26
 1440 868 1440 868 1440 686 c 0,27,28
 1440 333 1440 333 1242 156.5 c 128,-1,29
 1044 -20 1044 -20 678 -20 c 0,30,31
 397 -20 397 -20 92 6 c 1,32,-1
 92 1333 l 1,20,21
EndSplineSet
Validated: 1
Position2: "'cpsp' Capital Spacing lookup 3 subtable" dx=10 dy=0 dh=20 dv=0
EndChar

StartChar: DZ
Encoding: 497 497 22
Width: 2510
Flags: MW
HStem: -20 156<707 777 707 918> 0 203<2062 2501> 1149 203<1528 1917 1528 1528> 1206 158<685 772>
VStem: 92 541<152 152 152 1188> 854 586<575 805>
LayerCount: 2
UndoRedoHistory
Layer: 1
Undoes
EndUndoes
Redoes
EndRedoes
EndUndoRedoHistory
Fore
SplineSet
633 152 m 1,0,1
 674 135 674 135 721 135 c 0,2,3
 761 135 761 135 789 188 c 128,-1,4
 817 241 817 241 830 330 c 128,-1,5
 843 419 843 419 848.5 504 c 128,-1,6
 854 589 854 589 854 684 c 0,7,8
 854 754 854 754 852.5 807.5 c 128,-1,9
 851 861 851 861 846 925.5 c 128,-1,10
 841 990 841 990 830 1036.5 c 128,-1,11
 819 1083 819 1083 803 1123.5 c 128,-1,12
 787 1164 787 1164 761.5 1185 c 128,-1,13
 736 1206 736 1206 702 1206 c 0,14,15
 689 1206 689 1206 680.5 1205 c 128,-1,16
 672 1204 672 1204 668.5 1203 c 128,-1,17
 665 1202 665 1202 653 1196.5 c 128,-1,18
 641 1191 641 1191 633 1188 c 1,19,-1
 633 152 l 1,0,1
2497 1192 m 1,20,-1
 2062 203 l 1,21,-1
 2525 203 l 1,22,-1
 2501 0 l 1,23,-1
 1499 0 l 1,24,-1
 1485 160 l 1,25,-1
 1917 1149 l 1,26,-1
 1528 1149 l 1,27,-1
 1520 1352 l 1,28,-1
 2482 1352 l 1,29,-1
 2497 1192 l 1,20,-1
92 1333 m 1,30,31
 412 1364 412 1364 694 1364 c 0,32,33
 881 1364 881 1364 1017.5 1326.5 c 128,-1,34
 1154 1289 1154 1289 1250 1208.5 c 128,-1,35
 1346 1128 1346 1128 1393 998 c 128,-1,36
 1440 868 1440 868 1440 686 c 0,37,38
 1440 333 1440 333 1242 156.5 c 128,-1,39
 1044 -20 1044 -20 678 -20 c 0,40,41
 397 -20 397 -20 92 6 c 1,42,-1
 92 1333 l 1,30,31
EndSplineSet
Validated: 8388609
Position2: "'cpsp' Capital Spacing lookup 3 subtable" dx=10 dy=0 dh=20 dv=0
EndChar

StartChar: DZcaron
Encoding: 452 452 23
Width: 2510
Flags: MW
HStem: -20 156<707 777 707 918> 0 203<2062 2501> 1149 203<1528 1917 1528 1528> 1206 158<685 772>
VStem: 92 541<152 152 152 1188> 854 586<575 805>
LayerCount: 2
UndoRedoHistory
Layer: 1
Undoes
EndUndoes
Redoes
EndRedoes
EndUndoRedoHistory
Fore
SplineSet
633 152 m 1,0,1
 674 135 674 135 721 135 c 0,2,3
 761 135 761 135 789 188 c 128,-1,4
 817 241 817 241 830 330 c 128,-1,5
 843 419 843 419 848.5 504 c 128,-1,6
 854 589 854 589 854 684 c 0,7,8
 854 754 854 754 852.5 807.5 c 128,-1,9
 851 861 851 861 846 925.5 c 128,-1,10
 841 990 841 990 830 1036.5 c 128,-1,11
 819 1083 819 1083 803 1123.5 c 128,-1,12
 787 1164 787 1164 761.5 1185 c 128,-1,13
 736 1206 736 1206 702 1206 c 0,14,15
 689 1206 689 1206 680.5 1205 c 128,-1,16
 672 1204 672 1204 668.5 1203 c 128,-1,17
 665 1202 665 1202 653 1196.5 c 128,-1,18
 641 1191 641 1191 633 1188 c 1,19,-1
 633 152 l 1,0,1
2497 1192 m 1,20,-1
 2062 203 l 1,21,-1
 2525 203 l 1,22,-1
 2501 0 l 1,23,-1
 1499 0 l 1,24,-1
 1485 160 l 1,25,-1
 1917 1149 l 1,26,-1
 1528 1149 l 1,27,-1
 1520 1352 l 1,28,-1
 2482 1352 l 1,29,-1
 2497 1192 l 1,20,-1
92 1333 m 1,30,31
 412 1364 412 1364 694 1364 c 0,32,33
 881 1364 881 1364 1017.5 1326.5 c 128,-1,34
 1154 1289 1154 1289 1250 1208.5 c 128,-1,35
 1346 1128 1346 1128 1393 998 c 128,-1,36
 1440 868 1440 868 1440 686 c 0,37,38
 1440 333 1440 333 1242 156.5 c 128,-1,39
 1044 -20 1044 -20 678 -20 c 0,40,41
 397 -20 397 -20 92 6 c 1,42,-1
 92 1333 l 1,30,31
2392 1661 m 1,43,-1
 2095 1411 l 1,44,-1
 1884 1411 l 1,45,-1
 1581 1661 l 1,46,-1
 1671 1767 l 1,47,-1
 1987 1661 l 1,48,-1
 2300 1767 l 1,49,-1
 2392 1661 l 1,43,-1
EndSplineSet
Validated: 8388609
Position2: "'cpsp' Capital Spacing lookup 3 subtable" dx=10 dy=0 dh=20 dv=0
EndChar

StartChar: Eth
Encoding: 208 208 24
Width: 1454
Flags: MW
HStem: -20 156<696 767 696 907> 1206 158<675 762>
VStem: 82 541<152 152 152 586 152 586 788 1188> 844 586<575 805>
LayerCount: 2
UndoRedoHistory
Layer: 1
Undoes
EndUndoes
Redoes
EndRedoes
EndUndoRedoHistory
Fore
SplineSet
623 152 m 1,0,1
 664 135 664 135 711 135 c 0,2,3
 751 135 751 135 779 188 c 128,-1,4
 807 241 807 241 820 330 c 128,-1,5
 833 419 833 419 838.5 504 c 128,-1,6
 844 589 844 589 844 684 c 0,7,8
 844 754 844 754 842.5 807.5 c 128,-1,9
 841 861 841 861 836 925.5 c 128,-1,10
 831 990 831 990 820 1036.5 c 128,-1,11
 809 1083 809 1083 793 1123.5 c 128,-1,12
 777 1164 777 1164 751.5 1185 c 128,-1,13
 726 1206 726 1206 692 1206 c 0,14,15
 679 1206 679 1206 670.5 1205 c 128,-1,16
 662 1204 662 1204 658.5 1203 c 128,-1,17
 655 1202 655 1202 643 1196.5 c 128,-1,18
 631 1191 631 1191 623 1188 c 1,19,-1
 623 788 l 1,20,-1
 762 788 l 1,21,22
 766 770 766 770 766 733 c 0,23,24
 766 665 766 665 728.5 627 c 128,-1,25
 691 589 691 589 623 586 c 1,26,-1
 623 152 l 1,0,1
82 1333 m 1,27,28
 402 1364 402 1364 684 1364 c 0,29,30
 871 1364 871 1364 1007.5 1326.5 c 128,-1,31
 1144 1289 1144 1289 1240 1208.5 c 128,-1,32
 1336 1128 1336 1128 1383 998 c 128,-1,33
 1430 868 1430 868 1430 686 c 0,34,35
 1430 333 1430 333 1232 156.5 c 128,-1,36
 1034 -20 1034 -20 668 -20 c 0,37,38
 387 -20 387 -20 82 6 c 1,39,-1
 82 586 l 1,40,-1
 -2 586 l 1,41,42
 -6 604 -6 604 -6 639 c 0,43,44
 -6 750 -6 750 82 778 c 1,45,-1
 82 1333 l 1,27,28
EndSplineSet
Validated: 1
Position2: "'cpsp' Capital Spacing lookup 3 subtable" dx=10 dy=0 dh=20 dv=0
EndChar

StartChar: Dcaron
Encoding: 270 270 25
Width: 1466
Flags: MW
HStem: -20 156<707 777 707 918> 1206 158<685 772>
VStem: 92 541<152 152 152 1188> 854 586<575 805>
LayerCount: 2
UndoRedoHistory
Layer: 1
Undoes
EndUndoes
Redoes
EndRedoes
EndUndoRedoHistory
Fore
SplineSet
633 152 m 1,0,1
 674 135 674 135 721 135 c 0,2,3
 761 135 761 135 789 188 c 128,-1,4
 817 241 817 241 830 330 c 128,-1,5
 843 419 843 419 848.5 504 c 128,-1,6
 854 589 854 589 854 684 c 0,7,8
 854 754 854 754 852.5 807.5 c 128,-1,9
 851 861 851 861 846 925.5 c 128,-1,10
 841 990 841 990 830 1036.5 c 128,-1,11
 819 1083 819 1083 803 1123.5 c 128,-1,12
 787 1164 787 1164 761.5 1185 c 128,-1,13
 736 1206 736 1206 702 1206 c 0,14,15
 689 1206 689 1206 680.5 1205 c 128,-1,16
 672 1204 672 1204 668.5 1203 c 128,-1,17
 665 1202 665 1202 653 1196.5 c 128,-1,18
 641 1191 641 1191 633 1188 c 1,19,-1
 633 152 l 1,0,1
92 1333 m 1,20,21
 412 1364 412 1364 694 1364 c 0,22,23
 881 1364 881 1364 1017.5 1326.5 c 128,-1,24
 1154 1289 1154 1289 1250 1208.5 c 128,-1,25
 1346 1128 1346 1128 1393 998 c 128,-1,26
 1440 868 1440 868 1440 686 c 0,27,28
 1440 333 1440 333 1242 156.5 c 128,-1,29
 1044 -20 1044 -20 678 -20 c 0,30,31
 397 -20 397 -20 92 6 c 1,32,-1
 92 1333 l 1,20,21
1102 1663 m 1,33,-1
 805 1413 l 1,34,-1
 594 1413 l 1,35,-1
 291 1663 l 1,36,-1
 381 1769 l 1,37,-1
 696 1663 l 1,38,-1
 1010 1769 l 1,39,-1
 1102 1663 l 1,33,-1
EndSplineSet
Validated: 1
Position2: "'cpsp' Capital Spacing lookup 3 subtable" dx=10 dy=0 dh=20 dv=0
EndChar

StartChar: Dcroat
Encoding: 272 272 26
Width: 1454
Flags: MW
HStem: -20 156<696 767 696 907> 1206 158<675 762>
VStem: 82 541<152 152 152 586 152 586 788 1188> 844 586<575 805>
LayerCount: 2
UndoRedoHistory
Layer: 1
Undoes
EndUndoes
Redoes
EndRedoes
EndUndoRedoHistory
Fore
SplineSet
623 152 m 1,0,1
 664 135 664 135 711 135 c 0,2,3
 751 135 751 135 779 188 c 128,-1,4
 807 241 807 241 820 330 c 128,-1,5
 833 419 833 419 838.5 504 c 128,-1,6
 844 589 844 589 844 684 c 0,7,8
 844 754 844 754 842.5 807.5 c 128,-1,9
 841 861 841 861 836 925.5 c 128,-1,10
 831 990 831 990 820 1036.5 c 128,-1,11
 809 1083 809 1083 793 1123.5 c 128,-1,12
 777 1164 777 1164 751.5 1185 c 128,-1,13
 726 1206 726 1206 692 1206 c 0,14,15
 679 1206 679 1206 670.5 1205 c 128,-1,16
 662 1204 662 1204 658.5 1203 c 128,-1,17
 655 1202 655 1202 643 1196.5 c 128,-1,18
 631 1191 631 1191 623 1188 c 1,19,-1
 623 788 l 1,20,-1
 760 788 l 1,21,22
 766 734 766 734 766 733 c 0,23,24
 766 665 766 665 728.5 627 c 128,-1,25
 691 589 691 589 623 586 c 1,26,-1
 623 152 l 1,0,1
82 1333 m 1,27,28
 402 1364 402 1364 684 1364 c 0,29,30
 871 1364 871 1364 1007.5 1326.5 c 128,-1,31
 1144 1289 1144 1289 1240 1208.5 c 128,-1,32
 1336 1128 1336 1128 1383 998 c 128,-1,33
 1430 868 1430 868 1430 686 c 0,34,35
 1430 333 1430 333 1232 156.5 c 128,-1,36
 1034 -20 1034 -20 668 -20 c 0,37,38
 387 -20 387 -20 82 6 c 1,39,-1
 82 586 l 1,40,-1
 -2 586 l 1,41,42
 -6 604 -6 604 -6 639 c 0,43,44
 -6 750 -6 750 82 778 c 1,45,-1
 82 1333 l 1,27,28
EndSplineSet
Validated: 1
Position2: "'cpsp' Capital Spacing lookup 3 subtable" dx=10 dy=0 dh=20 dv=0
EndChar

StartChar: Ddotbelow
Encoding: 7692 7692 27
Width: 1466
Flags: MW
HStem: -414 348<610 743> -20 156<707 777 707 918> 1206 158<685 772>
VStem: 92 541<152 152 152 1188> 854 586<575 805>
LayerCount: 2
UndoRedoHistory
Layer: 1
Undoes
EndUndoes
Redoes
EndRedoes
EndUndoRedoHistory
Fore
SplineSet
682 -66 m 0,0,1
 788 -66 788 -66 854 -113 c 128,-1,2
 920 -160 920 -160 920 -242 c 128,-1,3
 920 -324 920 -324 851.5 -369 c 128,-1,4
 783 -414 783 -414 672 -414 c 0,5,6
 563 -414 563 -414 495.5 -370 c 128,-1,7
 428 -326 428 -326 428 -246 c 0,8,9
 428 -164 428 -164 500 -115 c 128,-1,10
 572 -66 572 -66 682 -66 c 0,0,1
633 152 m 1,11,12
 674 135 674 135 721 135 c 0,13,14
 761 135 761 135 789 188 c 128,-1,15
 817 241 817 241 830 330 c 128,-1,16
 843 419 843 419 848.5 504 c 128,-1,17
 854 589 854 589 854 684 c 0,18,19
 854 754 854 754 852.5 807.5 c 128,-1,20
 851 861 851 861 846 925.5 c 128,-1,21
 841 990 841 990 830 1036.5 c 128,-1,22
 819 1083 819 1083 803 1123.5 c 128,-1,23
 787 1164 787 1164 761.5 1185 c 128,-1,24
 736 1206 736 1206 702 1206 c 0,25,26
 689 1206 689 1206 680.5 1205 c 128,-1,27
 672 1204 672 1204 668.5 1203 c 128,-1,28
 665 1202 665 1202 653 1196.5 c 128,-1,29
 641 1191 641 1191 633 1188 c 1,30,-1
 633 152 l 1,11,12
92 1333 m 1,31,32
 412 1364 412 1364 694 1364 c 0,33,34
 881 1364 881 1364 1017.5 1326.5 c 128,-1,35
 1154 1289 1154 1289 1250 1208.5 c 128,-1,36
 1346 1128 1346 1128 1393 998 c 128,-1,37
 1440 868 1440 868 1440 686 c 0,38,39
 1440 333 1440 333 1242 156.5 c 128,-1,40
 1044 -20 1044 -20 678 -20 c 0,41,42
 397 -20 397 -20 92 6 c 1,43,-1
 92 1333 l 1,31,32
EndSplineSet
Validated: 1
Position2: "'cpsp' Capital Spacing lookup 3 subtable" dx=10 dy=0 dh=20 dv=0
EndChar

StartChar: Dz
Encoding: 498 498 28
Width: 2406
Flags: MW
HStem: -20 156<707 777 707 918> 0 190<2025 2025 2025 2353> 839 206 1206 158<685 772>
VStem: 92 541<152 152 152 1188> 854 586<575 805>
LayerCount: 2
UndoRedoHistory
Layer: 1
Undoes
EndUndoes
Redoes
EndRedoes
EndUndoRedoHistory
Fore
SplineSet
2378 924 m 1,0,-1
 2025 190 l 1,1,-1
 2378 225 l 1,2,-1
 2353 0 l 1,3,-1
 1470 0 l 1,4,-1
 1458 119 l 1,5,-1
 1810 852 l 1,6,-1
 1509 825 l 1,7,-1
 1532 1044 l 1,8,-1
 2367 1044 l 1,9,-1
 2378 924 l 1,0,-1
633 152 m 1,10,11
 674 135 674 135 721 135 c 0,12,13
 761 135 761 135 789 188 c 128,-1,14
 817 241 817 241 830 330 c 128,-1,15
 843 419 843 419 848.5 504 c 128,-1,16
 854 589 854 589 854 684 c 0,17,18
 854 754 854 754 852.5 807.5 c 128,-1,19
 851 861 851 861 846 925.5 c 128,-1,20
 841 990 841 990 830 1036.5 c 128,-1,21
 819 1083 819 1083 803 1123.5 c 128,-1,22
 787 1164 787 1164 761.5 1185 c 128,-1,23
 736 1206 736 1206 702 1206 c 0,24,25
 689 1206 689 1206 680.5 1205 c 128,-1,26
 672 1204 672 1204 668.5 1203 c 128,-1,27
 665 1202 665 1202 653 1196.5 c 128,-1,28
 641 1191 641 1191 633 1188 c 1,29,-1
 633 152 l 1,10,11
92 1333 m 1,30,31
 412 1364 412 1364 694 1364 c 0,32,33
 881 1364 881 1364 1017.5 1326.5 c 128,-1,34
 1154 1289 1154 1289 1250 1208.5 c 128,-1,35
 1346 1128 1346 1128 1393 998 c 128,-1,36
 1440 868 1440 868 1440 686 c 0,37,38
 1440 333 1440 333 1242 156.5 c 128,-1,39
 1044 -20 1044 -20 678 -20 c 0,40,41
 397 -20 397 -20 92 6 c 1,42,-1
 92 1333 l 1,30,31
EndSplineSet
Validated: 8388609
Position2: "'cpsp' Capital Spacing lookup 3 subtable" dx=10 dy=0 dh=20 dv=0
EndChar

StartChar: Dzcaron
Encoding: 453 453 29
Width: 2406
Flags: MW
HStem: -20 156<707 777 707 918> 0 190<2025 2025 2025 2353> 839 206 1206 158<685 772> 1399 41G<1626 1626 2255 2255>
VStem: 92 541<152 152 152 1188> 854 586<575 805>
LayerCount: 2
UndoRedoHistory
Layer: 1
Undoes
EndUndoes
Redoes
EndRedoes
EndUndoRedoHistory
Fore
SplineSet
2378 924 m 1,0,-1
 2025 190 l 1,1,-1
 2378 225 l 1,2,-1
 2353 0 l 1,3,-1
 1470 0 l 1,4,-1
 1458 119 l 1,5,-1
 1810 852 l 1,6,-1
 1509 825 l 1,7,-1
 1532 1044 l 1,8,-1
 2367 1044 l 1,9,-1
 2378 924 l 1,0,-1
633 152 m 1,10,11
 674 135 674 135 721 135 c 0,12,13
 761 135 761 135 789 188 c 128,-1,14
 817 241 817 241 830 330 c 128,-1,15
 843 419 843 419 848.5 504 c 128,-1,16
 854 589 854 589 854 684 c 0,17,18
 854 754 854 754 852.5 807.5 c 128,-1,19
 851 861 851 861 846 925.5 c 128,-1,20
 841 990 841 990 830 1036.5 c 128,-1,21
 819 1083 819 1083 803 1123.5 c 128,-1,22
 787 1164 787 1164 761.5 1185 c 128,-1,23
 736 1206 736 1206 702 1206 c 0,24,25
 689 1206 689 1206 680.5 1205 c 128,-1,26
 672 1204 672 1204 668.5 1203 c 128,-1,27
 665 1202 665 1202 653 1196.5 c 128,-1,28
 641 1191 641 1191 633 1188 c 1,29,-1
 633 152 l 1,10,11
92 1333 m 1,30,31
 412 1364 412 1364 694 1364 c 0,32,33
 881 1364 881 1364 1017.5 1326.5 c 128,-1,34
 1154 1289 1154 1289 1250 1208.5 c 128,-1,35
 1346 1128 1346 1128 1393 998 c 128,-1,36
 1440 868 1440 868 1440 686 c 0,37,38
 1440 333 1440 333 1242 156.5 c 128,-1,39
 1044 -20 1044 -20 678 -20 c 0,40,41
 397 -20 397 -20 92 6 c 1,42,-1
 92 1333 l 1,30,31
2347 1333 m 1,43,-1
 2050 1083 l 1,44,-1
 1839 1083 l 1,45,-1
 1536 1333 l 1,46,-1
 1626 1440 l 1,47,-1
 1942 1333 l 1,48,-1
 2255 1440 l 1,49,-1
 2347 1333 l 1,43,-1
EndSplineSet
Validated: 8388609
Position2: "'cpsp' Capital Spacing lookup 3 subtable" dx=10 dy=0 dh=20 dv=0
EndChar

StartChar: E
Encoding: 69 69 30
Width: 954
Flags: MW
HStem: 0 182<633 967> 602 184<633 891 633 891> 1169 182<633 952 633 633>
VStem: 92 541<182 602 786 1169>
LayerCount: 2
UndoRedoHistory
Layer: 1
Undoes
EndUndoes
Redoes
EndRedoes
EndUndoRedoHistory
Fore
SplineSet
952 1169 m 1,0,-1
 633 1169 l 1,1,-1
 633 786 l 1,2,-1
 891 786 l 1,3,-1
 891 602 l 1,4,-1
 633 602 l 1,5,-1
 633 182 l 1,6,-1
 983 182 l 1,7,-1
 967 0 l 1,8,-1
 92 0 l 1,9,-1
 92 1352 l 1,10,-1
 952 1352 l 1,11,-1
 952 1169 l 1,0,-1
EndSplineSet
Validated: 1
Position2: "'cpsp' Capital Spacing lookup 3 subtable" dx=10 dy=0 dh=20 dv=0
EndChar

StartChar: Eacute
Encoding: 201 201 31
Width: 954
Flags: MW
HStem: 0 182<633 967> 602 184<633 891 633 891> 1169 182<633 633 633 952>
VStem: 92 541<182 602 786 1169>
LayerCount: 2
UndoRedoHistory
Layer: 1
Undoes
EndUndoes
Redoes
EndRedoes
EndUndoRedoHistory
Fore
SplineSet
633 1169 m 1,0,-1
 633 786 l 1,1,-1
 891 786 l 1,2,-1
 891 602 l 1,3,-1
 633 602 l 1,4,-1
 633 182 l 1,5,-1
 983 182 l 1,6,-1
 967 0 l 1,7,-1
 92 0 l 1,8,-1
 92 1352 l 1,9,-1
 952 1352 l 1,10,-1
 952 1169 l 1,11,-1
 633 1169 l 1,0,-1
815 1790 m 1,12,13
 853 1758 853 1758 879 1709.5 c 128,-1,14
 905 1661 905 1661 905 1616 c 0,15,16
 905 1579 905 1579 888 1552.5 c 128,-1,17
 871 1526 871 1526 847 1512 c 128,-1,18
 823 1498 823 1498 785.5 1489 c 128,-1,19
 748 1480 748 1480 717 1477 c 128,-1,20
 686 1474 686 1474 646 1471 c 0,21,22
 633 1470 633 1470 627 1470 c 2,23,-1
 301 1448 l 1,24,-1
 274 1563 l 1,25,-1
 815 1790 l 1,12,13
EndSplineSet
Validated: 1
Position2: "'cpsp' Capital Spacing lookup 3 subtable" dx=10 dy=0 dh=20 dv=0
EndChar

StartChar: Ebreve
Encoding: 276 276 32
Width: 954
Flags: MW
HStem: 0 182<633 967> 602 184<633 891 633 891> 1169 182<633 633 633 952> 1432 106<484 560 484 678>
VStem: 92 541<182 602 786 1169> 102 346<1656 1710 1656 1710> 596 344<1656 1710>
LayerCount: 2
UndoRedoHistory
Layer: 1
Undoes
EndUndoes
Redoes
EndRedoes
EndUndoRedoHistory
Fore
SplineSet
633 1169 m 1,0,-1
 633 786 l 1,1,-1
 891 786 l 1,2,-1
 891 602 l 1,3,-1
 633 602 l 1,4,-1
 633 182 l 1,5,-1
 983 182 l 1,6,-1
 967 0 l 1,7,-1
 92 0 l 1,8,-1
 92 1352 l 1,9,-1
 952 1352 l 1,10,-1
 952 1169 l 1,11,-1
 633 1169 l 1,0,-1
940 1710 m 1,12,13
 940 1432 940 1432 522 1432 c 0,14,15
 102 1432 102 1432 102 1710 c 1,16,-1
 449 1710 l 1,17,18
 449 1605 449 1605 459 1578 c 0,19,20
 475 1538 475 1538 522 1538 c 0,21,22
 557 1538 557 1538 574 1560.5 c 128,-1,23
 591 1583 591 1583 593.5 1610 c 128,-1,24
 596 1637 596 1637 596 1702 c 0,25,26
 596 1707 596 1707 596 1710 c 1,27,-1
 940 1710 l 1,12,13
EndSplineSet
Validated: 8388609
Position2: "'cpsp' Capital Spacing lookup 3 subtable" dx=10 dy=0 dh=20 dv=0
EndChar

StartChar: Ecaron
Encoding: 282 282 33
Width: 954
Flags: MW
HStem: 0 182<633 967> 602 184<633 891 633 891> 1169 182<633 633 633 952>
VStem: 92 541<182 602 786 1169>
LayerCount: 2
UndoRedoHistory
Layer: 1
Undoes
EndUndoes
Redoes
EndRedoes
EndUndoRedoHistory
Fore
SplineSet
633 1169 m 1,0,-1
 633 786 l 1,1,-1
 891 786 l 1,2,-1
 891 602 l 1,3,-1
 633 602 l 1,4,-1
 633 182 l 1,5,-1
 983 182 l 1,6,-1
 967 0 l 1,7,-1
 92 0 l 1,8,-1
 92 1352 l 1,9,-1
 952 1352 l 1,10,-1
 952 1169 l 1,11,-1
 633 1169 l 1,0,-1
928 1663 m 1,12,-1
 631 1413 l 1,13,-1
 420 1413 l 1,14,-1
 117 1663 l 1,15,-1
 207 1769 l 1,16,-1
 522 1663 l 1,17,-1
 836 1769 l 1,18,-1
 928 1663 l 1,12,-1
EndSplineSet
Validated: 1
Position2: "'cpsp' Capital Spacing lookup 3 subtable" dx=10 dy=0 dh=20 dv=0
EndChar

StartChar: Ecircumflex
Encoding: 202 202 34
Width: 954
Flags: MW
HStem: 0 182<633 967> 602 184<633 891 633 891> 1169 182<633 633 633 952>
VStem: 92 541<182 602 786 1169>
LayerCount: 2
UndoRedoHistory
Layer: 1
Undoes
EndUndoes
Redoes
EndRedoes
EndUndoRedoHistory
Fore
SplineSet
633 1169 m 1,0,-1
 633 786 l 1,1,-1
 891 786 l 1,2,-1
 891 602 l 1,3,-1
 633 602 l 1,4,-1
 633 182 l 1,5,-1
 983 182 l 1,6,-1
 967 0 l 1,7,-1
 92 0 l 1,8,-1
 92 1352 l 1,9,-1
 952 1352 l 1,10,-1
 952 1169 l 1,11,-1
 633 1169 l 1,0,-1
143 1526 m 1,12,-1
 481 1755 l 1,13,-1
 569 1755 l 1,14,-1
 913 1526 l 1,15,-1
 823 1419 l 1,16,-1
 528 1485 l 1,17,-1
 236 1419 l 1,18,-1
 143 1526 l 1,12,-1
EndSplineSet
Validated: 1
Position2: "'cpsp' Capital Spacing lookup 3 subtable" dx=10 dy=0 dh=20 dv=0
EndChar

StartChar: Edieresis
Encoding: 203 203 35
Width: 954
Flags: MW
HStem: 0 182<633 967> 602 184<633 891 633 891> 1169 182<633 633 633 952> 1448 348<223 356 735 868>
VStem: 92 541<182 602 786 1169>
LayerCount: 2
UndoRedoHistory
Layer: 1
Undoes
EndUndoes
Redoes
EndRedoes
EndUndoRedoHistory
Fore
SplineSet
633 1169 m 1,0,-1
 633 786 l 1,1,-1
 891 786 l 1,2,-1
 891 602 l 1,3,-1
 633 602 l 1,4,-1
 633 182 l 1,5,-1
 983 182 l 1,6,-1
 967 0 l 1,7,-1
 92 0 l 1,8,-1
 92 1352 l 1,9,-1
 952 1352 l 1,10,-1
 952 1169 l 1,11,-1
 633 1169 l 1,0,-1
807 1796 m 0,12,13
 913 1796 913 1796 978.5 1749 c 128,-1,14
 1044 1702 1044 1702 1044 1620 c 128,-1,15
 1044 1538 1044 1538 976 1493 c 128,-1,16
 908 1448 908 1448 797 1448 c 0,17,18
 688 1448 688 1448 620.5 1492 c 128,-1,19
 553 1536 553 1536 553 1616 c 0,20,21
 553 1698 553 1698 625 1747 c 128,-1,22
 697 1796 697 1796 807 1796 c 0,12,13
295 1796 m 0,23,24
 401 1796 401 1796 466.5 1749 c 128,-1,25
 532 1702 532 1702 532 1620 c 128,-1,26
 532 1538 532 1538 464 1493 c 128,-1,27
 396 1448 396 1448 285 1448 c 0,28,29
 176 1448 176 1448 108.5 1492 c 128,-1,30
 41 1536 41 1536 41 1616 c 0,31,32
 41 1698 41 1698 113 1747 c 128,-1,33
 185 1796 185 1796 295 1796 c 0,23,24
EndSplineSet
Validated: 1
Position2: "'cpsp' Capital Spacing lookup 3 subtable" dx=10 dy=0 dh=20 dv=0
EndChar

StartChar: Edotaccent
Encoding: 278 278 36
Width: 954
Flags: MW
HStem: 0 182<633 967> 602 184<633 891 633 891> 1169 182<633 633 633 952> 1446 348<428 561>
VStem: 92 541<182 602 786 1169>
LayerCount: 2
UndoRedoHistory
Layer: 1
Undoes
EndUndoes
Redoes
EndRedoes
EndUndoRedoHistory
Fore
SplineSet
633 1169 m 1,0,-1
 633 786 l 1,1,-1
 891 786 l 1,2,-1
 891 602 l 1,3,-1
 633 602 l 1,4,-1
 633 182 l 1,5,-1
 983 182 l 1,6,-1
 967 0 l 1,7,-1
 92 0 l 1,8,-1
 92 1352 l 1,9,-1
 952 1352 l 1,10,-1
 952 1169 l 1,11,-1
 633 1169 l 1,0,-1
500 1794 m 0,12,13
 606 1794 606 1794 671.5 1747 c 128,-1,14
 737 1700 737 1700 737 1618 c 128,-1,15
 737 1536 737 1536 668.5 1491 c 128,-1,16
 600 1446 600 1446 489 1446 c 0,17,18
 380 1446 380 1446 313 1490 c 128,-1,19
 246 1534 246 1534 246 1614 c 0,20,21
 246 1696 246 1696 318 1745 c 128,-1,22
 390 1794 390 1794 500 1794 c 0,12,13
EndSplineSet
Validated: 1
Position2: "'cpsp' Capital Spacing lookup 3 subtable" dx=10 dy=0 dh=20 dv=0
EndChar

StartChar: Edotbelow
Encoding: 7864 7864 37
Width: 954
Flags: MW
HStem: -414 348<432 565> 0 182<633 967> 602 184<633 891 633 891> 1169 182<633 633 633 952>
VStem: 92 541<182 602 786 1169>
LayerCount: 2
UndoRedoHistory
Layer: 1
Undoes
EndUndoes
Redoes
EndRedoes
EndUndoRedoHistory
Fore
SplineSet
504 -66 m 0,0,1
 610 -66 610 -66 675.5 -113 c 128,-1,2
 741 -160 741 -160 741 -242 c 128,-1,3
 741 -324 741 -324 673 -369 c 128,-1,4
 605 -414 605 -414 494 -414 c 0,5,6
 385 -414 385 -414 317.5 -370 c 128,-1,7
 250 -326 250 -326 250 -246 c 0,8,9
 250 -164 250 -164 322 -115 c 128,-1,10
 394 -66 394 -66 504 -66 c 0,0,1
633 1169 m 1,11,-1
 633 786 l 1,12,-1
 891 786 l 1,13,-1
 891 602 l 1,14,-1
 633 602 l 1,15,-1
 633 182 l 1,16,-1
 983 182 l 1,17,-1
 967 0 l 1,18,-1
 92 0 l 1,19,-1
 92 1352 l 1,20,-1
 952 1352 l 1,21,-1
 952 1169 l 1,22,-1
 633 1169 l 1,11,-1
EndSplineSet
Validated: 1
Position2: "'cpsp' Capital Spacing lookup 3 subtable" dx=10 dy=0 dh=20 dv=0
EndChar

StartChar: Egrave
Encoding: 200 200 38
Width: 954
Flags: MW
HStem: 0 182<633 967> 602 184<633 891 633 891> 1169 182<633 633 633 952>
VStem: 92 541<182 602 786 1169>
LayerCount: 2
UndoRedoHistory
Layer: 1
Undoes
EndUndoes
Redoes
EndRedoes
EndUndoRedoHistory
Fore
SplineSet
633 1169 m 1,0,-1
 633 786 l 1,1,-1
 891 786 l 1,2,-1
 891 602 l 1,3,-1
 633 602 l 1,4,-1
 633 182 l 1,5,-1
 983 182 l 1,6,-1
 967 0 l 1,7,-1
 92 0 l 1,8,-1
 92 1352 l 1,9,-1
 952 1352 l 1,10,-1
 952 1169 l 1,11,-1
 633 1169 l 1,0,-1
418 1475 m 2,12,13
 293 1484 293 1484 249 1496 c 0,14,15
 139 1526 139 1526 139 1620 c 0,16,17
 139 1664 139 1664 164.5 1713 c 128,-1,18
 190 1762 190 1762 227 1794 c 1,19,-1
 770 1567 l 1,20,-1
 743 1452 l 1,21,-1
 418 1475 l 2,12,13
EndSplineSet
Validated: 1
Position2: "'cpsp' Capital Spacing lookup 3 subtable" dx=10 dy=0 dh=20 dv=0
EndChar

StartChar: Emacron
Encoding: 274 274 39
Width: 954
Flags: MW
HStem: 0 182<633 967> 602 184<633 891 633 891> 1169 182<633 633 633 952> 1530 199<350 776 248 872>
VStem: 92 541<182 602 786 1169>
LayerCount: 2
UndoRedoHistory
Layer: 1
Undoes
EndUndoes
Redoes
EndRedoes
EndUndoRedoHistory
Fore
SplineSet
633 1169 m 1,0,-1
 633 786 l 1,1,-1
 891 786 l 1,2,-1
 891 602 l 1,3,-1
 633 602 l 1,4,-1
 633 182 l 1,5,-1
 983 182 l 1,6,-1
 967 0 l 1,7,-1
 92 0 l 1,8,-1
 92 1352 l 1,9,-1
 952 1352 l 1,10,-1
 952 1169 l 1,11,-1
 633 1169 l 1,0,-1
872 1729 m 1,12,13
 891 1702 891 1702 891 1649 c 128,-1,14
 891 1596 891 1596 858.5 1563 c 128,-1,15
 826 1530 826 1530 776 1530 c 2,16,-1
 248 1530 l 1,17,18
 227 1560 227 1560 227 1614 c 0,19,20
 227 1665 227 1665 261 1697 c 128,-1,21
 295 1729 295 1729 350 1729 c 2,22,-1
 872 1729 l 1,12,13
EndSplineSet
Validated: 1
Position2: "'cpsp' Capital Spacing lookup 3 subtable" dx=10 dy=0 dh=20 dv=0
EndChar

StartChar: Eogonek
Encoding: 280 280 40
Width: 954
Flags: MW
HStem: -561 209<734 923> 0 182<633 788 956 967 956 956> 602 184<633 891 633 891> 1169 182<633 952 633 633>
VStem: 92 541<182 602 786 1169> 498 283<-295 -251>
LayerCount: 2
UndoRedoHistory
Layer: 1
Undoes
EndUndoes
Redoes
EndRedoes
EndUndoRedoHistory
Fore
SplineSet
956 0 m 1,0,1
 780 -126 780 -126 780 -256 c 0,2,3
 780 -311 780 -311 810.5 -331.5 c 128,-1,4
 841 -352 841 -352 903 -352 c 0,5,6
 940 -352 940 -352 979.5 -338.5 c 128,-1,7
 1019 -325 1019 -325 1032 -297 c 1,8,9
 1098 -343 1098 -343 1098 -410 c 0,10,11
 1098 -449 1098 -449 1066.5 -480 c 128,-1,12
 1035 -511 1035 -511 987.5 -527.5 c 128,-1,13
 940 -544 940 -544 893 -552.5 c 128,-1,14
 846 -561 846 -561 807 -561 c 0,15,16
 761 -561 761 -561 719 -555 c 128,-1,17
 677 -549 677 -549 636 -534 c 128,-1,18
 595 -519 595 -519 565 -496 c 128,-1,19
 535 -473 535 -473 516.5 -435.5 c 128,-1,20
 498 -398 498 -398 498 -350 c 0,21,22
 498 -278 498 -278 519.5 -220.5 c 128,-1,23
 541 -163 541 -163 582.5 -122 c 128,-1,24
 624 -81 624 -81 673 -52.5 c 128,-1,25
 722 -24 722 -24 788 0 c 1,26,-1
 92 0 l 1,27,-1
 92 1352 l 1,28,-1
 952 1352 l 1,29,-1
 952 1169 l 1,30,-1
 633 1169 l 1,31,-1
 633 786 l 1,32,-1
 891 786 l 1,33,-1
 891 602 l 1,34,-1
 633 602 l 1,35,-1
 633 182 l 1,36,-1
 983 182 l 1,37,-1
 969 20 l 1,38,-1
 987 20 l 1,39,-1
 967 8 l 1,40,-1
 967 0 l 1,41,-1
 956 0 l 1,0,1
EndSplineSet
Validated: 8388609
Position2: "'cpsp' Capital Spacing lookup 3 subtable" dx=10 dy=0 dh=20 dv=0
EndChar

StartChar: Etilde
Encoding: 7868 7868 41
Width: 954
Flags: MW
HStem: 0 182<633 967> 602 184<633 891 633 891> 1169 182<633 633 633 952> 1446 233<730 803> 1483 233<248 319>
VStem: 92 541<182 602 786 1169>
LayerCount: 2
UndoRedoHistory
Layer: 1
Undoes
EndUndoes
Redoes
EndRedoes
EndUndoRedoHistory
Fore
SplineSet
633 1169 m 1,0,-1
 633 786 l 1,1,-1
 891 786 l 1,2,-1
 891 602 l 1,3,-1
 633 602 l 1,4,-1
 633 182 l 1,5,-1
 983 182 l 1,6,-1
 967 0 l 1,7,-1
 92 0 l 1,8,-1
 92 1352 l 1,9,-1
 952 1352 l 1,10,-1
 952 1169 l 1,11,-1
 633 1169 l 1,0,-1
940 1726 m 1,12,13
 983 1653 983 1653 983 1593 c 0,14,15
 983 1547 983 1547 964 1516 c 128,-1,16
 945 1485 945 1485 908 1470.5 c 128,-1,17
 871 1456 871 1456 832 1451 c 128,-1,18
 793 1446 793 1446 737 1446 c 0,19,20
 675 1446 675 1446 497.5 1464.5 c 128,-1,21
 320 1483 320 1483 254 1483 c 0,22,23
 156 1483 156 1483 111 1436 c 1,24,25
 68 1509 68 1509 68 1569 c 0,26,27
 68 1615 68 1615 87 1646 c 128,-1,28
 106 1677 106 1677 142.5 1691.5 c 128,-1,29
 179 1706 179 1706 218 1711 c 128,-1,30
 257 1716 257 1716 313 1716 c 0,31,32
 374 1716 374 1716 552 1697.5 c 128,-1,33
 730 1679 730 1679 797 1679 c 0,34,35
 895 1679 895 1679 940 1726 c 1,12,13
EndSplineSet
Validated: 8388609
Position2: "'cpsp' Capital Spacing lookup 3 subtable" dx=10 dy=0 dh=20 dv=0
EndChar

StartChar: F
Encoding: 70 70 42
Width: 929
Flags: MW
HStem: 573 184<633 891 633 891> 1169 182<633 952 633 633>
VStem: 92 541<0 573 758 1169>
LayerCount: 2
UndoRedoHistory
Layer: 1
Undoes
EndUndoes
Redoes
EndRedoes
EndUndoRedoHistory
Fore
SplineSet
952 1169 m 1,0,-1
 633 1169 l 1,1,-1
 633 758 l 1,2,-1
 891 758 l 1,3,-1
 891 573 l 1,4,-1
 633 573 l 1,5,-1
 633 0 l 1,6,-1
 92 0 l 1,7,-1
 92 1352 l 1,8,-1
 952 1352 l 1,9,-1
 952 1169 l 1,0,-1
EndSplineSet
Validated: 1
Position2: "'cpsp' Capital Spacing lookup 3 subtable" dx=10 dy=0 dh=20 dv=0
EndChar

StartChar: G
Encoding: 71 71 43
Width: 1318
Flags: MW
HStem: -45 309<743 845> 1237 156<687 821>
VStem: 25 582<650 852 650 913> 905 403<1040 1046> 916 361
LayerCount: 2
UndoRedoHistory
Layer: 1
Undoes
EndUndoes
Redoes
EndRedoes
EndUndoRedoHistory
Fore
SplineSet
1278 39 m 1,0,1
 1149 -8 1149 -8 1025.5 -26.5 c 128,-1,2
 902 -45 902 -45 750 -45 c 0,3,4
 604 -45 604 -45 483.5 -8 c 128,-1,5
 363 29 363 29 279 94 c 128,-1,6
 195 159 195 159 137 249 c 128,-1,7
 79 339 79 339 52 443.5 c 128,-1,8
 25 548 25 548 25 666 c 0,9,10
 25 1033 25 1033 221 1213 c 128,-1,11
 417 1393 417 1393 793 1393 c 0,12,13
 858 1393 858 1393 912.5 1389.5 c 128,-1,14
 967 1386 967 1386 1029.5 1376.5 c 128,-1,15
 1092 1367 1092 1367 1139 1348 c 128,-1,16
 1186 1329 1186 1329 1226 1300.5 c 128,-1,17
 1266 1272 1266 1272 1287.5 1228 c 128,-1,18
 1309 1184 1309 1184 1309 1128 c 0,19,20
 1309 1002 1309 1002 1220 932 c 128,-1,21
 1131 862 1131 862 1001 862 c 0,22,23
 969 862 969 862 895 866 c 1,24,25
 905 925 905 925 905 983 c 0,26,27
 905 1036 905 1036 899.5 1076.5 c 128,-1,28
 894 1117 894 1117 879 1156 c 128,-1,29
 864 1195 864 1195 834 1216 c 128,-1,30
 804 1237 804 1237 760 1237 c 0,31,32
 606 1237 606 1237 606 780 c 0,33,34
 606 717 606 717 608 669 c 128,-1,35
 610 621 610 621 616 564.5 c 128,-1,36
 622 508 622 508 633 467 c 128,-1,37
 644 426 644 426 663 386 c 128,-1,38
 682 346 682 346 708 320.5 c 128,-1,39
 734 295 734 295 772 279.5 c 128,-1,40
 810 264 810 264 858 264 c 0,41,42
 899 264 899 264 926 274 c 1,43,-1
 907 621 l 1,44,-1
 1278 649 l 1,45,-1
 1278 39 l 1,0,1
EndSplineSet
Validated: 8388609
Position2: "'cpsp' Capital Spacing lookup 3 subtable" dx=10 dy=0 dh=20 dv=0
EndChar

StartChar: Gbreve
Encoding: 286 286 44
Width: 1318
Flags: MW
HStem: -45 309<743 845> 1237 156<687 821> 1432 106<724 800 724 918>
VStem: 25 582<650 852 650 913> 342 346<1656 1710 1656 1710> 836 344<1656 1710> 905 403<1040 1046> 916 361
LayerCount: 2
UndoRedoHistory
Layer: 1
Undoes
EndUndoes
Redoes
EndRedoes
EndUndoRedoHistory
Fore
SplineSet
1278 39 m 1,0,1
 1149 -8 1149 -8 1025.5 -26.5 c 128,-1,2
 902 -45 902 -45 750 -45 c 0,3,4
 604 -45 604 -45 483.5 -8 c 128,-1,5
 363 29 363 29 279 94 c 128,-1,6
 195 159 195 159 137 249 c 128,-1,7
 79 339 79 339 52 443.5 c 128,-1,8
 25 548 25 548 25 666 c 0,9,10
 25 1033 25 1033 221 1213 c 128,-1,11
 417 1393 417 1393 793 1393 c 0,12,13
 858 1393 858 1393 912.5 1389.5 c 128,-1,14
 967 1386 967 1386 1029.5 1376.5 c 128,-1,15
 1092 1367 1092 1367 1139 1348 c 128,-1,16
 1186 1329 1186 1329 1226 1300.5 c 128,-1,17
 1266 1272 1266 1272 1287.5 1228 c 128,-1,18
 1309 1184 1309 1184 1309 1128 c 0,19,20
 1309 1002 1309 1002 1220 932 c 128,-1,21
 1131 862 1131 862 1001 862 c 0,22,23
 969 862 969 862 895 866 c 1,24,25
 905 925 905 925 905 983 c 0,26,27
 905 1036 905 1036 899.5 1076.5 c 128,-1,28
 894 1117 894 1117 879 1156 c 128,-1,29
 864 1195 864 1195 834 1216 c 128,-1,30
 804 1237 804 1237 760 1237 c 0,31,32
 606 1237 606 1237 606 780 c 0,33,34
 606 717 606 717 608 669 c 128,-1,35
 610 621 610 621 616 564.5 c 128,-1,36
 622 508 622 508 633 467 c 128,-1,37
 644 426 644 426 663 386 c 128,-1,38
 682 346 682 346 708 320.5 c 128,-1,39
 734 295 734 295 772 279.5 c 128,-1,40
 810 264 810 264 858 264 c 0,41,42
 899 264 899 264 926 274 c 1,43,-1
 907 621 l 1,44,-1
 1278 649 l 1,45,-1
 1278 39 l 1,0,1
1180 1710 m 1,46,47
 1180 1432 1180 1432 762 1432 c 0,48,49
 342 1432 342 1432 342 1710 c 1,50,-1
 688 1710 l 1,51,52
 688 1707 688 1707 688 1702 c 0,53,54
 688 1662 688 1662 688.5 1644 c 128,-1,55
 689 1626 689 1626 692.5 1600.5 c 128,-1,56
 696 1575 696 1575 704 1564.5 c 128,-1,57
 712 1554 712 1554 726 1546 c 128,-1,58
 740 1538 740 1538 762 1538 c 0,59,60
 797 1538 797 1538 814 1560.5 c 128,-1,61
 831 1583 831 1583 833.5 1610 c 128,-1,62
 836 1637 836 1637 836 1702 c 0,63,64
 836 1707 836 1707 836 1710 c 1,65,-1
 1180 1710 l 1,46,47
EndSplineSet
Validated: 8388609
Position2: "'cpsp' Capital Spacing lookup 3 subtable" dx=10 dy=0 dh=20 dv=0
EndChar

StartChar: Gcircumflex
Encoding: 284 284 45
Width: 1318
Flags: MW
HStem: -45 309<743 845> 1237 156<687 821>
VStem: 25 582<650 852 650 913> 905 403<1040 1046> 916 361
LayerCount: 2
UndoRedoHistory
Layer: 1
Undoes
EndUndoes
Redoes
EndRedoes
EndUndoRedoHistory
Fore
SplineSet
1278 39 m 1,0,1
 1149 -8 1149 -8 1025.5 -26.5 c 128,-1,2
 902 -45 902 -45 750 -45 c 0,3,4
 604 -45 604 -45 483.5 -8 c 128,-1,5
 363 29 363 29 279 94 c 128,-1,6
 195 159 195 159 137 249 c 128,-1,7
 79 339 79 339 52 443.5 c 128,-1,8
 25 548 25 548 25 666 c 0,9,10
 25 1033 25 1033 221 1213 c 128,-1,11
 417 1393 417 1393 793 1393 c 0,12,13
 858 1393 858 1393 912.5 1389.5 c 128,-1,14
 967 1386 967 1386 1029.5 1376.5 c 128,-1,15
 1092 1367 1092 1367 1139 1348 c 128,-1,16
 1186 1329 1186 1329 1226 1300.5 c 128,-1,17
 1266 1272 1266 1272 1287.5 1228 c 128,-1,18
 1309 1184 1309 1184 1309 1128 c 0,19,20
 1309 1002 1309 1002 1220 932 c 128,-1,21
 1131 862 1131 862 1001 862 c 0,22,23
 969 862 969 862 895 866 c 1,24,25
 905 925 905 925 905 983 c 0,26,27
 905 1036 905 1036 899.5 1076.5 c 128,-1,28
 894 1117 894 1117 879 1156 c 128,-1,29
 864 1195 864 1195 834 1216 c 128,-1,30
 804 1237 804 1237 760 1237 c 0,31,32
 606 1237 606 1237 606 780 c 0,33,34
 606 717 606 717 608 669 c 128,-1,35
 610 621 610 621 616 564.5 c 128,-1,36
 622 508 622 508 633 467 c 128,-1,37
 644 426 644 426 663 386 c 128,-1,38
 682 346 682 346 708 320.5 c 128,-1,39
 734 295 734 295 772 279.5 c 128,-1,40
 810 264 810 264 858 264 c 0,41,42
 899 264 899 264 926 274 c 1,43,-1
 907 621 l 1,44,-1
 1278 649 l 1,45,-1
 1278 39 l 1,0,1
385 1526 m 1,46,-1
 723 1755 l 1,47,-1
 811 1755 l 1,48,-1
 1155 1526 l 1,49,-1
 1065 1419 l 1,50,-1
 770 1485 l 1,51,-1
 477 1419 l 1,52,-1
 385 1526 l 1,46,-1
EndSplineSet
Validated: 8388609
Position2: "'cpsp' Capital Spacing lookup 3 subtable" dx=10 dy=0 dh=20 dv=0
EndChar

StartChar: Gcommaaccent
Encoding: 290 290 46
Width: 1318
Flags: MW
HStem: -45 309<743 845> 1237 156<687 821>
VStem: 25 582<650 852 650 913> 680 317<-353 -297> 905 403<1040 1046> 916 361
LayerCount: 2
UndoRedoHistory
Layer: 1
Undoes
EndUndoes
Redoes
EndRedoes
EndUndoRedoHistory
Fore
SplineSet
780 -106 m 0,0,1
 896 -106 896 -106 946.5 -146 c 128,-1,2
 997 -186 997 -186 997 -279 c 0,3,4
 997 -392 997 -392 904.5 -471.5 c 128,-1,5
 812 -551 812 -551 676 -551 c 0,6,7
 663 -551 663 -551 588 -545 c 1,8,9
 680 -435 680 -435 680 -330 c 128,-1,10
 680 -225 680 -225 629 -139 c 1,11,12
 646 -126 646 -126 692 -116 c 128,-1,13
 738 -106 738 -106 780 -106 c 0,0,1
1278 39 m 1,14,15
 1149 -8 1149 -8 1025.5 -26.5 c 128,-1,16
 902 -45 902 -45 750 -45 c 0,17,18
 604 -45 604 -45 483.5 -8 c 128,-1,19
 363 29 363 29 279 94 c 128,-1,20
 195 159 195 159 137 249 c 128,-1,21
 79 339 79 339 52 443.5 c 128,-1,22
 25 548 25 548 25 666 c 0,23,24
 25 1033 25 1033 221 1213 c 128,-1,25
 417 1393 417 1393 793 1393 c 0,26,27
 858 1393 858 1393 912.5 1389.5 c 128,-1,28
 967 1386 967 1386 1029.5 1376.5 c 128,-1,29
 1092 1367 1092 1367 1139 1348 c 128,-1,30
 1186 1329 1186 1329 1226 1300.5 c 128,-1,31
 1266 1272 1266 1272 1287.5 1228 c 128,-1,32
 1309 1184 1309 1184 1309 1128 c 0,33,34
 1309 1002 1309 1002 1220 932 c 128,-1,35
 1131 862 1131 862 1001 862 c 0,36,37
 969 862 969 862 895 866 c 1,38,39
 905 925 905 925 905 983 c 0,40,41
 905 1036 905 1036 899.5 1076.5 c 128,-1,42
 894 1117 894 1117 879 1156 c 128,-1,43
 864 1195 864 1195 834 1216 c 128,-1,44
 804 1237 804 1237 760 1237 c 0,45,46
 606 1237 606 1237 606 780 c 0,47,48
 606 717 606 717 608 669 c 128,-1,49
 610 621 610 621 616 564.5 c 128,-1,50
 622 508 622 508 633 467 c 128,-1,51
 644 426 644 426 663 386 c 128,-1,52
 682 346 682 346 708 320.5 c 128,-1,53
 734 295 734 295 772 279.5 c 128,-1,54
 810 264 810 264 858 264 c 0,55,56
 899 264 899 264 926 274 c 1,57,-1
 907 621 l 1,58,-1
 1278 649 l 1,59,-1
 1278 39 l 1,14,15
EndSplineSet
Validated: 8388609
Position2: "'cpsp' Capital Spacing lookup 3 subtable" dx=10 dy=0 dh=20 dv=0
EndChar

StartChar: Gdotaccent
Encoding: 288 288 47
Width: 1318
Flags: MW
HStem: -45 309<743 845> 1237 156<687 821> 1505 348<672 805>
VStem: 25 582<650 852 650 913> 905 403<1040 1046> 916 361
LayerCount: 2
UndoRedoHistory
Layer: 1
Undoes
EndUndoes
Redoes
EndRedoes
EndUndoRedoHistory
Fore
SplineSet
1278 39 m 1,0,1
 1149 -8 1149 -8 1025.5 -26.5 c 128,-1,2
 902 -45 902 -45 750 -45 c 0,3,4
 604 -45 604 -45 483.5 -8 c 128,-1,5
 363 29 363 29 279 94 c 128,-1,6
 195 159 195 159 137 249 c 128,-1,7
 79 339 79 339 52 443.5 c 128,-1,8
 25 548 25 548 25 666 c 0,9,10
 25 1033 25 1033 221 1213 c 128,-1,11
 417 1393 417 1393 793 1393 c 0,12,13
 858 1393 858 1393 912.5 1389.5 c 128,-1,14
 967 1386 967 1386 1029.5 1376.5 c 128,-1,15
 1092 1367 1092 1367 1139 1348 c 128,-1,16
 1186 1329 1186 1329 1226 1300.5 c 128,-1,17
 1266 1272 1266 1272 1287.5 1228 c 128,-1,18
 1309 1184 1309 1184 1309 1128 c 0,19,20
 1309 1002 1309 1002 1220 932 c 128,-1,21
 1131 862 1131 862 1001 862 c 0,22,23
 969 862 969 862 895 866 c 1,24,25
 905 925 905 925 905 983 c 0,26,27
 905 1036 905 1036 899.5 1076.5 c 128,-1,28
 894 1117 894 1117 879 1156 c 128,-1,29
 864 1195 864 1195 834 1216 c 128,-1,30
 804 1237 804 1237 760 1237 c 0,31,32
 606 1237 606 1237 606 780 c 0,33,34
 606 717 606 717 608 669 c 128,-1,35
 610 621 610 621 616 564.5 c 128,-1,36
 622 508 622 508 633 467 c 128,-1,37
 644 426 644 426 663 386 c 128,-1,38
 682 346 682 346 708 320.5 c 128,-1,39
 734 295 734 295 772 279.5 c 128,-1,40
 810 264 810 264 858 264 c 0,41,42
 899 264 899 264 926 274 c 1,43,-1
 907 621 l 1,44,-1
 1278 649 l 1,45,-1
 1278 39 l 1,0,1
743 1853 m 0,46,47
 849 1853 849 1853 915 1806 c 128,-1,48
 981 1759 981 1759 981 1677 c 128,-1,49
 981 1595 981 1595 912.5 1550 c 128,-1,50
 844 1505 844 1505 733 1505 c 0,51,52
 624 1505 624 1505 556.5 1549 c 128,-1,53
 489 1593 489 1593 489 1673 c 0,54,55
 489 1755 489 1755 561 1804 c 128,-1,56
 633 1853 633 1853 743 1853 c 0,46,47
EndSplineSet
Validated: 8388609
Position2: "'cpsp' Capital Spacing lookup 3 subtable" dx=10 dy=0 dh=20 dv=0
EndChar

StartChar: H
Encoding: 72 72 48
Width: 1480
Flags: MW
HStem: 592 184<633 850 633 850> 1311 41G<92 633 633 633 850 1391 1391 1391>
VStem: 92 541<0 592 0 776 776 1352> 850 541<0 592 592 592 776 1352>
LayerCount: 2
UndoRedoHistory
Layer: 1
Undoes
EndUndoes
Redoes
EndRedoes
EndUndoRedoHistory
Fore
SplineSet
1391 0 m 1,0,-1
 850 0 l 1,1,-1
 850 592 l 1,2,-1
 633 592 l 1,3,-1
 633 0 l 1,4,-1
 92 0 l 1,5,-1
 92 1352 l 1,6,-1
 633 1352 l 1,7,-1
 633 776 l 1,8,-1
 850 776 l 1,9,-1
 850 1352 l 1,10,-1
 1391 1352 l 1,11,-1
 1391 0 l 1,0,-1
EndSplineSet
Validated: 1
Position2: "'cpsp' Capital Spacing lookup 3 subtable" dx=10 dy=0 dh=20 dv=0
EndChar

StartChar: Hbar
Encoding: 294 294 49
Width: 1583
Flags: MW
HStem: 592 184<684 901 684 901> 1028 211<12 143 12 143 684 901> 1028 324<12 684 12 684 143 684 143 901>
VStem: 143 541<0 592 0 776 776 1028 0 1028 1239 1352> 901 541<0 592 592 592 776 1028 0 1028 1239 1352 0 1352>
LayerCount: 2
UndoRedoHistory
Layer: 1
Undoes
EndUndoes
Redoes
EndRedoes
EndUndoRedoHistory
Fore
SplineSet
901 1028 m 1,0,-1
 684 1028 l 1,1,-1
 684 776 l 1,2,-1
 901 776 l 1,3,-1
 901 1028 l 1,0,-1
1575 1239 m 1,4,5
 1577 1221 1577 1221 1577 1184 c 0,6,7
 1577 1113 1577 1113 1540 1073.5 c 128,-1,8
 1503 1034 1503 1034 1442 1028 c 1,9,-1
 1442 0 l 1,10,-1
 901 0 l 1,11,-1
 901 592 l 1,12,-1
 684 592 l 1,13,-1
 684 0 l 1,14,-1
 143 0 l 1,15,-1
 143 1028 l 1,16,-1
 12 1028 l 1,17,18
 8 1040 8 1040 8 1085 c 0,19,20
 8 1156 8 1156 43.5 1194.5 c 128,-1,21
 79 1233 79 1233 143 1239 c 1,22,-1
 143 1352 l 1,23,-1
 684 1352 l 1,24,-1
 684 1239 l 1,25,-1
 901 1239 l 1,26,-1
 901 1352 l 1,27,-1
 1442 1352 l 1,28,-1
 1442 1239 l 1,29,-1
 1575 1239 l 1,4,5
EndSplineSet
Validated: 8388609
Position2: "'cpsp' Capital Spacing lookup 3 subtable" dx=10 dy=0 dh=20 dv=0
EndChar

StartChar: Hcircumflex
Encoding: 292 292 50
Width: 1480
Flags: MW
HStem: 592 184<633 850 633 850> 1311 41G<92 633 633 633 850 1391 1391 1391>
VStem: 92 541<0 592 0 776 776 1352> 850 541<0 592 592 592 776 1352 0 1352>
LayerCount: 2
UndoRedoHistory
Layer: 1
Undoes
EndUndoes
Redoes
EndRedoes
EndUndoRedoHistory
Fore
SplineSet
850 0 m 1,0,-1
 850 592 l 1,1,-1
 633 592 l 1,2,-1
 633 0 l 1,3,-1
 92 0 l 1,4,-1
 92 1352 l 1,5,-1
 633 1352 l 1,6,-1
 633 776 l 1,7,-1
 850 776 l 1,8,-1
 850 1352 l 1,9,-1
 1391 1352 l 1,10,-1
 1391 0 l 1,11,-1
 850 0 l 1,0,-1
362 1526 m 1,12,-1
 700 1755 l 1,13,-1
 788 1755 l 1,14,-1
 1133 1526 l 1,15,-1
 1042 1419 l 1,16,-1
 748 1485 l 1,17,-1
 455 1419 l 1,18,-1
 362 1526 l 1,12,-1
EndSplineSet
Validated: 1
Position2: "'cpsp' Capital Spacing lookup 3 subtable" dx=10 dy=0 dh=20 dv=0
EndChar

StartChar: Hdotbelow
Encoding: 7716 7716 51
Width: 1480
Flags: MW
HStem: -414 348<692 825> 592 184<633 850 633 850> 1311 41G<92 633 633 633 850 1391 1391 1391>
VStem: 92 541<0 592 0 776 776 1352> 850 541<0 592 592 592 776 1352 0 1352>
LayerCount: 2
UndoRedoHistory
Layer: 1
Undoes
EndUndoes
Redoes
EndRedoes
EndUndoRedoHistory
Fore
SplineSet
764 -66 m 0,0,1
 870 -66 870 -66 935.5 -113 c 128,-1,2
 1001 -160 1001 -160 1001 -242 c 128,-1,3
 1001 -324 1001 -324 933 -369 c 128,-1,4
 865 -414 865 -414 754 -414 c 0,5,6
 645 -414 645 -414 577.5 -370 c 128,-1,7
 510 -326 510 -326 510 -246 c 0,8,9
 510 -164 510 -164 582 -115 c 128,-1,10
 654 -66 654 -66 764 -66 c 0,0,1
850 0 m 1,11,-1
 850 592 l 1,12,-1
 633 592 l 1,13,-1
 633 0 l 1,14,-1
 92 0 l 1,15,-1
 92 1352 l 1,16,-1
 633 1352 l 1,17,-1
 633 776 l 1,18,-1
 850 776 l 1,19,-1
 850 1352 l 1,20,-1
 1391 1352 l 1,21,-1
 1391 0 l 1,22,-1
 850 0 l 1,11,-1
EndSplineSet
Validated: 1
Position2: "'cpsp' Capital Spacing lookup 3 subtable" dx=10 dy=0 dh=20 dv=0
EndChar

StartChar: I
Encoding: 73 73 52
Width: 722
Flags: MW
HStem: 1311 41G<92 633 633 633>
VStem: 92 541<0 1352>
LayerCount: 2
UndoRedoHistory
Layer: 1
Undoes
EndUndoes
Redoes
EndRedoes
EndUndoRedoHistory
Fore
SplineSet
633 0 m 1,0,-1
 92 0 l 1,1,-1
 92 1352 l 1,2,-1
 633 1352 l 1,3,-1
 633 0 l 1,0,-1
EndSplineSet
Validated: 1
Position2: "'cpsp' Capital Spacing lookup 3 subtable" dx=10 dy=0 dh=20 dv=0
EndChar

StartChar: IJ
Encoding: 306 306 53
Width: 1445
Flags: MW
HStem: 1311 41G<92 633 633 633 815 1356 1356 1356>
VStem: 92 541<0 1352 0 1352> 815 541<98 143 143 1352>
LayerCount: 2
UndoRedoHistory
Layer: 1
Undoes
EndUndoes
Redoes
EndRedoes
EndUndoRedoHistory
Fore
SplineSet
1356 143 m 2,0,1
 1356 16 1356 16 1336.5 -81 c 128,-1,2
 1317 -178 1317 -178 1272.5 -257.5 c 128,-1,3
 1228 -337 1228 -337 1146.5 -379.5 c 128,-1,4
 1065 -422 1065 -422 950 -422 c 0,5,6
 717 -422 717 -422 639 -301 c 1,7,8
 668 -296 668 -296 691.5 -285 c 128,-1,9
 715 -274 715 -274 732.5 -261.5 c 128,-1,10
 750 -249 750 -249 763.5 -227 c 128,-1,11
 777 -205 777 -205 785.5 -189 c 128,-1,12
 794 -173 794 -173 800 -142 c 128,-1,13
 806 -111 806 -111 809 -93 c 128,-1,14
 812 -75 812 -75 813.5 -37.5 c 128,-1,15
 815 -0 815 -0 815 17.5 c 128,-1,16
 815 35 815 35 815 76 c 0,17,18
 815 91 815 91 815 98 c 2,19,-1
 815 1352 l 1,20,-1
 1356 1352 l 1,21,-1
 1356 143 l 2,0,1
92 0 m 1,22,-1
 92 1352 l 1,23,-1
 633 1352 l 1,24,-1
 633 0 l 1,25,-1
 92 0 l 1,22,-1
EndSplineSet
Validated: 1
Position2: "'cpsp' Capital Spacing lookup 3 subtable" dx=10 dy=0 dh=20 dv=0
EndChar

StartChar: Iacute
Encoding: 205 205 54
Width: 722
Flags: MW
HStem: 1311 41G<92 633 633 633>
VStem: 92 541<0 1352 0 1352>
LayerCount: 2
UndoRedoHistory
Layer: 1
Undoes
EndUndoes
Redoes
EndRedoes
EndUndoRedoHistory
Fore
SplineSet
92 0 m 1,0,-1
 92 1352 l 1,1,-1
 633 1352 l 1,2,-1
 633 0 l 1,3,-1
 92 0 l 1,0,-1
655 1790 m 1,4,5
 693 1758 693 1758 719 1709.5 c 128,-1,6
 745 1661 745 1661 745 1616 c 0,7,8
 745 1579 745 1579 728 1552.5 c 128,-1,9
 711 1526 711 1526 687 1512 c 128,-1,10
 663 1498 663 1498 625.5 1489 c 128,-1,11
 588 1480 588 1480 557 1477 c 128,-1,12
 526 1474 526 1474 486 1471 c 0,13,14
 482 1471 482 1471 479.5 1471 c 128,-1,15
 477 1471 477 1471 473.5 1470.5 c 128,-1,16
 470 1470 470 1470 467 1470 c 2,17,-1
 141 1448 l 1,18,-1
 115 1563 l 1,19,-1
 655 1790 l 1,4,5
EndSplineSet
Validated: 1
Position2: "'cpsp' Capital Spacing lookup 3 subtable" dx=10 dy=0 dh=20 dv=0
EndChar

StartChar: Ibreve
Encoding: 300 300 55
Width: 722
Flags: MW
HStem: 1311 41G<92 633 633 633> 1432 106<325 400 325 518>
VStem: -57 346<1656 1710 1656 1710> 92 541<0 1352 0 1352> 436 344<1656 1710>
LayerCount: 2
UndoRedoHistory
Layer: 1
Undoes
EndUndoes
Redoes
EndRedoes
EndUndoRedoHistory
Fore
SplineSet
92 0 m 1,0,-1
 92 1352 l 1,1,-1
 633 1352 l 1,2,-1
 633 0 l 1,3,-1
 92 0 l 1,0,-1
780 1710 m 1,4,5
 780 1432 780 1432 362 1432 c 0,6,7
 -57 1432 -57 1432 -57 1710 c 1,8,-1
 289 1710 l 1,9,10
 289 1605 289 1605 299 1578 c 0,11,12
 315 1538 315 1538 362 1538 c 0,13,14
 397 1538 397 1538 414 1560.5 c 128,-1,15
 431 1583 431 1583 433.5 1610 c 128,-1,16
 436 1637 436 1637 436 1702 c 0,17,18
 436 1707 436 1707 436 1710 c 1,19,-1
 780 1710 l 1,4,5
EndSplineSet
Validated: 8388609
Position2: "'cpsp' Capital Spacing lookup 3 subtable" dx=10 dy=0 dh=20 dv=0
EndChar

StartChar: Icircumflex
Encoding: 206 206 56
Width: 722
Flags: MW
HStem: 1311 41G<92 633 633 633>
VStem: 92 541<0 1352 0 1352>
LayerCount: 2
UndoRedoHistory
Layer: 1
Undoes
EndUndoes
Redoes
EndRedoes
EndUndoRedoHistory
Fore
SplineSet
92 0 m 1,0,-1
 92 1352 l 1,1,-1
 633 1352 l 1,2,-1
 633 0 l 1,3,-1
 92 0 l 1,0,-1
-16 1526 m 1,4,-1
 322 1755 l 1,5,-1
 410 1755 l 1,6,-1
 754 1526 l 1,7,-1
 664 1419 l 1,8,-1
 369 1485 l 1,9,-1
 76 1419 l 1,10,-1
 -16 1526 l 1,4,-1
EndSplineSet
Validated: 1
Position2: "'cpsp' Capital Spacing lookup 3 subtable" dx=10 dy=0 dh=20 dv=0
EndChar

StartChar: Idieresis
Encoding: 207 207 57
Width: 722
Flags: MW
HStem: 1311 41G<92 633 633 633> 1448 348<63 197 575 709>
VStem: 92 541<0 1352 0 1352>
LayerCount: 2
UndoRedoHistory
Layer: 1
Undoes
EndUndoes
Redoes
EndRedoes
EndUndoRedoHistory
Fore
SplineSet
92 0 m 1,0,-1
 92 1352 l 1,1,-1
 633 1352 l 1,2,-1
 633 0 l 1,3,-1
 92 0 l 1,0,-1
647 1796 m 0,4,5
 753 1796 753 1796 819 1749 c 128,-1,6
 885 1702 885 1702 885 1620 c 128,-1,7
 885 1538 885 1538 816.5 1493 c 128,-1,8
 748 1448 748 1448 637 1448 c 0,9,10
 528 1448 528 1448 460.5 1492 c 128,-1,11
 393 1536 393 1536 393 1616 c 0,12,13
 393 1698 393 1698 465 1747 c 128,-1,14
 537 1796 537 1796 647 1796 c 0,4,5
135 1796 m 0,15,16
 241 1796 241 1796 307 1749 c 128,-1,17
 373 1702 373 1702 373 1620 c 128,-1,18
 373 1538 373 1538 304.5 1493 c 128,-1,19
 236 1448 236 1448 125 1448 c 0,20,21
 16 1448 16 1448 -51.5 1492 c 128,-1,22
 -119 1536 -119 1536 -119 1616 c 0,23,24
 -119 1698 -119 1698 -47 1747 c 128,-1,25
 25 1796 25 1796 135 1796 c 0,15,16
EndSplineSet
Validated: 1
Position2: "'cpsp' Capital Spacing lookup 3 subtable" dx=10 dy=0 dh=20 dv=0
EndChar

StartChar: Idotaccent
Encoding: 304 304 58
Width: 722
Flags: MW
HStem: 1311 41G<92 633 633 633> 1505 348<287 420>
VStem: 92 541<0 1352 0 1352>
LayerCount: 2
UndoRedoHistory
Layer: 1
Undoes
EndUndoes
Redoes
EndRedoes
EndUndoRedoHistory
Fore
SplineSet
92 0 m 1,0,-1
 92 1352 l 1,1,-1
 633 1352 l 1,2,-1
 633 0 l 1,3,-1
 92 0 l 1,0,-1
358 1853 m 0,4,5
 464 1853 464 1853 530 1806 c 128,-1,6
 596 1759 596 1759 596 1677 c 128,-1,7
 596 1595 596 1595 527.5 1550 c 128,-1,8
 459 1505 459 1505 348 1505 c 0,9,10
 239 1505 239 1505 171.5 1549 c 128,-1,11
 104 1593 104 1593 104 1673 c 0,12,13
 104 1755 104 1755 176 1804 c 128,-1,14
 248 1853 248 1853 358 1853 c 0,4,5
EndSplineSet
Validated: 1
Position2: "'cpsp' Capital Spacing lookup 3 subtable" dx=10 dy=0 dh=20 dv=0
EndChar

StartChar: Idotbelow
Encoding: 7882 7882 59
Width: 722
Flags: MW
HStem: -414 348<299 432> 1311 41G<92 633 633 633>
VStem: 92 541<0 1352 0 1352>
LayerCount: 2
UndoRedoHistory
Layer: 1
Undoes
EndUndoes
Redoes
EndRedoes
EndUndoRedoHistory
Fore
SplineSet
371 -66 m 0,0,1
 477 -66 477 -66 542.5 -113 c 128,-1,2
 608 -160 608 -160 608 -242 c 128,-1,3
 608 -324 608 -324 539.5 -369 c 128,-1,4
 471 -414 471 -414 360 -414 c 0,5,6
 251 -414 251 -414 184 -370 c 128,-1,7
 117 -326 117 -326 117 -246 c 0,8,9
 117 -164 117 -164 189 -115 c 128,-1,10
 261 -66 261 -66 371 -66 c 0,0,1
92 0 m 1,11,-1
 92 1352 l 1,12,-1
 633 1352 l 1,13,-1
 633 0 l 1,14,-1
 92 0 l 1,11,-1
EndSplineSet
Validated: 1
Position2: "'cpsp' Capital Spacing lookup 3 subtable" dx=10 dy=0 dh=20 dv=0
EndChar

StartChar: Igrave
Encoding: 204 204 60
Width: 722
Flags: MW
HStem: 1311 41G<92 633 633 633>
VStem: 92 541<0 1352 0 1352>
LayerCount: 2
UndoRedoHistory
Layer: 1
Undoes
EndUndoes
Redoes
EndRedoes
EndUndoRedoHistory
Fore
SplineSet
92 0 m 1,0,-1
 92 1352 l 1,1,-1
 633 1352 l 1,2,-1
 633 0 l 1,3,-1
 92 0 l 1,0,-1
256 1475 m 2,4,5
 131 1484 131 1484 87 1496 c 0,6,7
 -23 1526 -23 1526 -23 1620 c 0,8,9
 -23 1664 -23 1664 3 1713 c 128,-1,10
 29 1762 29 1762 66 1794 c 1,11,-1
 608 1567 l 1,12,-1
 582 1452 l 1,13,-1
 256 1475 l 2,4,5
EndSplineSet
Validated: 1
Position2: "'cpsp' Capital Spacing lookup 3 subtable" dx=10 dy=0 dh=20 dv=0
EndChar

StartChar: Imacron
Encoding: 298 298 61
Width: 722
Flags: MW
HStem: 1311 41G<92 633 633 633> 1577 199<158 584 55 680>
VStem: 92 541<0 1352 0 1352>
LayerCount: 2
UndoRedoHistory
Layer: 1
Undoes
EndUndoes
Redoes
EndRedoes
EndUndoRedoHistory
Fore
SplineSet
92 0 m 1,0,-1
 92 1352 l 1,1,-1
 633 1352 l 1,2,-1
 633 0 l 1,3,-1
 92 0 l 1,0,-1
680 1776 m 1,4,5
 698 1750 698 1750 698 1696 c 0,6,7
 698 1643 698 1643 666 1610 c 128,-1,8
 634 1577 634 1577 584 1577 c 2,9,-1
 55 1577 l 1,10,11
 35 1606 35 1606 35 1661 c 0,12,13
 35 1712 35 1712 69 1744 c 128,-1,14
 103 1776 103 1776 158 1776 c 2,15,-1
 680 1776 l 1,4,5
EndSplineSet
Validated: 1
Position2: "'cpsp' Capital Spacing lookup 3 subtable" dx=10 dy=0 dh=20 dv=0
EndChar

StartChar: Iogonek
Encoding: 302 302 62
Width: 722
Flags: MW
HStem: -561 209<388 577> 0 20<610 641> 1311 41G<92 633 633 633>
VStem: 92 541<0 14 20 1352> 152 283<-295 -251>
LayerCount: 2
UndoRedoHistory
Layer: 1
Undoes
EndUndoes
Redoes
EndRedoes
EndUndoRedoHistory
Fore
SplineSet
610 0 m 1,0,1
 434 -126 434 -126 434 -256 c 0,2,3
 434 -311 434 -311 464.5 -331.5 c 128,-1,4
 495 -352 495 -352 557 -352 c 0,5,6
 594 -352 594 -352 633.5 -338.5 c 128,-1,7
 673 -325 673 -325 686 -297 c 1,8,9
 752 -343 752 -343 752 -410 c 0,10,11
 752 -449 752 -449 720.5 -480 c 128,-1,12
 689 -511 689 -511 641.5 -527.5 c 128,-1,13
 594 -544 594 -544 547 -552.5 c 128,-1,14
 500 -561 500 -561 461 -561 c 0,15,16
 415 -561 415 -561 373 -555 c 128,-1,17
 331 -549 331 -549 290 -534 c 128,-1,18
 249 -519 249 -519 219 -496 c 128,-1,19
 189 -473 189 -473 170.5 -435.5 c 128,-1,20
 152 -398 152 -398 152 -350 c 0,21,22
 152 -278 152 -278 173.5 -220.5 c 128,-1,23
 195 -163 195 -163 236.5 -122 c 128,-1,24
 278 -81 278 -81 327 -52.5 c 128,-1,25
 376 -24 376 -24 442 0 c 1,26,-1
 92 0 l 1,27,-1
 92 1352 l 1,28,-1
 633 1352 l 1,29,-1
 633 20 l 1,30,-1
 641 20 l 1,31,-1
 633 14 l 1,32,-1
 633 0 l 1,33,-1
 610 0 l 1,0,1
EndSplineSet
Validated: 8388609
Position2: "'cpsp' Capital Spacing lookup 3 subtable" dx=10 dy=0 dh=20 dv=0
EndChar

StartChar: Itilde
Encoding: 296 296 63
Width: 722
Flags: MW
HStem: 1311 41G<92 633 633 633> 1446 233<570 643> 1483 233<88 160>
VStem: 92 541<0 1352 0 1352>
LayerCount: 2
UndoRedoHistory
Layer: 1
Undoes
EndUndoes
Redoes
EndRedoes
EndUndoRedoHistory
Fore
SplineSet
92 0 m 1,0,-1
 92 1352 l 1,1,-1
 633 1352 l 1,2,-1
 633 0 l 1,3,-1
 92 0 l 1,0,-1
780 1726 m 1,4,5
 823 1653 823 1653 823 1593 c 0,6,7
 823 1547 823 1547 804 1516 c 128,-1,8
 785 1485 785 1485 748.5 1470.5 c 128,-1,9
 712 1456 712 1456 673 1451 c 128,-1,10
 634 1446 634 1446 578 1446 c 0,11,12
 516 1446 516 1446 338 1464.5 c 128,-1,13
 160 1483 160 1483 94 1483 c 0,14,15
 -4 1483 -4 1483 -49 1436 c 1,16,17
 -92 1509 -92 1509 -92 1569 c 0,18,19
 -92 1615 -92 1615 -73 1646 c 128,-1,20
 -54 1677 -54 1677 -17 1691.5 c 128,-1,21
 20 1706 20 1706 59 1711 c 128,-1,22
 98 1716 98 1716 154 1716 c 0,23,24
 215 1716 215 1716 392.5 1697.5 c 128,-1,25
 570 1679 570 1679 637 1679 c 0,26,27
 735 1679 735 1679 780 1726 c 1,4,5
EndSplineSet
Validated: 8388609
Position2: "'cpsp' Capital Spacing lookup 3 subtable" dx=10 dy=0 dh=20 dv=0
EndChar

StartChar: J
Encoding: 74 74 64
Width: 722
Flags: MW
HStem: 1311 41G<92 633 633 633>
VStem: 92 541<98 143 143 1352>
LayerCount: 2
UndoRedoHistory
Layer: 1
Undoes
EndUndoes
Redoes
EndRedoes
EndUndoRedoHistory
Fore
SplineSet
633 143 m 2,0,1
 633 16 633 16 613.5 -81 c 128,-1,2
 594 -178 594 -178 549.5 -257.5 c 128,-1,3
 505 -337 505 -337 423.5 -379.5 c 128,-1,4
 342 -422 342 -422 227 -422 c 0,5,6
 -6 -422 -6 -422 -84 -301 c 1,7,8
 -55 -296 -55 -296 -31.5 -285 c 128,-1,9
 -8 -274 -8 -274 9.5 -261.5 c 128,-1,10
 27 -249 27 -249 40.5 -227 c 128,-1,11
 54 -205 54 -205 62.5 -189 c 128,-1,12
 71 -173 71 -173 77 -142 c 128,-1,13
 83 -111 83 -111 86 -93 c 128,-1,14
 89 -75 89 -75 90.5 -37.5 c 128,-1,15
 92 -0 92 -0 92 17.5 c 128,-1,16
 92 35 92 35 92 76 c 0,17,18
 92 91 92 91 92 98 c 2,19,-1
 92 1352 l 1,20,-1
 633 1352 l 1,21,-1
 633 143 l 2,0,1
EndSplineSet
Validated: 1
Position2: "'cpsp' Capital Spacing lookup 3 subtable" dx=10 dy=0 dh=20 dv=0
EndChar

StartChar: Jcircumflex
Encoding: 308 308 65
Width: 722
Flags: MW
HStem: 1311 41G<92 633 633 633>
VStem: 92 541<98 143 143 1352>
LayerCount: 2
UndoRedoHistory
Layer: 1
Undoes
EndUndoes
Redoes
EndRedoes
EndUndoRedoHistory
Fore
SplineSet
633 143 m 2,0,1
 633 16 633 16 613.5 -81 c 128,-1,2
 594 -178 594 -178 549.5 -257.5 c 128,-1,3
 505 -337 505 -337 423.5 -379.5 c 128,-1,4
 342 -422 342 -422 227 -422 c 0,5,6
 -6 -422 -6 -422 -84 -301 c 1,7,8
 -55 -296 -55 -296 -31.5 -285 c 128,-1,9
 -8 -274 -8 -274 9.5 -261.5 c 128,-1,10
 27 -249 27 -249 40.5 -227 c 128,-1,11
 54 -205 54 -205 62.5 -189 c 128,-1,12
 71 -173 71 -173 77 -142 c 128,-1,13
 83 -111 83 -111 86 -93 c 128,-1,14
 89 -75 89 -75 90.5 -37.5 c 128,-1,15
 92 -0 92 -0 92 17.5 c 128,-1,16
 92 35 92 35 92 76 c 0,17,18
 92 91 92 91 92 98 c 2,19,-1
 92 1352 l 1,20,-1
 633 1352 l 1,21,-1
 633 143 l 2,0,1
-16 1526 m 1,22,-1
 322 1755 l 1,23,-1
 410 1755 l 1,24,-1
 754 1526 l 1,25,-1
 664 1419 l 1,26,-1
 369 1485 l 1,27,-1
 76 1419 l 1,28,-1
 -16 1526 l 1,22,-1
EndSplineSet
Validated: 1
Position2: "'cpsp' Capital Spacing lookup 3 subtable" dx=10 dy=0 dh=20 dv=0
EndChar

StartChar: K
Encoding: 75 75 66
Width: 1476
Flags: MW
HStem: 1311 41G<92 633 633 633 940 1468 1468 1468>
VStem: 92 541<0 1352 0 1352>
LayerCount: 2
UndoRedoHistory
Layer: 1
Undoes
EndUndoes
Redoes
EndRedoes
EndUndoRedoHistory
Fore
SplineSet
1468 1352 m 1,0,-1
 1184 723 l 1,1,-1
 1497 0 l 1,2,-1
 954 0 l 1,3,-1
 672 684 l 1,4,-1
 940 1352 l 1,5,-1
 1468 1352 l 1,0,-1
92 0 m 1,6,-1
 92 1352 l 1,7,-1
 633 1352 l 1,8,-1
 633 0 l 1,9,-1
 92 0 l 1,6,-1
EndSplineSet
Validated: 1
Position2: "'cpsp' Capital Spacing lookup 3 subtable" dx=10 dy=0 dh=20 dv=0
EndChar

StartChar: Kcommaaccent
Encoding: 310 310 67
Width: 1476
Flags: MW
HStem: 1311 41G<92 633 633 633 940 1468 1468 1468>
VStem: 92 541<0 1352 0 1352> 629 317<-353 -297>
LayerCount: 2
UndoRedoHistory
Layer: 1
Undoes
EndUndoes
Redoes
EndRedoes
EndUndoRedoHistory
Fore
SplineSet
729 -106 m 0,0,1
 845 -106 845 -106 895.5 -146 c 128,-1,2
 946 -186 946 -186 946 -279 c 0,3,4
 946 -392 946 -392 853.5 -471.5 c 128,-1,5
 761 -551 761 -551 625 -551 c 0,6,7
 612 -551 612 -551 537 -545 c 1,8,9
 629 -435 629 -435 629 -330 c 128,-1,10
 629 -225 629 -225 578 -139 c 1,11,12
 595 -126 595 -126 641 -116 c 128,-1,13
 687 -106 687 -106 729 -106 c 0,0,1
1184 723 m 1,14,-1
 1497 0 l 1,15,-1
 954 0 l 1,16,-1
 672 684 l 1,17,-1
 940 1352 l 1,18,-1
 1468 1352 l 1,19,-1
 1184 723 l 1,14,-1
92 1352 m 1,20,-1
 633 1352 l 1,21,-1
 633 0 l 1,22,-1
 92 0 l 1,23,-1
 92 1352 l 1,20,-1
EndSplineSet
Validated: 8388609
Position2: "'cpsp' Capital Spacing lookup 3 subtable" dx=10 dy=0 dh=20 dv=0
EndChar

StartChar: L
Encoding: 76 76 68
Width: 972
Flags: MW
HStem: 0 203<633 938> 1311 41G<92 633 633 633>
VStem: 92 541<203 1352 203 1352 203 1352>
LayerCount: 2
UndoRedoHistory
Layer: 1
Undoes
EndUndoes
Redoes
EndRedoes
EndUndoRedoHistory
Fore
SplineSet
633 1352 m 1,0,-1
 633 203 l 1,1,-1
 963 203 l 1,2,-1
 938 0 l 1,3,-1
 92 0 l 1,4,-1
 92 1352 l 1,5,-1
 633 1352 l 1,0,-1
EndSplineSet
Validated: 1
Position2: "'cpsp' Capital Spacing lookup 3 subtable" dx=10 dy=0 dh=20 dv=0
EndChar

StartChar: LJ
Encoding: 455 455 69
Width: 1695
Flags: MW
HStem: 0 203<633 938> 1311 41G<92 633 633 633 1065 1606 1606 1606>
VStem: 92 541<203 203 203 1352> 1065 541<98 143 143 1352>
LayerCount: 2
UndoRedoHistory
Layer: 1
Undoes
EndUndoes
Redoes
EndRedoes
EndUndoRedoHistory
Fore
SplineSet
1606 143 m 2,0,1
 1606 16 1606 16 1586.5 -81 c 128,-1,2
 1567 -178 1567 -178 1522.5 -257.5 c 128,-1,3
 1478 -337 1478 -337 1396.5 -379.5 c 128,-1,4
 1315 -422 1315 -422 1200 -422 c 0,5,6
 967 -422 967 -422 889 -301 c 1,7,8
 918 -296 918 -296 941.5 -285 c 128,-1,9
 965 -274 965 -274 982.5 -261.5 c 128,-1,10
 1000 -249 1000 -249 1013.5 -227 c 128,-1,11
 1027 -205 1027 -205 1035.5 -189 c 128,-1,12
 1044 -173 1044 -173 1050 -142 c 128,-1,13
 1056 -111 1056 -111 1059 -93 c 128,-1,14
 1062 -75 1062 -75 1063.5 -37.5 c 128,-1,15
 1065 -0 1065 -0 1065 17.5 c 128,-1,16
 1065 35 1065 35 1065 76 c 0,17,18
 1065 91 1065 91 1065 98 c 2,19,-1
 1065 1352 l 1,20,-1
 1606 1352 l 1,21,-1
 1606 143 l 2,0,1
633 203 m 1,22,-1
 963 203 l 1,23,-1
 938 0 l 1,24,-1
 92 0 l 1,25,-1
 92 1352 l 1,26,-1
 633 1352 l 1,27,-1
 633 203 l 1,22,-1
EndSplineSet
Validated: 1
Position2: "'cpsp' Capital Spacing lookup 3 subtable" dx=10 dy=0 dh=20 dv=0
EndChar

StartChar: Lacute
Encoding: 313 313 70
Width: 972
Flags: MW
HStem: 0 203<633 938> 1311 41G<92 633 633 633>
VStem: 92 541<203 203 203 1352>
LayerCount: 2
UndoRedoHistory
Layer: 1
Undoes
EndUndoes
Redoes
EndRedoes
EndUndoRedoHistory
Fore
SplineSet
633 203 m 1,0,-1
 963 203 l 1,1,-1
 938 0 l 1,2,-1
 92 0 l 1,3,-1
 92 1352 l 1,4,-1
 633 1352 l 1,5,-1
 633 203 l 1,0,-1
653 1790 m 1,6,7
 691 1758 691 1758 717 1709.5 c 128,-1,8
 743 1661 743 1661 743 1616 c 0,9,10
 743 1579 743 1579 726 1552.5 c 128,-1,11
 709 1526 709 1526 685 1512 c 128,-1,12
 661 1498 661 1498 623.5 1489 c 128,-1,13
 586 1480 586 1480 555 1477 c 128,-1,14
 524 1474 524 1474 484 1471 c 0,15,16
 480 1471 480 1471 477.5 1471 c 128,-1,17
 475 1471 475 1471 471.5 1470.5 c 128,-1,18
 468 1470 468 1470 465 1470 c 2,19,-1
 139 1448 l 1,20,-1
 113 1563 l 1,21,-1
 653 1790 l 1,6,7
EndSplineSet
Validated: 1
Position2: "'cpsp' Capital Spacing lookup 3 subtable" dx=10 dy=0 dh=20 dv=0
EndChar

StartChar: Lcaron
Encoding: 317 317 71
Width: 972
Flags: MW
HStem: 0 203<633 938> 1040 41G 1069 283<92 844> 1434 41G<852 927>
VStem: 92 541<203 203 203 1352> 764 279<1247 1309>
LayerCount: 2
UndoRedoHistory
Layer: 1
Undoes
EndUndoes
Redoes
EndRedoes
EndUndoRedoHistory
Fore
SplineSet
633 203 m 1,0,-1
 963 203 l 1,1,-1
 938 0 l 1,2,-1
 92 0 l 1,3,-1
 92 1352 l 1,4,-1
 633 1352 l 1,5,-1
 633 203 l 1,0,-1
723 1440 m 1,6,7
 740 1454 740 1454 788 1464.5 c 128,-1,8
 836 1475 836 1475 881 1475 c 0,9,10
 955 1475 955 1475 998.5 1434 c 128,-1,11
 1042 1393 1042 1393 1042 1305 c 128,-1,12
 1042 1217 1042 1217 960 1143 c 128,-1,13
 878 1069 878 1069 770 1069 c 0,14,15
 699 1069 699 1069 664 1081 c 1,16,17
 701 1125 701 1125 718 1148 c 128,-1,18
 735 1171 735 1171 749.5 1207 c 128,-1,19
 764 1243 764 1243 764 1282 c 0,20,21
 764 1373 764 1373 723 1440 c 1,6,7
EndSplineSet
Validated: 8388609
Position2: "'cpsp' Capital Spacing lookup 3 subtable" dx=10 dy=0 dh=20 dv=0
EndChar

StartChar: Lcommaaccent
Encoding: 315 315 72
Width: 972
Flags: MW
HStem: 0 203<633 938> 1311 41G<92 633 633 633>
VStem: 92 541<203 203 203 1352> 373 317<-353 -297>
LayerCount: 2
UndoRedoHistory
Layer: 1
Undoes
EndUndoes
Redoes
EndRedoes
EndUndoRedoHistory
Fore
SplineSet
473 -106 m 0,0,1
 589 -106 589 -106 639.5 -146 c 128,-1,2
 690 -186 690 -186 690 -279 c 0,3,4
 690 -392 690 -392 597.5 -471.5 c 128,-1,5
 505 -551 505 -551 369 -551 c 0,6,7
 356 -551 356 -551 281 -545 c 1,8,9
 373 -435 373 -435 373 -330 c 128,-1,10
 373 -225 373 -225 322 -139 c 1,11,12
 339 -126 339 -126 385 -116 c 128,-1,13
 431 -106 431 -106 473 -106 c 0,0,1
633 203 m 1,14,-1
 963 203 l 1,15,-1
 938 0 l 1,16,-1
 92 0 l 1,17,-1
 92 1352 l 1,18,-1
 633 1352 l 1,19,-1
 633 203 l 1,14,-1
EndSplineSet
Validated: 8388609
Position2: "'cpsp' Capital Spacing lookup 3 subtable" dx=10 dy=0 dh=20 dv=0
EndChar

StartChar: Ldot
Encoding: 319 319 73
Width: 1089
Flags: MW
HStem: 0 203<633 938> 492 301<833 918> 1311 41G<92 633 633 633>
VStem: 92 541<203 203 203 1352> 719 305<600 679>
LayerCount: 2
UndoRedoHistory
Layer: 1
Undoes
EndUndoes
Redoes
EndRedoes
EndUndoRedoHistory
Fore
SplineSet
879 793 m 0,0,1
 945 793 945 793 984.5 750 c 128,-1,2
 1024 707 1024 707 1024 643 c 0,3,4
 1024 577 1024 577 981.5 534.5 c 128,-1,5
 939 492 939 492 870 492 c 0,6,7
 802 492 802 492 760.5 533 c 128,-1,8
 719 574 719 574 719 635 c 0,9,10
 719 702 719 702 764.5 747.5 c 128,-1,11
 810 793 810 793 879 793 c 0,0,1
633 203 m 1,12,-1
 963 203 l 1,13,-1
 938 0 l 1,14,-1
 92 0 l 1,15,-1
 92 1352 l 1,16,-1
 633 1352 l 1,17,-1
 633 203 l 1,12,-1
EndSplineSet
Validated: 1
Ligature2: "Ligature Substitution lookup 20 subtable" L periodcentered
Position2: "'cpsp' Capital Spacing lookup 3 subtable" dx=10 dy=0 dh=20 dv=0
EndChar

StartChar: Lj
Encoding: 456 456 74
Width: 1652
Flags: MW
HStem: 0 203<633 938> 1004 41G<1065 1556 1556 1556> 1198 348<1245 1378> 1311 41G<92 633 633 633>
VStem: 92 541<203 203 203 1352> 1065 492<-6 59 59 106 106 1044>
LayerCount: 2
UndoRedoHistory
Layer: 1
Undoes
EndUndoes
Redoes
EndRedoes
EndUndoRedoHistory
Fore
SplineSet
1556 106 m 2,0,1
 1556 15 1556 15 1546.5 -58.5 c 128,-1,2
 1537 -132 1537 -132 1513 -199.5 c 128,-1,3
 1489 -267 1489 -267 1449.5 -312 c 128,-1,4
 1410 -357 1410 -357 1347 -383.5 c 128,-1,5
 1284 -410 1284 -410 1200 -410 c 0,6,7
 986 -410 986 -410 918 -301 c 1,8,9
 958 -293 958 -293 986.5 -271.5 c 128,-1,10
 1015 -250 1015 -250 1030 -225 c 128,-1,11
 1045 -200 1045 -200 1053 -160 c 128,-1,12
 1061 -120 1061 -120 1063 -87.5 c 128,-1,13
 1065 -55 1065 -55 1065 -6 c 2,14,-1
 1065 59 l 1,15,-1
 1065 1044 l 1,16,-1
 1556 1044 l 1,17,-1
 1556 106 l 2,0,1
633 203 m 1,18,-1
 963 203 l 1,19,-1
 938 0 l 1,20,-1
 92 0 l 1,21,-1
 92 1352 l 1,22,-1
 633 1352 l 1,23,-1
 633 203 l 1,18,-1
1317 1546 m 0,24,25
 1423 1546 1423 1546 1488.5 1499 c 128,-1,26
 1554 1452 1554 1452 1554 1370 c 128,-1,27
 1554 1288 1554 1288 1486 1243 c 128,-1,28
 1418 1198 1418 1198 1307 1198 c 0,29,30
 1198 1198 1198 1198 1130.5 1242 c 128,-1,31
 1063 1286 1063 1286 1063 1366 c 0,32,33
 1063 1448 1063 1448 1135 1497 c 128,-1,34
 1207 1546 1207 1546 1317 1546 c 0,24,25
EndSplineSet
Validated: 8388609
Position2: "'cpsp' Capital Spacing lookup 3 subtable" dx=10 dy=0 dh=20 dv=0
EndChar

StartChar: Lslash
Encoding: 321 321 75
Width: 1116
Flags: MW
HStem: 0 203<776 1083> 1311 41G<236 776 776 776>
VStem: 236 541<203 434 434 434 840 1352>
LayerCount: 2
UndoRedoHistory
Layer: 1
Undoes
EndUndoes
Redoes
EndRedoes
EndUndoRedoHistory
Fore
SplineSet
63 375 m 1,0,1
 33 419 33 419 33 487 c 0,2,3
 33 539 33 539 61.5 567 c 128,-1,4
 90 595 90 595 150 616 c 2,5,-1
 236 645 l 1,6,-1
 236 1352 l 1,7,-1
 776 1352 l 1,8,-1
 776 840 l 1,9,-1
 971 905 l 1,10,11
 978 895 978 895 983.5 884 c 128,-1,12
 989 873 989 873 992 863 c 128,-1,13
 995 853 995 853 997.5 845 c 128,-1,14
 1000 837 1000 837 1000.5 827.5 c 128,-1,15
 1001 818 1001 818 1001 813.5 c 128,-1,16
 1001 809 1001 809 1001 801 c 2,17,-1
 1001 793 l 2,18,19
 1001 741 1001 741 972.5 710 c 128,-1,20
 944 679 944 679 887 659 c 1,21,-1
 776 625 l 1,22,-1
 776 203 l 1,23,-1
 1106 203 l 1,24,-1
 1083 0 l 1,25,-1
 236 0 l 1,26,-1
 236 434 l 1,27,-1
 63 375 l 1,0,1
EndSplineSet
Validated: 1
Position2: "'cpsp' Capital Spacing lookup 3 subtable" dx=10 dy=0 dh=20 dv=0
EndChar

StartChar: M
Encoding: 77 77 76
Width: 1921
Flags: MW
HStem: 1006 346<1290 1290> 1311 41G<92 762 762 762 1155 1831 1831 1831>
VStem: 92 252<0 1004 0 1352> 1290 541<0 1006 1006 1006>
LayerCount: 2
UndoRedoHistory
Layer: 1
Undoes
EndUndoes
Redoes
EndRedoes
EndUndoRedoHistory
Fore
SplineSet
1831 0 m 1,0,-1
 1290 0 l 1,1,-1
 1290 1006 l 1,2,-1
 956 0 l 1,3,-1
 678 0 l 1,4,-1
 344 1004 l 1,5,-1
 344 0 l 1,6,-1
 92 0 l 1,7,-1
 92 1352 l 1,8,-1
 762 1352 l 1,9,-1
 958 711 l 1,10,-1
 1155 1352 l 1,11,-1
 1831 1352 l 1,12,-1
 1831 0 l 1,0,-1
EndSplineSet
Validated: 8388609
Position2: "'cpsp' Capital Spacing lookup 3 subtable" dx=10 dy=0 dh=20 dv=0
EndChar

StartChar: N
Encoding: 78 78 77
Width: 1474
Flags: MW
HStem: 1038 313<344 344>
VStem: 92 252<0 1038 0 1352> 1130 252<313 1352 0 1352>
LayerCount: 2
UndoRedoHistory
Layer: 1
Undoes
EndUndoes
Redoes
EndRedoes
EndUndoRedoHistory
Fore
SplineSet
344 1038 m 1,0,-1
 344 0 l 1,1,-1
 92 0 l 1,2,-1
 92 1352 l 1,3,-1
 774 1352 l 1,4,-1
 1130 313 l 1,5,-1
 1130 1352 l 1,6,-1
 1382 1352 l 1,7,-1
 1382 0 l 1,8,-1
 698 0 l 1,9,-1
 344 1038 l 1,0,-1
EndSplineSet
Validated: 1
Position2: "'cpsp' Capital Spacing lookup 3 subtable" dx=10 dy=0 dh=20 dv=0
EndChar

StartChar: NJ
Encoding: 458 458 78
Width: 2197
Flags: MW
HStem: 1038 313<344 344> 1311 41G<92 774 774 774 1130 1382 1382 1382 1567 2107 2107 2107>
VStem: 92 252<0 1038> 1130 252<313 1352 0 1352> 1567 541<98 143 143 1352>
LayerCount: 2
UndoRedoHistory
Layer: 1
Undoes
EndUndoes
Redoes
EndRedoes
EndUndoRedoHistory
Fore
SplineSet
2107 143 m 2,0,1
 2107 43 2107 43 2095.5 -38.5 c 128,-1,2
 2084 -120 2084 -120 2055.5 -193 c 128,-1,3
 2027 -266 2027 -266 1981.5 -315.5 c 128,-1,4
 1936 -365 1936 -365 1865.5 -393.5 c 128,-1,5
 1795 -422 1795 -422 1702 -422 c 0,6,7
 1469 -422 1469 -422 1391 -301 c 1,8,9
 1420 -296 1420 -296 1443.5 -285 c 128,-1,10
 1467 -274 1467 -274 1484.5 -261.5 c 128,-1,11
 1502 -249 1502 -249 1515.5 -227 c 128,-1,12
 1529 -205 1529 -205 1537.5 -189 c 128,-1,13
 1546 -173 1546 -173 1552 -142 c 128,-1,14
 1558 -111 1558 -111 1561 -93 c 128,-1,15
 1564 -75 1564 -75 1565.5 -37.5 c 128,-1,16
 1567 -0 1567 -0 1567 17.5 c 128,-1,17
 1567 35 1567 35 1567 76 c 0,18,19
 1567 91 1567 91 1567 98 c 2,20,-1
 1567 1352 l 1,21,-1
 2107 1352 l 1,22,-1
 2107 143 l 2,0,1
344 0 m 1,23,-1
 92 0 l 1,24,-1
 92 1352 l 1,25,-1
 774 1352 l 1,26,-1
 1130 313 l 1,27,-1
 1130 1352 l 1,28,-1
 1382 1352 l 1,29,-1
 1382 0 l 1,30,-1
 698 0 l 1,31,-1
 344 1038 l 1,32,-1
 344 0 l 1,23,-1
EndSplineSet
Validated: 8388609
Position2: "'cpsp' Capital Spacing lookup 3 subtable" dx=10 dy=0 dh=20 dv=0
EndChar

StartChar: Nacute
Encoding: 323 323 79
Width: 1474
Flags: MW
HStem: 1038 313<344 344> 1311 41G<92 774 774 774 1130 1382 1382 1382>
VStem: 92 252<0 1038> 1130 252<313 1352 0 1352>
LayerCount: 2
UndoRedoHistory
Layer: 1
Undoes
EndUndoes
Redoes
EndRedoes
EndUndoRedoHistory
Fore
SplineSet
344 0 m 1,0,-1
 92 0 l 1,1,-1
 92 1352 l 1,2,-1
 774 1352 l 1,3,-1
 1130 313 l 1,4,-1
 1130 1352 l 1,5,-1
 1382 1352 l 1,6,-1
 1382 0 l 1,7,-1
 698 0 l 1,8,-1
 344 1038 l 1,9,-1
 344 0 l 1,0,-1
1032 1790 m 1,10,11
 1070 1758 1070 1758 1096 1709.5 c 128,-1,12
 1122 1661 1122 1661 1122 1616 c 0,13,14
 1122 1579 1122 1579 1105 1552.5 c 128,-1,15
 1088 1526 1088 1526 1064 1512 c 128,-1,16
 1040 1498 1040 1498 1002.5 1489 c 128,-1,17
 965 1480 965 1480 934 1477 c 128,-1,18
 903 1474 903 1474 863 1471 c 0,19,20
 850 1470 850 1470 844 1470 c 2,21,-1
 518 1448 l 1,22,-1
 492 1563 l 1,23,-1
 1032 1790 l 1,10,11
EndSplineSet
Validated: 8388609
Substitution2: "'locl' Localized Forms in Latin lookup 13 subtable" Nacute.loclPLK
Substitution2: "'aalt' Access All Alternates lookup 0 subtable" Nacute.loclPLK
Position2: "'cpsp' Capital Spacing lookup 3 subtable" dx=10 dy=0 dh=20 dv=0
EndChar

StartChar: Ncaron
Encoding: 327 327 80
Width: 1474
Flags: MW
HStem: 1038 313<344 344> 1311 41G<92 774 774 774 1130 1382 1382 1382>
VStem: 92 252<0 1038> 1130 252<313 1352 0 1352>
LayerCount: 2
UndoRedoHistory
Layer: 1
Undoes
EndUndoes
Redoes
EndRedoes
EndUndoRedoHistory
Fore
SplineSet
344 0 m 1,0,-1
 92 0 l 1,1,-1
 92 1352 l 1,2,-1
 774 1352 l 1,3,-1
 1130 313 l 1,4,-1
 1130 1352 l 1,5,-1
 1382 1352 l 1,6,-1
 1382 0 l 1,7,-1
 698 0 l 1,8,-1
 344 1038 l 1,9,-1
 344 0 l 1,0,-1
1145 1663 m 1,10,-1
 848 1413 l 1,11,-1
 637 1413 l 1,12,-1
 334 1663 l 1,13,-1
 424 1769 l 1,14,-1
 739 1663 l 1,15,-1
 1053 1769 l 1,16,-1
 1145 1663 l 1,10,-1
EndSplineSet
Validated: 8388609
Position2: "'cpsp' Capital Spacing lookup 3 subtable" dx=10 dy=0 dh=20 dv=0
EndChar

StartChar: Ncommaaccent
Encoding: 325 325 81
Width: 1474
Flags: MW
HStem: 1038 313<344 344> 1311 41G<92 774 774 774 1130 1382 1382 1382>
VStem: 92 252<0 1038> 582 317<-353 -297> 1130 252<313 1352 0 1352>
LayerCount: 2
UndoRedoHistory
Layer: 1
Undoes
EndUndoes
Redoes
EndRedoes
EndUndoRedoHistory
Fore
SplineSet
682 -106 m 0,0,1
 798 -106 798 -106 848.5 -146 c 128,-1,2
 899 -186 899 -186 899 -279 c 0,3,4
 899 -392 899 -392 806.5 -471.5 c 128,-1,5
 714 -551 714 -551 578 -551 c 0,6,7
 564 -551 564 -551 489 -545 c 1,8,9
 582 -434 582 -434 582 -330 c 0,10,11
 582 -227 582 -227 530 -139 c 1,12,13
 547 -126 547 -126 593.5 -116 c 128,-1,14
 640 -106 640 -106 682 -106 c 0,0,1
344 0 m 1,15,-1
 92 0 l 1,16,-1
 92 1352 l 1,17,-1
 774 1352 l 1,18,-1
 1130 313 l 1,19,-1
 1130 1352 l 1,20,-1
 1382 1352 l 1,21,-1
 1382 0 l 1,22,-1
 698 0 l 1,23,-1
 344 1038 l 1,24,-1
 344 0 l 1,15,-1
EndSplineSet
Validated: 8388609
Position2: "'cpsp' Capital Spacing lookup 3 subtable" dx=10 dy=0 dh=20 dv=0
EndChar

StartChar: Ndotaccent
Encoding: 7748 7748 82
Width: 1474
Flags: MW
HStem: 1038 313<344 344> 1311 41G<92 774 774 774 1130 1382 1382 1382> 1505 348<662 795>
VStem: 92 252<0 1038> 1130 252<313 1352 0 1352>
LayerCount: 2
UndoRedoHistory
Layer: 1
Undoes
EndUndoes
Redoes
EndRedoes
EndUndoRedoHistory
Fore
SplineSet
344 0 m 1,0,-1
 92 0 l 1,1,-1
 92 1352 l 1,2,-1
 774 1352 l 1,3,-1
 1130 313 l 1,4,-1
 1130 1352 l 1,5,-1
 1382 1352 l 1,6,-1
 1382 0 l 1,7,-1
 698 0 l 1,8,-1
 344 1038 l 1,9,-1
 344 0 l 1,0,-1
733 1853 m 0,10,11
 839 1853 839 1853 905 1806 c 128,-1,12
 971 1759 971 1759 971 1677 c 128,-1,13
 971 1595 971 1595 902.5 1550 c 128,-1,14
 834 1505 834 1505 723 1505 c 0,15,16
 614 1505 614 1505 546.5 1549 c 128,-1,17
 479 1593 479 1593 479 1673 c 0,18,19
 479 1755 479 1755 551 1804 c 128,-1,20
 623 1853 623 1853 733 1853 c 0,10,11
EndSplineSet
Validated: 8388609
Position2: "'cpsp' Capital Spacing lookup 3 subtable" dx=10 dy=0 dh=20 dv=0
EndChar

StartChar: Eng
Encoding: 330 330 83
Width: 1474
Flags: MW
HStem: -428 41G 1051 301<344 344> 1311 41G<92 774 774 774 1130 1382 1382 1382>
VStem: 92 252<0 1051 0 1352> 1130 252<301 1352>
LayerCount: 2
UndoRedoHistory
Layer: 1
Undoes
EndUndoes
Redoes
EndRedoes
EndUndoRedoHistory
Fore
SplineSet
1382 131 m 1,0,-1
 1382 41 l 2,1,2
 1382 -31 1382 -31 1380 -80 c 128,-1,3
 1378 -129 1378 -129 1370.5 -193 c 128,-1,4
 1363 -257 1363 -257 1347 -298.5 c 128,-1,5
 1331 -340 1331 -340 1305 -378.5 c 128,-1,6
 1279 -417 1279 -417 1237 -436 c 128,-1,7
 1195 -455 1195 -455 1139 -455 c 0,8,9
 1031 -455 1031 -455 956 -387 c 1,10,11
 990 -381 990 -381 1017 -365 c 128,-1,12
 1044 -349 1044 -349 1061 -326.5 c 128,-1,13
 1078 -304 1078 -304 1090.5 -275.5 c 128,-1,14
 1103 -247 1103 -247 1109 -214.5 c 128,-1,15
 1115 -182 1115 -182 1118.5 -146.5 c 128,-1,16
 1122 -111 1122 -111 1122 -74 c 128,-1,17
 1122 -37 1122 -37 1122 0 c 1,18,-1
 698 0 l 1,19,-1
 344 1051 l 1,20,-1
 344 0 l 1,21,-1
 92 0 l 1,22,-1
 92 1352 l 1,23,-1
 774 1352 l 1,24,-1
 1130 301 l 1,25,-1
 1130 1352 l 1,26,-1
 1382 1352 l 1,27,-1
 1382 131 l 1,0,-1
EndSplineSet
Validated: 8388609
Position2: "'cpsp' Capital Spacing lookup 3 subtable" dx=10 dy=0 dh=20 dv=0
EndChar

StartChar: Nj
Encoding: 459 459 84
Width: 2154
Flags: MW
HStem: 1004 41G<1567 2058 2058 2058> 1038 313<344 344> 1198 348<1747 1880> 1311 41G<92 774 774 774 1130 1382 1382 1382>
VStem: 92 252<0 1038> 1130 252<313 1352 0 1352> 1567 492<-6 59 59 106 106 1044>
LayerCount: 2
UndoRedoHistory
Layer: 1
Undoes
EndUndoes
Redoes
EndRedoes
EndUndoRedoHistory
Fore
SplineSet
2058 106 m 2,0,1
 2058 15 2058 15 2048.5 -58.5 c 128,-1,2
 2039 -132 2039 -132 2015 -199.5 c 128,-1,3
 1991 -267 1991 -267 1951.5 -312 c 128,-1,4
 1912 -357 1912 -357 1849 -383.5 c 128,-1,5
 1786 -410 1786 -410 1702 -410 c 0,6,7
 1487 -410 1487 -410 1419 -301 c 1,8,9
 1453 -294 1453 -294 1478 -279 c 128,-1,10
 1503 -264 1503 -264 1519 -241 c 128,-1,11
 1535 -218 1535 -218 1545 -194.5 c 128,-1,12
 1555 -171 1555 -171 1559.5 -136.5 c 128,-1,13
 1564 -102 1564 -102 1565.5 -74 c 128,-1,14
 1567 -46 1567 -46 1567 -6 c 2,15,-1
 1567 59 l 1,16,-1
 1567 1044 l 1,17,-1
 2058 1044 l 1,18,-1
 2058 106 l 2,0,1
344 0 m 1,19,-1
 92 0 l 1,20,-1
 92 1352 l 1,21,-1
 774 1352 l 1,22,-1
 1130 313 l 1,23,-1
 1130 1352 l 1,24,-1
 1382 1352 l 1,25,-1
 1382 0 l 1,26,-1
 698 0 l 1,27,-1
 344 1038 l 1,28,-1
 344 0 l 1,19,-1
1819 1546 m 0,29,30
 1925 1546 1925 1546 1990.5 1499 c 128,-1,31
 2056 1452 2056 1452 2056 1370 c 128,-1,32
 2056 1288 2056 1288 1987.5 1243 c 128,-1,33
 1919 1198 1919 1198 1808 1198 c 0,34,35
 1699 1198 1699 1198 1632 1242 c 128,-1,36
 1565 1286 1565 1286 1565 1366 c 0,37,38
 1565 1448 1565 1448 1637 1497 c 128,-1,39
 1709 1546 1709 1546 1819 1546 c 0,29,30
EndSplineSet
Validated: 8388609
Position2: "'cpsp' Capital Spacing lookup 3 subtable" dx=10 dy=0 dh=20 dv=0
EndChar

StartChar: Ntilde
Encoding: 209 209 85
Width: 1474
Flags: MW
HStem: 1038 313<344 344> 1311 41G<92 774 774 774 1130 1382 1382 1382> 1446 233<947 1020> 1483 233<465 537>
VStem: 92 252<0 1038> 1130 252<313 1352 0 1352>
LayerCount: 2
UndoRedoHistory
Layer: 1
Undoes
EndUndoes
Redoes
EndRedoes
EndUndoRedoHistory
Fore
SplineSet
344 0 m 1,0,-1
 92 0 l 1,1,-1
 92 1352 l 1,2,-1
 774 1352 l 1,3,-1
 1130 313 l 1,4,-1
 1130 1352 l 1,5,-1
 1382 1352 l 1,6,-1
 1382 0 l 1,7,-1
 698 0 l 1,8,-1
 344 1038 l 1,9,-1
 344 0 l 1,0,-1
1157 1726 m 1,10,11
 1200 1653 1200 1653 1200 1593 c 0,12,13
 1200 1547 1200 1547 1181 1516 c 128,-1,14
 1162 1485 1162 1485 1125 1470.5 c 128,-1,15
 1088 1456 1088 1456 1049 1451 c 128,-1,16
 1010 1446 1010 1446 954 1446 c 0,17,18
 892 1446 892 1446 714.5 1464.5 c 128,-1,19
 537 1483 537 1483 471 1483 c 0,20,21
 373 1483 373 1483 328 1436 c 1,22,23
 285 1509 285 1509 285 1569 c 0,24,25
 285 1615 285 1615 304 1646 c 128,-1,26
 323 1677 323 1677 359.5 1691.5 c 128,-1,27
 396 1706 396 1706 435 1711 c 128,-1,28
 474 1716 474 1716 530 1716 c 0,29,30
 592 1716 592 1716 769 1697.5 c 128,-1,31
 946 1679 946 1679 1014 1679 c 0,32,33
 1112 1679 1112 1679 1157 1726 c 1,10,11
EndSplineSet
Validated: 8388609
Position2: "'cpsp' Capital Spacing lookup 3 subtable" dx=10 dy=0 dh=20 dv=0
EndChar

StartChar: O
Encoding: 79 79 86
Width: 1466
Flags: MW
HStem: -45 156<673 794 673 957> 1237 156<671 796>
VStem: 25 582<571 798 571 898> 858 582<571 798>
LayerCount: 2
UndoRedoHistory
Layer: 1
Undoes
EndUndoes
Redoes
EndRedoes
EndUndoRedoHistory
Fore
SplineSet
733 111 m 128,-1,1
 762 111 762 111 784 136 c 128,-1,2
 806 161 806 161 819 211 c 128,-1,3
 832 261 832 261 840.5 311.5 c 128,-1,4
 849 362 849 362 852.5 437 c 128,-1,5
 856 512 856 512 857 562 c 128,-1,6
 858 612 858 612 858 684 c 0,7,8
 858 730 858 730 858 755 c 128,-1,9
 858 780 858 780 857 828 c 128,-1,10
 856 876 856 876 854.5 904.5 c 128,-1,11
 853 933 853 933 850 976 c 128,-1,12
 847 1019 847 1019 842.5 1046 c 128,-1,13
 838 1073 838 1073 831.5 1107 c 128,-1,14
 825 1141 825 1141 815.5 1161.5 c 128,-1,15
 806 1182 806 1182 794 1201 c 128,-1,16
 782 1220 782 1220 766.5 1228.5 c 128,-1,17
 751 1237 751 1237 733 1237 c 0,18,19
 703 1237 703 1237 680.5 1213.5 c 128,-1,20
 658 1190 658 1190 644.5 1142 c 128,-1,21
 631 1094 631 1094 622.5 1047.5 c 128,-1,22
 614 1001 614 1001 611 926.5 c 128,-1,23
 608 852 608 852 607 805.5 c 128,-1,24
 606 759 606 759 606 684 c 0,25,26
 606 614 606 614 607 562 c 128,-1,27
 608 510 608 510 612 437 c 128,-1,28
 616 364 616 364 624.5 312 c 128,-1,29
 633 260 633 260 646 211 c 128,-1,30
 659 162 659 162 681.5 136.5 c 128,-1,0
 704 111 704 111 733 111 c 128,-1,1
733 1393 m 0,31,32
 1081 1393 1081 1393 1260.5 1216.5 c 128,-1,33
 1440 1040 1440 1040 1440 694 c 0,34,35
 1440 354 1440 354 1253 154.5 c 128,-1,36
 1066 -45 1066 -45 733 -45 c 0,37,38
 412 -45 412 -45 218.5 150 c 128,-1,39
 25 345 25 345 25 666 c 0,40,41
 25 1017 25 1017 205.5 1205 c 128,-1,42
 386 1393 386 1393 733 1393 c 0,31,32
EndSplineSet
Validated: 1
Substitution2: "Single Substitution lookup 21 subtable" ordmasculine
Substitution2: "'aalt' Access All Alternates lookup 0 subtable" ordmasculine
Position2: "'cpsp' Capital Spacing lookup 3 subtable" dx=10 dy=0 dh=20 dv=0
EndChar

StartChar: Oacute
Encoding: 211 211 87
Width: 1466
Flags: MW
HStem: -45 156<673 794 673 957> 1237 156<671 796>
VStem: 25 582<571 798 571 898> 858 582<571 798>
LayerCount: 2
UndoRedoHistory
Layer: 1
Undoes
EndUndoes
Redoes
EndRedoes
EndUndoRedoHistory
Fore
SplineSet
733 111 m 128,-1,1
 762 111 762 111 784 136 c 128,-1,2
 806 161 806 161 819 211 c 128,-1,3
 832 261 832 261 840.5 311.5 c 128,-1,4
 849 362 849 362 852.5 437 c 128,-1,5
 856 512 856 512 857 562 c 128,-1,6
 858 612 858 612 858 684 c 0,7,8
 858 730 858 730 858 755 c 128,-1,9
 858 780 858 780 857 828 c 128,-1,10
 856 876 856 876 854.5 904.5 c 128,-1,11
 853 933 853 933 850 976 c 128,-1,12
 847 1019 847 1019 842.5 1046 c 128,-1,13
 838 1073 838 1073 831.5 1107 c 128,-1,14
 825 1141 825 1141 815.5 1161.5 c 128,-1,15
 806 1182 806 1182 794 1201 c 128,-1,16
 782 1220 782 1220 766.5 1228.5 c 128,-1,17
 751 1237 751 1237 733 1237 c 0,18,19
 703 1237 703 1237 680.5 1213.5 c 128,-1,20
 658 1190 658 1190 644.5 1142 c 128,-1,21
 631 1094 631 1094 622.5 1047.5 c 128,-1,22
 614 1001 614 1001 611 926.5 c 128,-1,23
 608 852 608 852 607 805.5 c 128,-1,24
 606 759 606 759 606 684 c 0,25,26
 606 614 606 614 607 562 c 128,-1,27
 608 510 608 510 612 437 c 128,-1,28
 616 364 616 364 624.5 312 c 128,-1,29
 633 260 633 260 646 211 c 128,-1,30
 659 162 659 162 681.5 136.5 c 128,-1,0
 704 111 704 111 733 111 c 128,-1,1
733 1393 m 0,31,32
 1081 1393 1081 1393 1260.5 1216.5 c 128,-1,33
 1440 1040 1440 1040 1440 694 c 0,34,35
 1440 354 1440 354 1253 154.5 c 128,-1,36
 1066 -45 1066 -45 733 -45 c 0,37,38
 412 -45 412 -45 218.5 150 c 128,-1,39
 25 345 25 345 25 666 c 0,40,41
 25 1017 25 1017 205.5 1205 c 128,-1,42
 386 1393 386 1393 733 1393 c 0,31,32
1026 1790 m 1,43,44
 1064 1758 1064 1758 1090 1709.5 c 128,-1,45
 1116 1661 1116 1661 1116 1616 c 0,46,47
 1116 1579 1116 1579 1099 1552.5 c 128,-1,48
 1082 1526 1082 1526 1058 1512 c 128,-1,49
 1034 1498 1034 1498 996.5 1489 c 128,-1,50
 959 1480 959 1480 928 1477 c 128,-1,51
 897 1474 897 1474 857 1471 c 0,52,53
 844 1470 844 1470 838 1470 c 2,54,-1
 512 1448 l 1,55,-1
 485 1563 l 1,56,-1
 1026 1790 l 1,43,44
EndSplineSet
Validated: 1
Substitution2: "'locl' Localized Forms in Latin lookup 13 subtable" Oacute.loclPLK
Substitution2: "'aalt' Access All Alternates lookup 0 subtable" Oacute.loclPLK
Position2: "'cpsp' Capital Spacing lookup 3 subtable" dx=10 dy=0 dh=20 dv=0
EndChar

StartChar: Obreve
Encoding: 334 334 88
Width: 1466
Flags: MW
HStem: -45 156<673 794 673 957> 1237 156<671 796> 1432 106<695 771 695 889>
VStem: 25 582<571 798 571 898> 313 346<1656 1710 1656 1710> 807 344<1656 1710> 858 582<571 798>
LayerCount: 2
UndoRedoHistory
Layer: 1
Undoes
EndUndoes
Redoes
EndRedoes
EndUndoRedoHistory
Fore
SplineSet
733 111 m 128,-1,1
 762 111 762 111 784 136 c 128,-1,2
 806 161 806 161 819 211 c 128,-1,3
 832 261 832 261 840.5 311.5 c 128,-1,4
 849 362 849 362 852.5 437 c 128,-1,5
 856 512 856 512 857 562 c 128,-1,6
 858 612 858 612 858 684 c 0,7,8
 858 730 858 730 858 755 c 128,-1,9
 858 780 858 780 857 828 c 128,-1,10
 856 876 856 876 854.5 904.5 c 128,-1,11
 853 933 853 933 850 976 c 128,-1,12
 847 1019 847 1019 842.5 1046 c 128,-1,13
 838 1073 838 1073 831.5 1107 c 128,-1,14
 825 1141 825 1141 815.5 1161.5 c 128,-1,15
 806 1182 806 1182 794 1201 c 128,-1,16
 782 1220 782 1220 766.5 1228.5 c 128,-1,17
 751 1237 751 1237 733 1237 c 0,18,19
 703 1237 703 1237 680.5 1213.5 c 128,-1,20
 658 1190 658 1190 644.5 1142 c 128,-1,21
 631 1094 631 1094 622.5 1047.5 c 128,-1,22
 614 1001 614 1001 611 926.5 c 128,-1,23
 608 852 608 852 607 805.5 c 128,-1,24
 606 759 606 759 606 684 c 0,25,26
 606 614 606 614 607 562 c 128,-1,27
 608 510 608 510 612 437 c 128,-1,28
 616 364 616 364 624.5 312 c 128,-1,29
 633 260 633 260 646 211 c 128,-1,30
 659 162 659 162 681.5 136.5 c 128,-1,0
 704 111 704 111 733 111 c 128,-1,1
733 1393 m 0,31,32
 1081 1393 1081 1393 1260.5 1216.5 c 128,-1,33
 1440 1040 1440 1040 1440 694 c 0,34,35
 1440 354 1440 354 1253 154.5 c 128,-1,36
 1066 -45 1066 -45 733 -45 c 0,37,38
 412 -45 412 -45 218.5 150 c 128,-1,39
 25 345 25 345 25 666 c 0,40,41
 25 1017 25 1017 205.5 1205 c 128,-1,42
 386 1393 386 1393 733 1393 c 0,31,32
1151 1710 m 1,43,44
 1151 1432 1151 1432 733 1432 c 0,45,46
 313 1432 313 1432 313 1710 c 1,47,-1
 659 1710 l 1,48,49
 659 1707 659 1707 659 1702 c 0,50,51
 659 1662 659 1662 659.5 1644 c 128,-1,52
 660 1626 660 1626 663.5 1600.5 c 128,-1,53
 667 1575 667 1575 675 1564.5 c 128,-1,54
 683 1554 683 1554 697 1546 c 128,-1,55
 711 1538 711 1538 733 1538 c 0,56,57
 768 1538 768 1538 785 1560.5 c 128,-1,58
 802 1583 802 1583 804.5 1610 c 128,-1,59
 807 1637 807 1637 807 1702 c 0,60,61
 807 1707 807 1707 807 1710 c 1,62,-1
 1151 1710 l 1,43,44
EndSplineSet
Validated: 8388609
Position2: "'cpsp' Capital Spacing lookup 3 subtable" dx=10 dy=0 dh=20 dv=0
EndChar

StartChar: Ocircumflex
Encoding: 212 212 89
Width: 1466
Flags: MW
HStem: -45 156<673 794 673 957> 1237 156<671 796>
VStem: 25 582<571 798 571 898> 858 582<571 798>
LayerCount: 2
UndoRedoHistory
Layer: 1
Undoes
EndUndoes
Redoes
EndRedoes
EndUndoRedoHistory
Fore
SplineSet
733 111 m 128,-1,1
 762 111 762 111 784 136 c 128,-1,2
 806 161 806 161 819 211 c 128,-1,3
 832 261 832 261 840.5 311.5 c 128,-1,4
 849 362 849 362 852.5 437 c 128,-1,5
 856 512 856 512 857 562 c 128,-1,6
 858 612 858 612 858 684 c 0,7,8
 858 730 858 730 858 755 c 128,-1,9
 858 780 858 780 857 828 c 128,-1,10
 856 876 856 876 854.5 904.5 c 128,-1,11
 853 933 853 933 850 976 c 128,-1,12
 847 1019 847 1019 842.5 1046 c 128,-1,13
 838 1073 838 1073 831.5 1107 c 128,-1,14
 825 1141 825 1141 815.5 1161.5 c 128,-1,15
 806 1182 806 1182 794 1201 c 128,-1,16
 782 1220 782 1220 766.5 1228.5 c 128,-1,17
 751 1237 751 1237 733 1237 c 0,18,19
 703 1237 703 1237 680.5 1213.5 c 128,-1,20
 658 1190 658 1190 644.5 1142 c 128,-1,21
 631 1094 631 1094 622.5 1047.5 c 128,-1,22
 614 1001 614 1001 611 926.5 c 128,-1,23
 608 852 608 852 607 805.5 c 128,-1,24
 606 759 606 759 606 684 c 0,25,26
 606 614 606 614 607 562 c 128,-1,27
 608 510 608 510 612 437 c 128,-1,28
 616 364 616 364 624.5 312 c 128,-1,29
 633 260 633 260 646 211 c 128,-1,30
 659 162 659 162 681.5 136.5 c 128,-1,0
 704 111 704 111 733 111 c 128,-1,1
733 1393 m 0,31,32
 1081 1393 1081 1393 1260.5 1216.5 c 128,-1,33
 1440 1040 1440 1040 1440 694 c 0,34,35
 1440 354 1440 354 1253 154.5 c 128,-1,36
 1066 -45 1066 -45 733 -45 c 0,37,38
 412 -45 412 -45 218.5 150 c 128,-1,39
 25 345 25 345 25 666 c 0,40,41
 25 1017 25 1017 205.5 1205 c 128,-1,42
 386 1393 386 1393 733 1393 c 0,31,32
354 1526 m 1,43,-1
 692 1755 l 1,44,-1
 780 1755 l 1,45,-1
 1124 1526 l 1,46,-1
 1034 1419 l 1,47,-1
 739 1485 l 1,48,-1
 446 1419 l 1,49,-1
 354 1526 l 1,43,-1
EndSplineSet
Validated: 1
Position2: "'cpsp' Capital Spacing lookup 3 subtable" dx=10 dy=0 dh=20 dv=0
EndChar

StartChar: Odieresis
Encoding: 214 214 90
Width: 1466
Flags: MW
HStem: -45 156<673 794 673 957> 1237 156<671 796> 1448 348<434 567 946 1079>
VStem: 25 582<571 798 571 898> 858 582<571 798>
LayerCount: 2
UndoRedoHistory
Layer: 1
Undoes
EndUndoes
Redoes
EndRedoes
EndUndoRedoHistory
Fore
SplineSet
733 111 m 128,-1,1
 762 111 762 111 784 136 c 128,-1,2
 806 161 806 161 819 211 c 128,-1,3
 832 261 832 261 840.5 311.5 c 128,-1,4
 849 362 849 362 852.5 437 c 128,-1,5
 856 512 856 512 857 562 c 128,-1,6
 858 612 858 612 858 684 c 0,7,8
 858 730 858 730 858 755 c 128,-1,9
 858 780 858 780 857 828 c 128,-1,10
 856 876 856 876 854.5 904.5 c 128,-1,11
 853 933 853 933 850 976 c 128,-1,12
 847 1019 847 1019 842.5 1046 c 128,-1,13
 838 1073 838 1073 831.5 1107 c 128,-1,14
 825 1141 825 1141 815.5 1161.5 c 128,-1,15
 806 1182 806 1182 794 1201 c 128,-1,16
 782 1220 782 1220 766.5 1228.5 c 128,-1,17
 751 1237 751 1237 733 1237 c 0,18,19
 703 1237 703 1237 680.5 1213.5 c 128,-1,20
 658 1190 658 1190 644.5 1142 c 128,-1,21
 631 1094 631 1094 622.5 1047.5 c 128,-1,22
 614 1001 614 1001 611 926.5 c 128,-1,23
 608 852 608 852 607 805.5 c 128,-1,24
 606 759 606 759 606 684 c 0,25,26
 606 614 606 614 607 562 c 128,-1,27
 608 510 608 510 612 437 c 128,-1,28
 616 364 616 364 624.5 312 c 128,-1,29
 633 260 633 260 646 211 c 128,-1,30
 659 162 659 162 681.5 136.5 c 128,-1,0
 704 111 704 111 733 111 c 128,-1,1
733 1393 m 0,31,32
 1081 1393 1081 1393 1260.5 1216.5 c 128,-1,33
 1440 1040 1440 1040 1440 694 c 0,34,35
 1440 354 1440 354 1253 154.5 c 128,-1,36
 1066 -45 1066 -45 733 -45 c 0,37,38
 412 -45 412 -45 218.5 150 c 128,-1,39
 25 345 25 345 25 666 c 0,40,41
 25 1017 25 1017 205.5 1205 c 128,-1,42
 386 1393 386 1393 733 1393 c 0,31,32
1018 1796 m 0,43,44
 1124 1796 1124 1796 1189.5 1749 c 128,-1,45
 1255 1702 1255 1702 1255 1620 c 128,-1,46
 1255 1538 1255 1538 1187 1493 c 128,-1,47
 1119 1448 1119 1448 1008 1448 c 0,48,49
 899 1448 899 1448 831.5 1492 c 128,-1,50
 764 1536 764 1536 764 1616 c 0,51,52
 764 1698 764 1698 836 1747 c 128,-1,53
 908 1796 908 1796 1018 1796 c 0,43,44
506 1796 m 0,54,55
 612 1796 612 1796 677.5 1749 c 128,-1,56
 743 1702 743 1702 743 1620 c 128,-1,57
 743 1538 743 1538 675 1493 c 128,-1,58
 607 1448 607 1448 496 1448 c 0,59,60
 387 1448 387 1448 319.5 1492 c 128,-1,61
 252 1536 252 1536 252 1616 c 0,62,63
 252 1698 252 1698 324 1747 c 128,-1,64
 396 1796 396 1796 506 1796 c 0,54,55
EndSplineSet
Validated: 1
Position2: "'cpsp' Capital Spacing lookup 3 subtable" dx=10 dy=0 dh=20 dv=0
EndChar

StartChar: Odotbelow
Encoding: 7884 7884 91
Width: 1466
Flags: MW
HStem: -414 348<674 807> -45 156<673 794 673 957> 1237 156<671 796>
VStem: 25 582<571 798 571 898> 858 582<571 798>
LayerCount: 2
UndoRedoHistory
Layer: 1
Undoes
EndUndoes
Redoes
EndRedoes
EndUndoRedoHistory
Fore
SplineSet
745 -66 m 0,0,1
 851 -66 851 -66 917 -113 c 128,-1,2
 983 -160 983 -160 983 -242 c 128,-1,3
 983 -324 983 -324 914.5 -369 c 128,-1,4
 846 -414 846 -414 735 -414 c 0,5,6
 626 -414 626 -414 559 -370 c 128,-1,7
 492 -326 492 -326 492 -246 c 0,8,9
 492 -164 492 -164 563.5 -115 c 128,-1,10
 635 -66 635 -66 745 -66 c 0,0,1
733 111 m 128,-1,12
 762 111 762 111 784 136 c 128,-1,13
 806 161 806 161 819 211 c 128,-1,14
 832 261 832 261 840.5 311.5 c 128,-1,15
 849 362 849 362 852.5 437 c 128,-1,16
 856 512 856 512 857 562 c 128,-1,17
 858 612 858 612 858 684 c 0,18,19
 858 730 858 730 858 755 c 128,-1,20
 858 780 858 780 857 828 c 128,-1,21
 856 876 856 876 854.5 904.5 c 128,-1,22
 853 933 853 933 850 976 c 128,-1,23
 847 1019 847 1019 842.5 1046 c 128,-1,24
 838 1073 838 1073 831.5 1107 c 128,-1,25
 825 1141 825 1141 815.5 1161.5 c 128,-1,26
 806 1182 806 1182 794 1201 c 128,-1,27
 782 1220 782 1220 766.5 1228.5 c 128,-1,28
 751 1237 751 1237 733 1237 c 0,29,30
 703 1237 703 1237 680.5 1213.5 c 128,-1,31
 658 1190 658 1190 644.5 1142 c 128,-1,32
 631 1094 631 1094 622.5 1047.5 c 128,-1,33
 614 1001 614 1001 611 926.5 c 128,-1,34
 608 852 608 852 607 805.5 c 128,-1,35
 606 759 606 759 606 684 c 0,36,37
 606 614 606 614 607 562 c 128,-1,38
 608 510 608 510 612 437 c 128,-1,39
 616 364 616 364 624.5 312 c 128,-1,40
 633 260 633 260 646 211 c 128,-1,41
 659 162 659 162 681.5 136.5 c 128,-1,11
 704 111 704 111 733 111 c 128,-1,12
733 1393 m 0,42,43
 1081 1393 1081 1393 1260.5 1216.5 c 128,-1,44
 1440 1040 1440 1040 1440 694 c 0,45,46
 1440 354 1440 354 1253 154.5 c 128,-1,47
 1066 -45 1066 -45 733 -45 c 0,48,49
 412 -45 412 -45 218.5 150 c 128,-1,50
 25 345 25 345 25 666 c 0,51,52
 25 1017 25 1017 205.5 1205 c 128,-1,53
 386 1393 386 1393 733 1393 c 0,42,43
EndSplineSet
Validated: 1
Position2: "'cpsp' Capital Spacing lookup 3 subtable" dx=10 dy=0 dh=20 dv=0
EndChar

StartChar: Ograve
Encoding: 210 210 92
Width: 1466
Flags: MW
HStem: -45 156<673 794 673 957> 1237 156<671 796>
VStem: 25 582<571 798 571 898> 858 582<571 798>
LayerCount: 2
UndoRedoHistory
Layer: 1
Undoes
EndUndoes
Redoes
EndRedoes
EndUndoRedoHistory
Fore
SplineSet
733 111 m 128,-1,1
 762 111 762 111 784 136 c 128,-1,2
 806 161 806 161 819 211 c 128,-1,3
 832 261 832 261 840.5 311.5 c 128,-1,4
 849 362 849 362 852.5 437 c 128,-1,5
 856 512 856 512 857 562 c 128,-1,6
 858 612 858 612 858 684 c 0,7,8
 858 730 858 730 858 755 c 128,-1,9
 858 780 858 780 857 828 c 128,-1,10
 856 876 856 876 854.5 904.5 c 128,-1,11
 853 933 853 933 850 976 c 128,-1,12
 847 1019 847 1019 842.5 1046 c 128,-1,13
 838 1073 838 1073 831.5 1107 c 128,-1,14
 825 1141 825 1141 815.5 1161.5 c 128,-1,15
 806 1182 806 1182 794 1201 c 128,-1,16
 782 1220 782 1220 766.5 1228.5 c 128,-1,17
 751 1237 751 1237 733 1237 c 0,18,19
 703 1237 703 1237 680.5 1213.5 c 128,-1,20
 658 1190 658 1190 644.5 1142 c 128,-1,21
 631 1094 631 1094 622.5 1047.5 c 128,-1,22
 614 1001 614 1001 611 926.5 c 128,-1,23
 608 852 608 852 607 805.5 c 128,-1,24
 606 759 606 759 606 684 c 0,25,26
 606 614 606 614 607 562 c 128,-1,27
 608 510 608 510 612 437 c 128,-1,28
 616 364 616 364 624.5 312 c 128,-1,29
 633 260 633 260 646 211 c 128,-1,30
 659 162 659 162 681.5 136.5 c 128,-1,0
 704 111 704 111 733 111 c 128,-1,1
733 1393 m 0,31,32
 1081 1393 1081 1393 1260.5 1216.5 c 128,-1,33
 1440 1040 1440 1040 1440 694 c 0,34,35
 1440 354 1440 354 1253 154.5 c 128,-1,36
 1066 -45 1066 -45 733 -45 c 0,37,38
 412 -45 412 -45 218.5 150 c 128,-1,39
 25 345 25 345 25 666 c 0,40,41
 25 1017 25 1017 205.5 1205 c 128,-1,42
 386 1393 386 1393 733 1393 c 0,31,32
629 1475 m 2,43,44
 504 1484 504 1484 460 1496 c 0,45,46
 350 1526 350 1526 350 1620 c 0,47,48
 350 1664 350 1664 375.5 1713 c 128,-1,49
 401 1762 401 1762 438 1794 c 1,50,-1
 981 1567 l 1,51,-1
 954 1452 l 1,52,-1
 629 1475 l 2,43,44
EndSplineSet
Validated: 1
Position2: "'cpsp' Capital Spacing lookup 3 subtable" dx=10 dy=0 dh=20 dv=0
EndChar

StartChar: Ohungarumlaut
Encoding: 336 336 93
Width: 1466
Flags: MW
HStem: -45 156<673 794 673 957> 1237 156<671 796>
VStem: 25 582<571 798 571 898> 858 582<571 798>
LayerCount: 2
UndoRedoHistory
Layer: 1
Undoes
EndUndoes
Redoes
EndRedoes
EndUndoRedoHistory
Fore
SplineSet
733 111 m 128,-1,1
 762 111 762 111 784 136 c 128,-1,2
 806 161 806 161 819 211 c 128,-1,3
 832 261 832 261 840.5 311.5 c 128,-1,4
 849 362 849 362 852.5 437 c 128,-1,5
 856 512 856 512 857 562 c 128,-1,6
 858 612 858 612 858 684 c 0,7,8
 858 730 858 730 858 755 c 128,-1,9
 858 780 858 780 857 828 c 128,-1,10
 856 876 856 876 854.5 904.5 c 128,-1,11
 853 933 853 933 850 976 c 128,-1,12
 847 1019 847 1019 842.5 1046 c 128,-1,13
 838 1073 838 1073 831.5 1107 c 128,-1,14
 825 1141 825 1141 815.5 1161.5 c 128,-1,15
 806 1182 806 1182 794 1201 c 128,-1,16
 782 1220 782 1220 766.5 1228.5 c 128,-1,17
 751 1237 751 1237 733 1237 c 0,18,19
 703 1237 703 1237 680.5 1213.5 c 128,-1,20
 658 1190 658 1190 644.5 1142 c 128,-1,21
 631 1094 631 1094 622.5 1047.5 c 128,-1,22
 614 1001 614 1001 611 926.5 c 128,-1,23
 608 852 608 852 607 805.5 c 128,-1,24
 606 759 606 759 606 684 c 0,25,26
 606 614 606 614 607 562 c 128,-1,27
 608 510 608 510 612 437 c 128,-1,28
 616 364 616 364 624.5 312 c 128,-1,29
 633 260 633 260 646 211 c 128,-1,30
 659 162 659 162 681.5 136.5 c 128,-1,0
 704 111 704 111 733 111 c 128,-1,1
733 1393 m 0,31,32
 1081 1393 1081 1393 1260.5 1216.5 c 128,-1,33
 1440 1040 1440 1040 1440 694 c 0,34,35
 1440 354 1440 354 1253 154.5 c 128,-1,36
 1066 -45 1066 -45 733 -45 c 0,37,38
 412 -45 412 -45 218.5 150 c 128,-1,39
 25 345 25 345 25 666 c 0,40,41
 25 1017 25 1017 205.5 1205 c 128,-1,42
 386 1393 386 1393 733 1393 c 0,31,32
1223 1780 m 1,43,44
 1317 1721 1317 1721 1317 1642 c 0,45,46
 1317 1566 1317 1566 1273 1521.5 c 128,-1,47
 1229 1477 1229 1477 1135 1464 c 2,48,-1
 903 1430 l 1,49,-1
 858 1556 l 1,50,-1
 1223 1780 l 1,43,44
772 1780 m 1,51,52
 866 1721 866 1721 866 1642 c 0,53,54
 866 1487 866 1487 684 1464 c 1,55,-1
 436 1430 l 1,56,-1
 391 1556 l 1,57,-1
 772 1780 l 1,51,52
EndSplineSet
Validated: 1
Position2: "'cpsp' Capital Spacing lookup 3 subtable" dx=10 dy=0 dh=20 dv=0
EndChar

StartChar: Omacron
Encoding: 332 332 94
Width: 1466
Flags: MW
HStem: -45 156<673 794 673 957> 1237 156<671 796> 1577 199<528 954 426 1051>
VStem: 25 582<571 798 571 898> 858 582<571 798>
LayerCount: 2
UndoRedoHistory
Layer: 1
Undoes
EndUndoes
Redoes
EndRedoes
EndUndoRedoHistory
Fore
SplineSet
733 111 m 128,-1,1
 762 111 762 111 784 136 c 128,-1,2
 806 161 806 161 819 211 c 128,-1,3
 832 261 832 261 840.5 311.5 c 128,-1,4
 849 362 849 362 852.5 437 c 128,-1,5
 856 512 856 512 857 562 c 128,-1,6
 858 612 858 612 858 684 c 0,7,8
 858 730 858 730 858 755 c 128,-1,9
 858 780 858 780 857 828 c 128,-1,10
 856 876 856 876 854.5 904.5 c 128,-1,11
 853 933 853 933 850 976 c 128,-1,12
 847 1019 847 1019 842.5 1046 c 128,-1,13
 838 1073 838 1073 831.5 1107 c 128,-1,14
 825 1141 825 1141 815.5 1161.5 c 128,-1,15
 806 1182 806 1182 794 1201 c 128,-1,16
 782 1220 782 1220 766.5 1228.5 c 128,-1,17
 751 1237 751 1237 733 1237 c 0,18,19
 703 1237 703 1237 680.5 1213.5 c 128,-1,20
 658 1190 658 1190 644.5 1142 c 128,-1,21
 631 1094 631 1094 622.5 1047.5 c 128,-1,22
 614 1001 614 1001 611 926.5 c 128,-1,23
 608 852 608 852 607 805.5 c 128,-1,24
 606 759 606 759 606 684 c 0,25,26
 606 614 606 614 607 562 c 128,-1,27
 608 510 608 510 612 437 c 128,-1,28
 616 364 616 364 624.5 312 c 128,-1,29
 633 260 633 260 646 211 c 128,-1,30
 659 162 659 162 681.5 136.5 c 128,-1,0
 704 111 704 111 733 111 c 128,-1,1
733 1393 m 0,31,32
 1081 1393 1081 1393 1260.5 1216.5 c 128,-1,33
 1440 1040 1440 1040 1440 694 c 0,34,35
 1440 354 1440 354 1253 154.5 c 128,-1,36
 1066 -45 1066 -45 733 -45 c 0,37,38
 412 -45 412 -45 218.5 150 c 128,-1,39
 25 345 25 345 25 666 c 0,40,41
 25 1017 25 1017 205.5 1205 c 128,-1,42
 386 1393 386 1393 733 1393 c 0,31,32
1051 1776 m 1,43,44
 1069 1750 1069 1750 1069 1696 c 0,45,46
 1069 1643 1069 1643 1036.5 1610 c 128,-1,47
 1004 1577 1004 1577 954 1577 c 2,48,-1
 426 1577 l 1,49,50
 406 1606 406 1606 406 1661 c 0,51,52
 406 1712 406 1712 439.5 1744 c 128,-1,53
 473 1776 473 1776 528 1776 c 2,54,-1
 1051 1776 l 1,43,44
EndSplineSet
Validated: 1
Position2: "'cpsp' Capital Spacing lookup 3 subtable" dx=10 dy=0 dh=20 dv=0
EndChar

StartChar: Oogonek
Encoding: 490 490 95
Width: 1466
Flags: MW
HStem: -582 209<757 945> -45 156<673 733 733 750> 1237 156<671 796>
VStem: 25 582<571 798 571 898> 520 283<-315 -284> 858 582<571 798>
LayerCount: 2
UndoRedoHistory
Layer: 1
Undoes
EndUndoes
Redoes
EndRedoes
EndUndoRedoHistory
Fore
SplineSet
606 684 m 0,0,1
 606 614 606 614 607 562 c 128,-1,2
 608 510 608 510 612 437 c 128,-1,3
 616 364 616 364 624.5 312 c 128,-1,4
 633 260 633 260 646 211 c 128,-1,5
 659 162 659 162 681.5 136.5 c 128,-1,6
 704 111 704 111 733 111 c 128,-1,7
 762 111 762 111 784 136 c 128,-1,8
 806 161 806 161 819 211 c 128,-1,9
 832 261 832 261 840.5 311.5 c 128,-1,10
 849 362 849 362 852.5 437 c 128,-1,11
 856 512 856 512 857 562 c 128,-1,12
 858 612 858 612 858 684 c 0,13,14
 858 730 858 730 858 755 c 128,-1,15
 858 780 858 780 857 828 c 128,-1,16
 856 876 856 876 854.5 904.5 c 128,-1,17
 853 933 853 933 850 976 c 128,-1,18
 847 1019 847 1019 842.5 1046 c 128,-1,19
 838 1073 838 1073 831.5 1107 c 128,-1,20
 825 1141 825 1141 815.5 1161.5 c 128,-1,21
 806 1182 806 1182 794 1201 c 128,-1,22
 782 1220 782 1220 766.5 1228.5 c 128,-1,23
 751 1237 751 1237 733 1237 c 0,24,25
 703 1237 703 1237 680.5 1213.5 c 128,-1,26
 658 1190 658 1190 644.5 1142 c 128,-1,27
 631 1094 631 1094 622.5 1047.5 c 128,-1,28
 614 1001 614 1001 611 926.5 c 128,-1,29
 608 852 608 852 607 805.5 c 128,-1,30
 606 759 606 759 606 684 c 0,0,1
1006 -2 m 1,31,32
 803 -137 803 -137 803 -276 c 0,33,34
 803 -331 803 -331 833.5 -352 c 128,-1,35
 864 -373 864 -373 926 -373 c 0,36,37
 962 -373 962 -373 1001.5 -359 c 128,-1,38
 1041 -345 1041 -345 1055 -317 c 1,39,40
 1120 -362 1120 -362 1120 -430 c 0,41,42
 1120 -469 1120 -469 1088.5 -500 c 128,-1,43
 1057 -531 1057 -531 1009.5 -548 c 128,-1,44
 962 -565 962 -565 915 -573.5 c 128,-1,45
 868 -582 868 -582 829 -582 c 0,46,47
 783 -582 783 -582 741 -576 c 128,-1,48
 699 -570 699 -570 658 -555 c 128,-1,49
 617 -540 617 -540 587 -517 c 128,-1,50
 557 -494 557 -494 538.5 -456.5 c 128,-1,51
 520 -419 520 -419 520 -371 c 0,52,53
 520 -248 520 -248 580.5 -170.5 c 128,-1,54
 641 -93 641 -93 750 -45 c 1,55,-1
 733 -45 l 2,56,57
 412 -45 412 -45 218.5 150 c 128,-1,58
 25 345 25 345 25 666 c 0,59,60
 25 1017 25 1017 205.5 1205 c 128,-1,61
 386 1393 386 1393 733 1393 c 0,62,63
 1081 1393 1081 1393 1260.5 1216.5 c 128,-1,64
 1440 1040 1440 1040 1440 694 c 0,65,66
 1440 432 1440 432 1327.5 251 c 128,-1,67
 1215 70 1215 70 1006 -2 c 1,31,32
EndSplineSet
Validated: 8388609
Position2: "'cpsp' Capital Spacing lookup 3 subtable" dx=10 dy=0 dh=20 dv=0
EndChar

StartChar: Oslash
Encoding: 216 216 96
Width: 1466
Flags: MW
HStem: -45 156<694 794 694 957> 1237 156<679 756> 1325 41G<977 977>
VStem: 25 582<780 780 780 898> 858 582<684 805 805 805>
LayerCount: 2
UndoRedoHistory
Layer: 1
Undoes
EndUndoes
Redoes
EndRedoes
EndUndoRedoHistory
Fore
SplineSet
612 420 m 1,0,1
 635 111 635 111 733 111 c 0,2,3
 762 111 762 111 784 136 c 128,-1,4
 806 161 806 161 819 211 c 128,-1,5
 832 261 832 261 840.5 311.5 c 128,-1,6
 849 362 849 362 852.5 437 c 128,-1,7
 856 512 856 512 857 562 c 128,-1,8
 858 612 858 612 858 684 c 2,9,-1
 858 805 l 1,10,-1
 612 420 l 1,0,1
825 1126 m 1,11,12
 796 1237 796 1237 733 1237 c 0,13,14
 702 1237 702 1237 678.5 1209 c 128,-1,15
 655 1181 655 1181 641.5 1138.5 c 128,-1,16
 628 1096 628 1096 620 1032 c 128,-1,17
 612 968 612 968 609.5 910.5 c 128,-1,18
 607 853 607 853 606 780 c 1,19,-1
 825 1126 l 1,11,12
1165 1290 m 1,20,21
 1440 1123 1440 1123 1440 694 c 0,22,23
 1440 354 1440 354 1253 154.5 c 128,-1,24
 1066 -45 1066 -45 733 -45 c 0,25,26
 531 -45 531 -45 373 37 c 1,27,-1
 272 -121 l 1,28,29
 266 -121 266 -121 261 -121 c 0,30,31
 200 -121 200 -121 160 -101 c 0,32,33
 118 -79 118 -79 117 -29 c 0,34,35
 117 5 117 5 152 59 c 2,36,-1
 213 156 l 1,37,38
 25 350 25 350 25 666 c 0,39,40
 25 1017 25 1017 205.5 1205 c 128,-1,41
 386 1393 386 1393 733 1393 c 0,42,43
 866 1393 866 1393 977 1366 c 1,44,-1
 1051 1483 l 1,45,46
 1057 1483 1057 1483 1062 1483 c 0,47,48
 1124 1483 1124 1483 1163 1462 c 0,49,50
 1206 1439 1206 1439 1206 1391 c 0,51,52
 1206 1357 1206 1357 1171 1303 c 1,53,-1
 1165 1290 l 1,20,21
EndSplineSet
Validated: 8388609
Position2: "'cpsp' Capital Spacing lookup 3 subtable" dx=10 dy=0 dh=20 dv=0
EndChar

StartChar: Oslashacute
Encoding: 510 510 97
Width: 1466
Flags: MW
HStem: -45 156<694 794 694 957> 1237 156<679 756> 1325 41G<977 977>
VStem: 25 582<780 780 780 898> 858 582<684 805 805 805>
LayerCount: 2
UndoRedoHistory
Layer: 1
Undoes
EndUndoes
Redoes
EndRedoes
EndUndoRedoHistory
Fore
SplineSet
612 420 m 1,0,1
 635 111 635 111 733 111 c 0,2,3
 762 111 762 111 784 136 c 128,-1,4
 806 161 806 161 819 211 c 128,-1,5
 832 261 832 261 840.5 311.5 c 128,-1,6
 849 362 849 362 852.5 437 c 128,-1,7
 856 512 856 512 857 562 c 128,-1,8
 858 612 858 612 858 684 c 2,9,-1
 858 805 l 1,10,-1
 612 420 l 1,0,1
825 1126 m 1,11,12
 796 1237 796 1237 733 1237 c 0,13,14
 702 1237 702 1237 678.5 1209 c 128,-1,15
 655 1181 655 1181 641.5 1138.5 c 128,-1,16
 628 1096 628 1096 620 1032 c 128,-1,17
 612 968 612 968 609.5 910.5 c 128,-1,18
 607 853 607 853 606 780 c 1,19,-1
 825 1126 l 1,11,12
1165 1290 m 1,20,21
 1440 1123 1440 1123 1440 694 c 0,22,23
 1440 354 1440 354 1253 154.5 c 128,-1,24
 1066 -45 1066 -45 733 -45 c 0,25,26
 531 -45 531 -45 373 37 c 1,27,-1
 272 -121 l 1,28,29
 266 -121 266 -121 261 -121 c 0,30,31
 200 -121 200 -121 160 -101 c 0,32,33
 118 -79 118 -79 117 -29 c 0,34,35
 117 5 117 5 152 59 c 2,36,-1
 213 156 l 1,37,38
 25 350 25 350 25 666 c 0,39,40
 25 1017 25 1017 205.5 1205 c 128,-1,41
 386 1393 386 1393 733 1393 c 0,42,43
 866 1393 866 1393 977 1366 c 1,44,-1
 1051 1483 l 1,45,46
 1057 1483 1057 1483 1062 1483 c 0,47,48
 1124 1483 1124 1483 1163 1462 c 0,49,50
 1206 1439 1206 1439 1206 1391 c 0,51,52
 1206 1357 1206 1357 1171 1303 c 1,53,-1
 1165 1290 l 1,20,21
1012 1794 m 1,54,55
 1050 1762 1050 1762 1076 1713.5 c 128,-1,56
 1102 1665 1102 1665 1102 1620 c 0,57,58
 1102 1584 1102 1584 1085.5 1557.5 c 128,-1,59
 1069 1531 1069 1531 1044 1516.5 c 128,-1,60
 1019 1502 1019 1502 983.5 1493.5 c 128,-1,61
 948 1485 948 1485 914.5 1481.5 c 128,-1,62
 881 1478 881 1478 844 1476 c 0,63,64
 841 1476 841 1476 839 1476 c 128,-1,65
 837 1476 837 1476 834 1476 c 128,-1,66
 831 1476 831 1476 828 1475.5 c 128,-1,67
 825 1475 825 1475 823 1475 c 2,68,-1
 498 1452 l 1,69,-1
 471 1567 l 1,70,-1
 1012 1794 l 1,54,55
EndSplineSet
Validated: 8388609
Position2: "'cpsp' Capital Spacing lookup 3 subtable" dx=10 dy=0 dh=20 dv=0
EndChar

StartChar: Otilde
Encoding: 213 213 98
Width: 1466
Flags: MW
HStem: -45 156<673 794 673 957> 1237 156<671 796> 1446 233<941 1014> 1483 233<459 530>
VStem: 25 582<571 798 571 898> 858 582<571 798>
LayerCount: 2
UndoRedoHistory
Layer: 1
Undoes
EndUndoes
Redoes
EndRedoes
EndUndoRedoHistory
Fore
SplineSet
733 111 m 128,-1,1
 762 111 762 111 784 136 c 128,-1,2
 806 161 806 161 819 211 c 128,-1,3
 832 261 832 261 840.5 311.5 c 128,-1,4
 849 362 849 362 852.5 437 c 128,-1,5
 856 512 856 512 857 562 c 128,-1,6
 858 612 858 612 858 684 c 0,7,8
 858 730 858 730 858 755 c 128,-1,9
 858 780 858 780 857 828 c 128,-1,10
 856 876 856 876 854.5 904.5 c 128,-1,11
 853 933 853 933 850 976 c 128,-1,12
 847 1019 847 1019 842.5 1046 c 128,-1,13
 838 1073 838 1073 831.5 1107 c 128,-1,14
 825 1141 825 1141 815.5 1161.5 c 128,-1,15
 806 1182 806 1182 794 1201 c 128,-1,16
 782 1220 782 1220 766.5 1228.5 c 128,-1,17
 751 1237 751 1237 733 1237 c 0,18,19
 703 1237 703 1237 680.5 1213.5 c 128,-1,20
 658 1190 658 1190 644.5 1142 c 128,-1,21
 631 1094 631 1094 622.5 1047.5 c 128,-1,22
 614 1001 614 1001 611 926.5 c 128,-1,23
 608 852 608 852 607 805.5 c 128,-1,24
 606 759 606 759 606 684 c 0,25,26
 606 614 606 614 607 562 c 128,-1,27
 608 510 608 510 612 437 c 128,-1,28
 616 364 616 364 624.5 312 c 128,-1,29
 633 260 633 260 646 211 c 128,-1,30
 659 162 659 162 681.5 136.5 c 128,-1,0
 704 111 704 111 733 111 c 128,-1,1
733 1393 m 0,31,32
 1081 1393 1081 1393 1260.5 1216.5 c 128,-1,33
 1440 1040 1440 1040 1440 694 c 0,34,35
 1440 354 1440 354 1253 154.5 c 128,-1,36
 1066 -45 1066 -45 733 -45 c 0,37,38
 412 -45 412 -45 218.5 150 c 128,-1,39
 25 345 25 345 25 666 c 0,40,41
 25 1017 25 1017 205.5 1205 c 128,-1,42
 386 1393 386 1393 733 1393 c 0,31,32
1151 1726 m 1,43,44
 1194 1653 1194 1653 1194 1593 c 0,45,46
 1194 1547 1194 1547 1175 1516 c 128,-1,47
 1156 1485 1156 1485 1119 1470.5 c 128,-1,48
 1082 1456 1082 1456 1043 1451 c 128,-1,49
 1004 1446 1004 1446 948 1446 c 0,50,51
 886 1446 886 1446 708.5 1464.5 c 128,-1,52
 531 1483 531 1483 465 1483 c 0,53,54
 367 1483 367 1483 322 1436 c 1,55,56
 279 1509 279 1509 279 1569 c 0,57,58
 279 1615 279 1615 298 1646 c 128,-1,59
 317 1677 317 1677 353.5 1691.5 c 128,-1,60
 390 1706 390 1706 429 1711 c 128,-1,61
 468 1716 468 1716 524 1716 c 0,62,63
 586 1716 586 1716 763 1697.5 c 128,-1,64
 940 1679 940 1679 1008 1679 c 0,65,66
 1106 1679 1106 1679 1151 1726 c 1,43,44
EndSplineSet
Validated: 8388609
Position2: "'cpsp' Capital Spacing lookup 3 subtable" dx=10 dy=0 dh=20 dv=0
EndChar

StartChar: OE
Encoding: 338 338 99
Width: 1708
Flags: MW
HStem: -45 156<673 784> 0 182<1364 1720> 602 184<1364 1645 1364 1645> 1169 182<1364 1706 1364 1364> 1237 156<671 796>
VStem: 25 582<571 798 571 898> 864 500<571 602 786 798>
LayerCount: 2
UndoRedoHistory
Layer: 1
Undoes
EndUndoes
Redoes
EndRedoes
EndUndoRedoHistory
Fore
SplineSet
733 111 m 128,-1,1
 762 111 762 111 784.5 136.5 c 128,-1,2
 807 162 807 162 821 210.5 c 128,-1,3
 835 259 835 259 844 312 c 128,-1,4
 853 365 853 365 857 436.5 c 128,-1,5
 861 508 861 508 862.5 562.5 c 128,-1,6
 864 617 864 617 864 684 c 0,7,8
 864 754 864 754 863 805 c 128,-1,9
 862 856 862 856 858 927 c 128,-1,10
 854 998 854 998 845 1047 c 128,-1,11
 836 1096 836 1096 822.5 1142.5 c 128,-1,12
 809 1189 809 1189 786 1213 c 128,-1,13
 763 1237 763 1237 733 1237 c 128,-1,14
 703 1237 703 1237 680.5 1213.5 c 128,-1,15
 658 1190 658 1190 644.5 1142 c 128,-1,16
 631 1094 631 1094 622.5 1047.5 c 128,-1,17
 614 1001 614 1001 611 926.5 c 128,-1,18
 608 852 608 852 607 805.5 c 128,-1,19
 606 759 606 759 606 684 c 0,20,21
 606 614 606 614 607 562 c 128,-1,22
 608 510 608 510 612 437 c 128,-1,23
 616 364 616 364 624.5 312 c 128,-1,24
 633 260 633 260 646 211 c 128,-1,25
 659 162 659 162 681.5 136.5 c 128,-1,0
 704 111 704 111 733 111 c 128,-1,1
1720 0 m 1,26,-1
 1012 0 l 1,27,28
 882 -45 882 -45 733 -45 c 0,29,30
 412 -45 412 -45 218.5 150 c 128,-1,31
 25 345 25 345 25 666 c 0,32,33
 25 1017 25 1017 205.5 1205 c 128,-1,34
 386 1393 386 1393 733 1393 c 0,35,36
 932 1393 932 1393 1071 1352 c 1,37,-1
 1706 1352 l 1,38,-1
 1706 1169 l 1,39,-1
 1364 1169 l 1,40,-1
 1364 786 l 1,41,-1
 1645 786 l 1,42,-1
 1645 602 l 1,43,-1
 1364 602 l 1,44,-1
 1364 182 l 1,45,-1
 1739 182 l 1,46,-1
 1720 0 l 1,26,-1
EndSplineSet
Validated: 8388609
Position2: "'cpsp' Capital Spacing lookup 3 subtable" dx=10 dy=0 dh=20 dv=0
EndChar

StartChar: P
Encoding: 80 80 100
Width: 1392
Flags: MW
HStem: 520 182<676 1059> 1206 158<684 760>
VStem: 92 541<0 1194 0 1327 0 1327> 836 524<865 1004>
LayerCount: 2
UndoRedoHistory
Layer: 1
Undoes
EndUndoes
Redoes
EndRedoes
EndUndoRedoHistory
Fore
SplineSet
92 1327 m 1,0,1
 413 1364 413 1364 686 1364 c 0,2,3
 799 1364 799 1364 891 1354 c 128,-1,4
 983 1344 983 1344 1073.5 1316 c 128,-1,5
 1164 1288 1164 1288 1224.5 1242 c 128,-1,6
 1285 1196 1285 1196 1322.5 1120 c 128,-1,7
 1360 1044 1360 1044 1360 942 c 0,8,9
 1360 752 1360 752 1241.5 636 c 128,-1,10
 1123 520 1123 520 932 520 c 0,11,12
 676 520 676 520 676 702 c 1,13,14
 729 702 729 702 762 717.5 c 128,-1,15
 795 733 795 733 810.5 767 c 128,-1,16
 826 801 826 801 831 838.5 c 128,-1,17
 836 876 836 876 836 938 c 0,18,19
 836 997 836 997 832 1037 c 128,-1,20
 828 1077 828 1077 814.5 1119.5 c 128,-1,21
 801 1162 801 1162 771 1184 c 128,-1,22
 741 1206 741 1206 694 1206 c 0,23,24
 660 1206 660 1206 633 1194 c 1,25,-1
 633 0 l 1,26,-1
 92 0 l 1,27,-1
 92 1327 l 1,0,1
EndSplineSet
Validated: 1
Position2: "'cpsp' Capital Spacing lookup 3 subtable" dx=10 dy=0 dh=20 dv=0
EndChar

StartChar: Thorn
Encoding: 222 222 101
Width: 1392
Flags: MW
HStem: 0 438<92 728> 942 156<684 760> 1311 41G<92 633 633 633>
VStem: 92 541<0 930 1098 1352 0 1352 0 1352> 836 524<601 739>
LayerCount: 2
UndoRedoHistory
Layer: 1
Undoes
EndUndoes
Redoes
EndRedoes
EndUndoRedoHistory
Fore
SplineSet
633 1098 m 1,0,-1
 784 1098 l 2,1,2
 896 1098 896 1098 979 1088 c 128,-1,3
 1062 1078 1062 1078 1137 1050.5 c 128,-1,4
 1212 1023 1212 1023 1259 977 c 128,-1,5
 1306 931 1306 931 1333 856 c 128,-1,6
 1360 781 1360 781 1360 678 c 0,7,8
 1360 488 1360 488 1241.5 372 c 128,-1,9
 1123 256 1123 256 932 256 c 0,10,11
 829 256 829 256 752.5 312.5 c 128,-1,12
 676 369 676 369 676 438 c 1,13,14
 753 438 753 438 794.5 501 c 128,-1,15
 836 564 836 564 836 674 c 0,16,17
 836 733 836 733 832 773 c 128,-1,18
 828 813 828 813 814.5 855.5 c 128,-1,19
 801 898 801 898 771 920 c 128,-1,20
 741 942 741 942 694 942 c 0,21,22
 660 942 660 942 633 930 c 1,23,-1
 633 0 l 1,24,-1
 92 0 l 1,25,-1
 92 1352 l 1,26,-1
 633 1352 l 1,27,-1
 633 1098 l 1,0,-1
EndSplineSet
Validated: 1
Position2: "'cpsp' Capital Spacing lookup 3 subtable" dx=10 dy=0 dh=20 dv=0
EndChar

StartChar: Q
Encoding: 81 81 102
Width: 1466
Flags: MW
HStem: -436 328<1070 1168 1070 1251> -236 250 -72 41G -45 156<735 735> 1237 156<671 796>
VStem: 25 582<571 798 571 898> 858 582<571 798>
LayerCount: 2
UndoRedoHistory
Layer: 1
Undoes
EndUndoes
Redoes
EndRedoes
EndUndoRedoHistory
Fore
SplineSet
733 1237 m 0,0,1
 703 1237 703 1237 680.5 1213.5 c 128,-1,2
 658 1190 658 1190 644.5 1142 c 128,-1,3
 631 1094 631 1094 622.5 1047.5 c 128,-1,4
 614 1001 614 1001 611 926.5 c 128,-1,5
 608 852 608 852 607 805.5 c 128,-1,6
 606 759 606 759 606 684 c 0,7,8
 606 614 606 614 607 562 c 128,-1,9
 608 510 608 510 612 437 c 128,-1,10
 616 364 616 364 624.5 312 c 128,-1,11
 633 260 633 260 646 211 c 128,-1,12
 659 162 659 162 681.5 136.5 c 128,-1,13
 704 111 704 111 733 111 c 128,-1,14
 762 111 762 111 784 136 c 128,-1,15
 806 161 806 161 819 211 c 128,-1,16
 832 261 832 261 840.5 311.5 c 128,-1,17
 849 362 849 362 852.5 437 c 128,-1,18
 856 512 856 512 857 562 c 128,-1,19
 858 612 858 612 858 684 c 0,20,21
 858 730 858 730 858 755 c 128,-1,22
 858 780 858 780 857 828 c 128,-1,23
 856 876 856 876 854.5 904.5 c 128,-1,24
 853 933 853 933 850 976 c 128,-1,25
 847 1019 847 1019 842.5 1046 c 128,-1,26
 838 1073 838 1073 831.5 1107 c 128,-1,27
 825 1141 825 1141 815.5 1161.5 c 128,-1,28
 806 1182 806 1182 794 1201 c 128,-1,29
 782 1220 782 1220 766.5 1228.5 c 128,-1,30
 751 1237 751 1237 733 1237 c 0,0,1
733 1393 m 0,31,32
 1081 1393 1081 1393 1260.5 1216.5 c 128,-1,33
 1440 1040 1440 1040 1440 694 c 0,34,35
 1440 565 1440 565 1398.5 448 c 128,-1,36
 1357 331 1357 331 1287 243.5 c 128,-1,37
 1217 156 1217 156 1126.5 90.5 c 128,-1,38
 1036 25 1036 25 935.5 -9 c 128,-1,39
 835 -43 835 -43 735 -45 c 1,40,41
 981 -109 981 -109 1128 -109 c 0,42,43
 1197 -109 1197 -109 1248 -93.5 c 128,-1,44
 1299 -78 1299 -78 1346 -31 c 1,45,46
 1376 -89 1376 -89 1390.5 -130.5 c 128,-1,47
 1405 -172 1405 -172 1405 -225 c 0,48,49
 1405 -436 1405 -436 1190 -436 c 0,50,51
 1120 -436 1120 -436 1039.5 -415.5 c 128,-1,52
 959 -395 959 -395 884.5 -365.5 c 128,-1,53
 810 -336 810 -336 734 -306.5 c 128,-1,54
 658 -277 658 -277 573.5 -256.5 c 128,-1,55
 489 -236 489 -236 414 -236 c 0,56,57
 278 -236 278 -236 223 -264 c 1,58,59
 172 -210 172 -210 172 -141 c 0,60,61
 172 -102 172 -102 185.5 -73.5 c 128,-1,62
 199 -45 199 -45 219.5 -29 c 128,-1,63
 240 -13 240 -13 275 -3.5 c 128,-1,64
 310 6 310 6 341.5 9.5 c 128,-1,65
 373 13 373 13 420 14 c 1,66,67
 237 99 237 99 131 269 c 128,-1,68
 25 439 25 439 25 666 c 0,69,70
 25 1017 25 1017 205.5 1205 c 128,-1,71
 386 1393 386 1393 733 1393 c 0,31,32
EndSplineSet
Validated: 8388609
Position2: "'cpsp' Capital Spacing lookup 3 subtable" dx=10 dy=0 dh=20 dv=0
EndChar

StartChar: R
Encoding: 82 82 103
Width: 1370
Flags: MW
HStem: 1206 158<684 748>
VStem: 92 541<0 1194 0 1327 0 1327> 805 524<885 1016>
LayerCount: 2
UndoRedoHistory
Layer: 1
Undoes
EndUndoes
Redoes
EndRedoes
EndUndoRedoHistory
Fore
SplineSet
92 1327 m 1,0,1
 413 1364 413 1364 686 1364 c 0,2,3
 803 1364 803 1364 891.5 1355 c 128,-1,4
 980 1346 980 1346 1066 1318.5 c 128,-1,5
 1152 1291 1152 1291 1207 1244.5 c 128,-1,6
 1262 1198 1262 1198 1295.5 1120.5 c 128,-1,7
 1329 1043 1329 1043 1329 936 c 0,8,9
 1329 801 1329 801 1270.5 702 c 128,-1,10
 1212 603 1212 603 1106 551 c 1,11,-1
 1415 0 l 1,12,-1
 870 0 l 1,13,-1
 696 590 l 2,14,15
 676 660 676 660 676 692 c 1,16,17
 703 692 703 692 724 699.5 c 128,-1,18
 745 707 745 707 758.5 716 c 128,-1,19
 772 725 772 725 781.5 746 c 128,-1,20
 791 767 791 767 795.5 781.5 c 128,-1,21
 800 796 800 796 802.5 828.5 c 128,-1,22
 805 861 805 861 805 877.5 c 128,-1,23
 805 894 805 894 805 934 c 0,24,25
 805 948 805 948 805 956 c 0,26,27
 805 1000 805 1000 803.5 1028.5 c 128,-1,28
 802 1057 802 1057 796 1094.5 c 128,-1,29
 790 1132 790 1132 779 1153.5 c 128,-1,30
 768 1175 768 1175 746.5 1190.5 c 128,-1,31
 725 1206 725 1206 694 1206 c 0,32,33
 660 1206 660 1206 633 1194 c 1,34,-1
 633 0 l 1,35,-1
 92 0 l 1,36,-1
 92 1327 l 1,0,1
EndSplineSet
Validated: 1
Position2: "'cpsp' Capital Spacing lookup 3 subtable" dx=10 dy=0 dh=20 dv=0
EndChar

StartChar: Racute
Encoding: 340 340 104
Width: 1370
Flags: MW
HStem: 1206 158<684 745>
VStem: 92 541<0 1194 0 1327 0 1327> 805 524<894 1027>
LayerCount: 2
UndoRedoHistory
Layer: 1
Undoes
EndUndoes
Redoes
EndRedoes
EndUndoRedoHistory
Fore
SplineSet
92 1327 m 1,0,1
 413 1364 413 1364 686 1364 c 0,2,3
 803 1364 803 1364 891.5 1355 c 128,-1,4
 980 1346 980 1346 1066 1318.5 c 128,-1,5
 1152 1291 1152 1291 1207 1244.5 c 128,-1,6
 1262 1198 1262 1198 1295.5 1120.5 c 128,-1,7
 1329 1043 1329 1043 1329 936 c 0,8,9
 1329 801 1329 801 1270.5 702 c 128,-1,10
 1212 603 1212 603 1106 551 c 1,11,-1
 1415 0 l 1,12,-1
 870 0 l 1,13,-1
 696 590 l 2,14,15
 676 660 676 660 676 692 c 1,16,17
 714 692 714 692 739.5 706.5 c 128,-1,18
 765 721 765 721 778 737.5 c 128,-1,19
 791 754 791 754 797.5 794 c 128,-1,20
 804 834 804 834 804.5 857 c 128,-1,21
 805 880 805 880 805 936 c 0,22,23
 805 958 805 958 805 969 c 0,24,25
 805 1010 805 1010 803.5 1039 c 128,-1,26
 802 1068 802 1068 795.5 1102 c 128,-1,27
 789 1136 789 1136 777.5 1157 c 128,-1,28
 766 1178 766 1178 744.5 1192 c 128,-1,29
 723 1206 723 1206 694 1206 c 0,30,31
 660 1206 660 1206 633 1194 c 1,32,-1
 633 0 l 1,33,-1
 92 0 l 1,34,-1
 92 1327 l 1,0,1
979 1790 m 1,35,36
 1017 1758 1017 1758 1043 1709.5 c 128,-1,37
 1069 1661 1069 1661 1069 1616 c 0,38,39
 1069 1579 1069 1579 1052 1552.5 c 128,-1,40
 1035 1526 1035 1526 1011 1512 c 128,-1,41
 987 1498 987 1498 949.5 1489 c 128,-1,42
 912 1480 912 1480 881 1477 c 128,-1,43
 850 1474 850 1474 810 1471 c 0,44,45
 797 1470 797 1470 791 1470 c 2,46,-1
 465 1448 l 1,47,-1
 438 1563 l 1,48,-1
 979 1790 l 1,35,36
EndSplineSet
Validated: 1
Position2: "'cpsp' Capital Spacing lookup 3 subtable" dx=10 dy=0 dh=20 dv=0
EndChar

StartChar: Rcaron
Encoding: 344 344 105
Width: 1370
Flags: MW
HStem: 1206 158<684 745>
VStem: 92 541<0 1194 0 1327 0 1327> 805 524<894 1027>
LayerCount: 2
UndoRedoHistory
Layer: 1
Undoes
EndUndoes
Redoes
EndRedoes
EndUndoRedoHistory
Fore
SplineSet
92 1327 m 1,0,1
 413 1364 413 1364 686 1364 c 0,2,3
 803 1364 803 1364 891.5 1355 c 128,-1,4
 980 1346 980 1346 1066 1318.5 c 128,-1,5
 1152 1291 1152 1291 1207 1244.5 c 128,-1,6
 1262 1198 1262 1198 1295.5 1120.5 c 128,-1,7
 1329 1043 1329 1043 1329 936 c 0,8,9
 1329 801 1329 801 1270.5 702 c 128,-1,10
 1212 603 1212 603 1106 551 c 1,11,-1
 1415 0 l 1,12,-1
 870 0 l 1,13,-1
 696 590 l 2,14,15
 676 660 676 660 676 692 c 1,16,17
 714 692 714 692 739.5 706.5 c 128,-1,18
 765 721 765 721 778 737.5 c 128,-1,19
 791 754 791 754 797.5 794 c 128,-1,20
 804 834 804 834 804.5 857 c 128,-1,21
 805 880 805 880 805 936 c 0,22,23
 805 958 805 958 805 969 c 0,24,25
 805 1010 805 1010 803.5 1039 c 128,-1,26
 802 1068 802 1068 795.5 1102 c 128,-1,27
 789 1136 789 1136 777.5 1157 c 128,-1,28
 766 1178 766 1178 744.5 1192 c 128,-1,29
 723 1206 723 1206 694 1206 c 0,30,31
 660 1206 660 1206 633 1194 c 1,32,-1
 633 0 l 1,33,-1
 92 0 l 1,34,-1
 92 1327 l 1,0,1
1092 1663 m 1,35,-1
 795 1413 l 1,36,-1
 584 1413 l 1,37,-1
 281 1663 l 1,38,-1
 371 1769 l 1,39,-1
 686 1663 l 1,40,-1
 999 1769 l 1,41,-1
 1092 1663 l 1,35,-1
EndSplineSet
Validated: 1
Position2: "'cpsp' Capital Spacing lookup 3 subtable" dx=10 dy=0 dh=20 dv=0
EndChar

StartChar: Rcommaaccent
Encoding: 342 342 106
Width: 1370
Flags: MW
HStem: 1206 158<684 745>
VStem: 92 541<0 1194 0 1327 0 1327> 586 317<-353 -297> 805 524<894 1027>
LayerCount: 2
UndoRedoHistory
Layer: 1
Undoes
EndUndoes
Redoes
EndRedoes
EndUndoRedoHistory
Fore
SplineSet
686 -106 m 0,0,1
 802 -106 802 -106 852.5 -146 c 128,-1,2
 903 -186 903 -186 903 -279 c 0,3,4
 903 -392 903 -392 810.5 -471.5 c 128,-1,5
 718 -551 718 -551 582 -551 c 0,6,7
 569 -551 569 -551 494 -545 c 1,8,9
 586 -435 586 -435 586 -330 c 128,-1,10
 586 -225 586 -225 535 -139 c 1,11,12
 552 -126 552 -126 598 -116 c 128,-1,13
 644 -106 644 -106 686 -106 c 0,0,1
92 1327 m 1,14,15
 413 1364 413 1364 686 1364 c 0,16,17
 803 1364 803 1364 891.5 1355 c 128,-1,18
 980 1346 980 1346 1066 1318.5 c 128,-1,19
 1152 1291 1152 1291 1207 1244.5 c 128,-1,20
 1262 1198 1262 1198 1295.5 1120.5 c 128,-1,21
 1329 1043 1329 1043 1329 936 c 0,22,23
 1329 801 1329 801 1270.5 702 c 128,-1,24
 1212 603 1212 603 1106 551 c 1,25,-1
 1415 0 l 1,26,-1
 870 0 l 1,27,-1
 696 590 l 2,28,29
 676 660 676 660 676 692 c 1,30,31
 714 692 714 692 739.5 706.5 c 128,-1,32
 765 721 765 721 778 737.5 c 128,-1,33
 791 754 791 754 797.5 794 c 128,-1,34
 804 834 804 834 804.5 857 c 128,-1,35
 805 880 805 880 805 936 c 0,36,37
 805 958 805 958 805 969 c 0,38,39
 805 1010 805 1010 803.5 1039 c 128,-1,40
 802 1068 802 1068 795.5 1102 c 128,-1,41
 789 1136 789 1136 777.5 1157 c 128,-1,42
 766 1178 766 1178 744.5 1192 c 128,-1,43
 723 1206 723 1206 694 1206 c 0,44,45
 660 1206 660 1206 633 1194 c 1,46,-1
 633 0 l 1,47,-1
 92 0 l 1,48,-1
 92 1327 l 1,14,15
EndSplineSet
Validated: 8388609
Position2: "'cpsp' Capital Spacing lookup 3 subtable" dx=10 dy=0 dh=20 dv=0
EndChar

StartChar: Rdotbelow
Encoding: 7770 7770 107
Width: 1370
Flags: MW
HStem: -414 348<684 817> 1206 158<684 745>
VStem: 92 541<0 1194 0 1327 0 1327> 805 524<894 1027>
LayerCount: 2
UndoRedoHistory
Layer: 1
Undoes
EndUndoes
Redoes
EndRedoes
EndUndoRedoHistory
Fore
SplineSet
756 -66 m 0,0,1
 862 -66 862 -66 927.5 -113 c 128,-1,2
 993 -160 993 -160 993 -242 c 128,-1,3
 993 -324 993 -324 924.5 -369 c 128,-1,4
 856 -414 856 -414 745 -414 c 0,5,6
 636 -414 636 -414 569 -370 c 128,-1,7
 502 -326 502 -326 502 -246 c 0,8,9
 502 -164 502 -164 574 -115 c 128,-1,10
 646 -66 646 -66 756 -66 c 0,0,1
92 1327 m 1,11,12
 413 1364 413 1364 686 1364 c 0,13,14
 803 1364 803 1364 891.5 1355 c 128,-1,15
 980 1346 980 1346 1066 1318.5 c 128,-1,16
 1152 1291 1152 1291 1207 1244.5 c 128,-1,17
 1262 1198 1262 1198 1295.5 1120.5 c 128,-1,18
 1329 1043 1329 1043 1329 936 c 0,19,20
 1329 801 1329 801 1270.5 702 c 128,-1,21
 1212 603 1212 603 1106 551 c 1,22,-1
 1415 0 l 1,23,-1
 870 0 l 1,24,-1
 696 590 l 2,25,26
 676 660 676 660 676 692 c 1,27,28
 714 692 714 692 739.5 706.5 c 128,-1,29
 765 721 765 721 778 737.5 c 128,-1,30
 791 754 791 754 797.5 794 c 128,-1,31
 804 834 804 834 804.5 857 c 128,-1,32
 805 880 805 880 805 936 c 0,33,34
 805 958 805 958 805 969 c 0,35,36
 805 1010 805 1010 803.5 1039 c 128,-1,37
 802 1068 802 1068 795.5 1102 c 128,-1,38
 789 1136 789 1136 777.5 1157 c 128,-1,39
 766 1178 766 1178 744.5 1192 c 128,-1,40
 723 1206 723 1206 694 1206 c 0,41,42
 660 1206 660 1206 633 1194 c 1,43,-1
 633 0 l 1,44,-1
 92 0 l 1,45,-1
 92 1327 l 1,11,12
EndSplineSet
Validated: 1
Position2: "'cpsp' Capital Spacing lookup 3 subtable" dx=10 dy=0 dh=20 dv=0
EndChar

StartChar: S
Encoding: 83 83 108
Width: 1222
Flags: MW
HStem: -45 160<513 626 513 720> 1233 160<591 674>
VStem: 23 401<297 307> 43 469<933 1093> 725 469<245 429> 752 401<1065 1116>
LayerCount: 2
UndoRedoHistory
Layer: 1
Undoes
EndUndoes
Redoes
EndRedoes
EndUndoRedoHistory
Fore
SplineSet
662 1393 m 0,0,1
 724 1393 724 1393 786.5 1386.5 c 128,-1,2
 849 1380 849 1380 916.5 1363 c 128,-1,3
 984 1346 984 1346 1035.5 1320 c 128,-1,4
 1087 1294 1087 1294 1120 1250.5 c 128,-1,5
 1153 1207 1153 1207 1153 1153 c 0,6,7
 1153 1089 1153 1089 1128.5 1042.5 c 128,-1,8
 1104 996 1104 996 1060.5 969.5 c 128,-1,9
 1017 943 1017 943 964.5 930.5 c 128,-1,10
 912 918 912 918 848 918 c 0,11,12
 815 918 815 918 741 922 c 1,13,14
 752 1019 752 1019 752 1071 c 0,15,16
 752 1233 752 1233 627 1233 c 0,17,18
 574 1233 574 1233 543 1198 c 128,-1,19
 512 1163 512 1163 512 1108 c 0,20,21
 512 1052 512 1052 535.5 1008 c 128,-1,22
 559 964 559 964 598.5 934.5 c 128,-1,23
 638 905 638 905 689 880.5 c 128,-1,24
 740 856 740 856 796.5 834 c 128,-1,25
 853 812 853 812 909.5 788.5 c 128,-1,26
 966 765 966 765 1017 732.5 c 128,-1,27
 1068 700 1068 700 1107.5 659 c 128,-1,28
 1147 618 1147 618 1170.5 557 c 128,-1,29
 1194 496 1194 496 1194 420 c 0,30,31
 1194 318 1194 318 1159.5 237.5 c 128,-1,32
 1125 157 1125 157 1066.5 104.5 c 128,-1,33
 1008 52 1008 52 924.5 18 c 128,-1,34
 841 -16 841 -16 747.5 -30.5 c 128,-1,35
 654 -45 654 -45 545 -45 c 0,36,37
 472 -45 472 -45 405.5 -39 c 128,-1,38
 339 -33 339 -33 267 -15 c 128,-1,39
 195 3 195 3 143 31 c 128,-1,40
 91 59 91 59 57 107.5 c 128,-1,41
 23 156 23 156 23 219 c 0,42,43
 23 345 23 345 111 415 c 128,-1,44
 199 485 199 485 328 485 c 0,45,46
 364 485 364 485 434 481 c 1,47,48
 424 403 424 403 424 365 c 0,49,50
 424 309 424 309 430 268 c 128,-1,51
 436 227 436 227 452 190 c 128,-1,52
 468 153 468 153 500 134 c 128,-1,53
 532 115 532 115 580 115 c 0,54,55
 649 115 649 115 687 151 c 128,-1,56
 725 187 725 187 725 254 c 0,57,58
 725 310 725 310 701.5 354 c 128,-1,59
 678 398 678 398 638.5 427.5 c 128,-1,60
 599 457 599 457 548 481.5 c 128,-1,61
 497 506 497 506 440.5 528 c 128,-1,62
 384 550 384 550 327.5 573.5 c 128,-1,63
 271 597 271 597 220 629.5 c 128,-1,64
 169 662 169 662 129.5 703 c 128,-1,65
 90 744 90 744 66.5 805 c 128,-1,66
 43 866 43 866 43 942 c 0,67,68
 43 1051 43 1051 97 1139 c 128,-1,69
 151 1227 151 1227 240 1281 c 128,-1,70
 329 1335 329 1335 437.5 1364 c 128,-1,71
 546 1393 546 1393 662 1393 c 0,0,1
EndSplineSet
Validated: 8388609
Position2: "'cpsp' Capital Spacing lookup 3 subtable" dx=10 dy=0 dh=20 dv=0
EndChar

StartChar: Sacute
Encoding: 346 346 109
Width: 1222
Flags: MW
HStem: -45 160<513 626 513 720> 1233 160<591 674>
VStem: 23 401<297 307> 43 469<933 1093> 725 469<245 429> 752 401<1065 1116>
LayerCount: 2
UndoRedoHistory
Layer: 1
Undoes
EndUndoes
Redoes
EndRedoes
EndUndoRedoHistory
Fore
SplineSet
662 1393 m 0,0,1
 724 1393 724 1393 786.5 1386.5 c 128,-1,2
 849 1380 849 1380 916.5 1363 c 128,-1,3
 984 1346 984 1346 1035.5 1320 c 128,-1,4
 1087 1294 1087 1294 1120 1250.5 c 128,-1,5
 1153 1207 1153 1207 1153 1153 c 0,6,7
 1153 1089 1153 1089 1128.5 1042.5 c 128,-1,8
 1104 996 1104 996 1060.5 969.5 c 128,-1,9
 1017 943 1017 943 964.5 930.5 c 128,-1,10
 912 918 912 918 848 918 c 0,11,12
 815 918 815 918 741 922 c 1,13,14
 752 1019 752 1019 752 1071 c 0,15,16
 752 1233 752 1233 627 1233 c 0,17,18
 574 1233 574 1233 543 1198 c 128,-1,19
 512 1163 512 1163 512 1108 c 0,20,21
 512 1052 512 1052 535.5 1008 c 128,-1,22
 559 964 559 964 598.5 934.5 c 128,-1,23
 638 905 638 905 689 880.5 c 128,-1,24
 740 856 740 856 796.5 834 c 128,-1,25
 853 812 853 812 909.5 788.5 c 128,-1,26
 966 765 966 765 1017 732.5 c 128,-1,27
 1068 700 1068 700 1107.5 659 c 128,-1,28
 1147 618 1147 618 1170.5 557 c 128,-1,29
 1194 496 1194 496 1194 420 c 0,30,31
 1194 318 1194 318 1159.5 237.5 c 128,-1,32
 1125 157 1125 157 1066.5 104.5 c 128,-1,33
 1008 52 1008 52 924.5 18 c 128,-1,34
 841 -16 841 -16 747.5 -30.5 c 128,-1,35
 654 -45 654 -45 545 -45 c 0,36,37
 472 -45 472 -45 405.5 -39 c 128,-1,38
 339 -33 339 -33 267 -15 c 128,-1,39
 195 3 195 3 143 31 c 128,-1,40
 91 59 91 59 57 107.5 c 128,-1,41
 23 156 23 156 23 219 c 0,42,43
 23 345 23 345 111 415 c 128,-1,44
 199 485 199 485 328 485 c 0,45,46
 364 485 364 485 434 481 c 1,47,48
 424 403 424 403 424 365 c 0,49,50
 424 309 424 309 430 268 c 128,-1,51
 436 227 436 227 452 190 c 128,-1,52
 468 153 468 153 500 134 c 128,-1,53
 532 115 532 115 580 115 c 0,54,55
 649 115 649 115 687 151 c 128,-1,56
 725 187 725 187 725 254 c 0,57,58
 725 310 725 310 701.5 354 c 128,-1,59
 678 398 678 398 638.5 427.5 c 128,-1,60
 599 457 599 457 548 481.5 c 128,-1,61
 497 506 497 506 440.5 528 c 128,-1,62
 384 550 384 550 327.5 573.5 c 128,-1,63
 271 597 271 597 220 629.5 c 128,-1,64
 169 662 169 662 129.5 703 c 128,-1,65
 90 744 90 744 66.5 805 c 128,-1,66
 43 866 43 866 43 942 c 0,67,68
 43 1051 43 1051 97 1139 c 128,-1,69
 151 1227 151 1227 240 1281 c 128,-1,70
 329 1335 329 1335 437.5 1364 c 128,-1,71
 546 1393 546 1393 662 1393 c 0,0,1
922 1792 m 1,72,73
 960 1760 960 1760 986 1711.5 c 128,-1,74
 1012 1663 1012 1663 1012 1618 c 0,75,76
 1012 1582 1012 1582 995.5 1555.5 c 128,-1,77
 979 1529 979 1529 954 1514.5 c 128,-1,78
 929 1500 929 1500 893.5 1491.5 c 128,-1,79
 858 1483 858 1483 824.5 1479.5 c 128,-1,80
 791 1476 791 1476 754 1474 c 0,81,82
 751 1474 751 1474 749 1474 c 128,-1,83
 747 1474 747 1474 744 1474 c 128,-1,84
 741 1474 741 1474 738 1473.5 c 128,-1,85
 735 1473 735 1473 733 1473 c 2,86,-1
 408 1450 l 1,87,-1
 381 1565 l 1,88,-1
 922 1792 l 1,72,73
EndSplineSet
Validated: 8388609
Substitution2: "'locl' Localized Forms in Latin lookup 13 subtable" Sacute.loclPLK
Substitution2: "'aalt' Access All Alternates lookup 0 subtable" Sacute.loclPLK
Position2: "'cpsp' Capital Spacing lookup 3 subtable" dx=10 dy=0 dh=20 dv=0
EndChar

StartChar: Scaron
Encoding: 352 352 110
Width: 1222
Flags: MW
HStem: -45 160<513 626 513 720> 1233 160<591 674>
VStem: 23 401<297 307> 43 469<933 1093> 725 469<245 429> 752 401<1065 1116>
LayerCount: 2
UndoRedoHistory
Layer: 1
Undoes
EndUndoes
Redoes
EndRedoes
EndUndoRedoHistory
Fore
SplineSet
662 1393 m 0,0,1
 724 1393 724 1393 786.5 1386.5 c 128,-1,2
 849 1380 849 1380 916.5 1363 c 128,-1,3
 984 1346 984 1346 1035.5 1320 c 128,-1,4
 1087 1294 1087 1294 1120 1250.5 c 128,-1,5
 1153 1207 1153 1207 1153 1153 c 0,6,7
 1153 1089 1153 1089 1128.5 1042.5 c 128,-1,8
 1104 996 1104 996 1060.5 969.5 c 128,-1,9
 1017 943 1017 943 964.5 930.5 c 128,-1,10
 912 918 912 918 848 918 c 0,11,12
 815 918 815 918 741 922 c 1,13,14
 752 1019 752 1019 752 1071 c 0,15,16
 752 1233 752 1233 627 1233 c 0,17,18
 574 1233 574 1233 543 1198 c 128,-1,19
 512 1163 512 1163 512 1108 c 0,20,21
 512 1052 512 1052 535.5 1008 c 128,-1,22
 559 964 559 964 598.5 934.5 c 128,-1,23
 638 905 638 905 689 880.5 c 128,-1,24
 740 856 740 856 796.5 834 c 128,-1,25
 853 812 853 812 909.5 788.5 c 128,-1,26
 966 765 966 765 1017 732.5 c 128,-1,27
 1068 700 1068 700 1107.5 659 c 128,-1,28
 1147 618 1147 618 1170.5 557 c 128,-1,29
 1194 496 1194 496 1194 420 c 0,30,31
 1194 318 1194 318 1159.5 237.5 c 128,-1,32
 1125 157 1125 157 1066.5 104.5 c 128,-1,33
 1008 52 1008 52 924.5 18 c 128,-1,34
 841 -16 841 -16 747.5 -30.5 c 128,-1,35
 654 -45 654 -45 545 -45 c 0,36,37
 472 -45 472 -45 405.5 -39 c 128,-1,38
 339 -33 339 -33 267 -15 c 128,-1,39
 195 3 195 3 143 31 c 128,-1,40
 91 59 91 59 57 107.5 c 128,-1,41
 23 156 23 156 23 219 c 0,42,43
 23 345 23 345 111 415 c 128,-1,44
 199 485 199 485 328 485 c 0,45,46
 364 485 364 485 434 481 c 1,47,48
 424 403 424 403 424 365 c 0,49,50
 424 309 424 309 430 268 c 128,-1,51
 436 227 436 227 452 190 c 128,-1,52
 468 153 468 153 500 134 c 128,-1,53
 532 115 532 115 580 115 c 0,54,55
 649 115 649 115 687 151 c 128,-1,56
 725 187 725 187 725 254 c 0,57,58
 725 310 725 310 701.5 354 c 128,-1,59
 678 398 678 398 638.5 427.5 c 128,-1,60
 599 457 599 457 548 481.5 c 128,-1,61
 497 506 497 506 440.5 528 c 128,-1,62
 384 550 384 550 327.5 573.5 c 128,-1,63
 271 597 271 597 220 629.5 c 128,-1,64
 169 662 169 662 129.5 703 c 128,-1,65
 90 744 90 744 66.5 805 c 128,-1,66
 43 866 43 866 43 942 c 0,67,68
 43 1051 43 1051 97 1139 c 128,-1,69
 151 1227 151 1227 240 1281 c 128,-1,70
 329 1335 329 1335 437.5 1364 c 128,-1,71
 546 1393 546 1393 662 1393 c 0,0,1
1034 1665 m 1,72,-1
 737 1415 l 1,73,-1
 526 1415 l 1,74,-1
 223 1665 l 1,75,-1
 313 1772 l 1,76,-1
 629 1665 l 1,77,-1
 942 1772 l 1,78,-1
 1034 1665 l 1,72,-1
EndSplineSet
Validated: 8388609
Position2: "'cpsp' Capital Spacing lookup 3 subtable" dx=10 dy=0 dh=20 dv=0
EndChar

StartChar: Scedilla
Encoding: 350 350 111
Width: 1222
Flags: MW
HStem: -535 166<463 466 406 577> -223 115 1233 160<591 674>
VStem: 23 401<297 307> 43 469<933 1093> 516 299<-322 -267> 725 469<251 429> 752 401<1065 1116>
LayerCount: 2
UndoRedoHistory
Layer: 1
Undoes
EndUndoes
Redoes
EndRedoes
EndUndoRedoHistory
Fore
SplineSet
391 -37 m 1,0,1
 316 -29 316 -29 254 -12 c 128,-1,2
 192 5 192 5 138 34 c 128,-1,3
 84 63 84 63 53.5 110.5 c 128,-1,4
 23 158 23 158 23 219 c 0,5,6
 23 345 23 345 111 415 c 128,-1,7
 199 485 199 485 328 485 c 0,8,9
 364 485 364 485 434 481 c 1,10,11
 424 403 424 403 424 365 c 0,12,13
 424 309 424 309 430 268 c 128,-1,14
 436 227 436 227 452 190 c 128,-1,15
 468 153 468 153 500 134 c 128,-1,16
 532 115 532 115 580 115 c 0,17,18
 649 115 649 115 687 151 c 128,-1,19
 725 187 725 187 725 254 c 0,20,21
 725 310 725 310 701.5 354 c 128,-1,22
 678 398 678 398 638.5 427.5 c 128,-1,23
 599 457 599 457 548 481.5 c 128,-1,24
 497 506 497 506 440.5 528 c 128,-1,25
 384 550 384 550 327.5 573.5 c 128,-1,26
 271 597 271 597 220 629.5 c 128,-1,27
 169 662 169 662 129.5 703 c 128,-1,28
 90 744 90 744 66.5 805 c 128,-1,29
 43 866 43 866 43 942 c 0,30,31
 43 1051 43 1051 97 1139 c 128,-1,32
 151 1227 151 1227 240 1281 c 128,-1,33
 329 1335 329 1335 437.5 1364 c 128,-1,34
 546 1393 546 1393 662 1393 c 0,35,36
 724 1393 724 1393 786.5 1386.5 c 128,-1,37
 849 1380 849 1380 916.5 1363 c 128,-1,38
 984 1346 984 1346 1035.5 1320 c 128,-1,39
 1087 1294 1087 1294 1120 1250.5 c 128,-1,40
 1153 1207 1153 1207 1153 1153 c 0,41,42
 1153 1089 1153 1089 1128.5 1042.5 c 128,-1,43
 1104 996 1104 996 1060.5 969.5 c 128,-1,44
 1017 943 1017 943 964.5 930.5 c 128,-1,45
 912 918 912 918 848 918 c 0,46,47
 815 918 815 918 741 922 c 1,48,49
 752 1019 752 1019 752 1071 c 0,50,51
 752 1233 752 1233 627 1233 c 0,52,53
 574 1233 574 1233 543 1198 c 128,-1,54
 512 1163 512 1163 512 1108 c 0,55,56
 512 1052 512 1052 535.5 1008 c 128,-1,57
 559 964 559 964 598.5 934.5 c 128,-1,58
 638 905 638 905 689 880.5 c 128,-1,59
 740 856 740 856 796.5 834 c 128,-1,60
 853 812 853 812 909.5 788.5 c 128,-1,61
 966 765 966 765 1017 732.5 c 128,-1,62
 1068 700 1068 700 1107.5 659 c 128,-1,63
 1147 618 1147 618 1170.5 557 c 128,-1,64
 1194 496 1194 496 1194 420 c 0,65,66
 1194 321 1194 321 1162 243 c 128,-1,67
 1130 165 1130 165 1075 112.5 c 128,-1,68
 1020 60 1020 60 941 25 c 128,-1,69
 862 -10 862 -10 773 -26.5 c 128,-1,70
 684 -43 684 -43 580 -45 c 1,71,-1
 555 -109 l 1,72,73
 674 -111 674 -111 744.5 -160 c 128,-1,74
 815 -209 815 -209 815 -315 c 0,75,76
 815 -385 815 -385 767 -436.5 c 128,-1,77
 719 -488 719 -488 649.5 -511.5 c 128,-1,78
 580 -535 580 -535 502 -535 c 0,79,80
 466 -535 466 -535 431.5 -530 c 128,-1,81
 397 -525 397 -525 357.5 -512.5 c 128,-1,82
 318 -500 318 -500 294 -471.5 c 128,-1,83
 270 -443 270 -443 270 -403 c 0,84,85
 270 -338 270 -338 297 -299 c 1,86,87
 343 -369 343 -369 449 -369 c 0,88,89
 477 -369 477 -369 496.5 -350.5 c 128,-1,90
 516 -332 516 -332 516 -297 c 0,91,92
 516 -257 516 -257 482 -240 c 128,-1,93
 448 -223 448 -223 401 -223 c 0,94,95
 376 -223 376 -223 322 -227 c 1,96,-1
 391 -37 l 1,0,1
EndSplineSet
Validated: 8388609
Substitution2: "'locl' Localized Forms in Latin lookup 12 subtable" Scommaaccent
Substitution2: "'locl' Localized Forms in Latin lookup 11 subtable" Scommaaccent
Substitution2: "'aalt' Access All Alternates lookup 0 subtable" Scommaaccent
Position2: "'cpsp' Capital Spacing lookup 3 subtable" dx=10 dy=0 dh=20 dv=0
EndChar

StartChar: Scircumflex
Encoding: 348 348 112
Width: 1222
Flags: MW
HStem: -45 160<513 626 513 720> 1233 160<591 674>
VStem: 23 401<297 307> 43 469<933 1093> 725 469<245 429> 752 401<1065 1116>
LayerCount: 2
UndoRedoHistory
Layer: 1
Undoes
EndUndoes
Redoes
EndRedoes
EndUndoRedoHistory
Fore
SplineSet
662 1393 m 0,0,1
 724 1393 724 1393 786.5 1386.5 c 128,-1,2
 849 1380 849 1380 916.5 1363 c 128,-1,3
 984 1346 984 1346 1035.5 1320 c 128,-1,4
 1087 1294 1087 1294 1120 1250.5 c 128,-1,5
 1153 1207 1153 1207 1153 1153 c 0,6,7
 1153 1089 1153 1089 1128.5 1042.5 c 128,-1,8
 1104 996 1104 996 1060.5 969.5 c 128,-1,9
 1017 943 1017 943 964.5 930.5 c 128,-1,10
 912 918 912 918 848 918 c 0,11,12
 815 918 815 918 741 922 c 1,13,14
 752 1019 752 1019 752 1071 c 0,15,16
 752 1233 752 1233 627 1233 c 0,17,18
 574 1233 574 1233 543 1198 c 128,-1,19
 512 1163 512 1163 512 1108 c 0,20,21
 512 1052 512 1052 535.5 1008 c 128,-1,22
 559 964 559 964 598.5 934.5 c 128,-1,23
 638 905 638 905 689 880.5 c 128,-1,24
 740 856 740 856 796.5 834 c 128,-1,25
 853 812 853 812 909.5 788.5 c 128,-1,26
 966 765 966 765 1017 732.5 c 128,-1,27
 1068 700 1068 700 1107.5 659 c 128,-1,28
 1147 618 1147 618 1170.5 557 c 128,-1,29
 1194 496 1194 496 1194 420 c 0,30,31
 1194 318 1194 318 1159.5 237.5 c 128,-1,32
 1125 157 1125 157 1066.5 104.5 c 128,-1,33
 1008 52 1008 52 924.5 18 c 128,-1,34
 841 -16 841 -16 747.5 -30.5 c 128,-1,35
 654 -45 654 -45 545 -45 c 0,36,37
 472 -45 472 -45 405.5 -39 c 128,-1,38
 339 -33 339 -33 267 -15 c 128,-1,39
 195 3 195 3 143 31 c 128,-1,40
 91 59 91 59 57 107.5 c 128,-1,41
 23 156 23 156 23 219 c 0,42,43
 23 345 23 345 111 415 c 128,-1,44
 199 485 199 485 328 485 c 0,45,46
 364 485 364 485 434 481 c 1,47,48
 424 403 424 403 424 365 c 0,49,50
 424 309 424 309 430 268 c 128,-1,51
 436 227 436 227 452 190 c 128,-1,52
 468 153 468 153 500 134 c 128,-1,53
 532 115 532 115 580 115 c 0,54,55
 649 115 649 115 687 151 c 128,-1,56
 725 187 725 187 725 254 c 0,57,58
 725 310 725 310 701.5 354 c 128,-1,59
 678 398 678 398 638.5 427.5 c 128,-1,60
 599 457 599 457 548 481.5 c 128,-1,61
 497 506 497 506 440.5 528 c 128,-1,62
 384 550 384 550 327.5 573.5 c 128,-1,63
 271 597 271 597 220 629.5 c 128,-1,64
 169 662 169 662 129.5 703 c 128,-1,65
 90 744 90 744 66.5 805 c 128,-1,66
 43 866 43 866 43 942 c 0,67,68
 43 1051 43 1051 97 1139 c 128,-1,69
 151 1227 151 1227 240 1281 c 128,-1,70
 329 1335 329 1335 437.5 1364 c 128,-1,71
 546 1393 546 1393 662 1393 c 0,0,1
250 1528 m 1,72,-1
 588 1757 l 1,73,-1
 676 1757 l 1,74,-1
 1020 1528 l 1,75,-1
 930 1421 l 1,76,-1
 635 1487 l 1,77,-1
 342 1421 l 1,78,-1
 250 1528 l 1,72,-1
EndSplineSet
Validated: 8388609
Position2: "'cpsp' Capital Spacing lookup 3 subtable" dx=10 dy=0 dh=20 dv=0
EndChar

StartChar: Scommaaccent
Encoding: 536 536 113
Width: 1222
Flags: MW
HStem: -45 160<513 626 513 720> 1233 160<591 674>
VStem: 23 401<297 307> 43 469<933 1093> 377 317<-353 -297> 725 469<245 429> 752 401<1065 1116>
LayerCount: 2
UndoRedoHistory
Layer: 1
Undoes
EndUndoes
Redoes
EndRedoes
EndUndoRedoHistory
Fore
SplineSet
477 -106 m 0,0,1
 593 -106 593 -106 643.5 -146 c 128,-1,2
 694 -186 694 -186 694 -279 c 0,3,4
 694 -392 694 -392 601.5 -471.5 c 128,-1,5
 509 -551 509 -551 373 -551 c 0,6,7
 360 -551 360 -551 285 -545 c 1,8,9
 377 -435 377 -435 377 -330 c 128,-1,10
 377 -225 377 -225 326 -139 c 1,11,12
 343 -126 343 -126 389 -116 c 128,-1,13
 435 -106 435 -106 477 -106 c 0,0,1
662 1393 m 0,14,15
 724 1393 724 1393 786.5 1386.5 c 128,-1,16
 849 1380 849 1380 916.5 1363 c 128,-1,17
 984 1346 984 1346 1035.5 1320 c 128,-1,18
 1087 1294 1087 1294 1120 1250.5 c 128,-1,19
 1153 1207 1153 1207 1153 1153 c 0,20,21
 1153 1089 1153 1089 1128.5 1042.5 c 128,-1,22
 1104 996 1104 996 1060.5 969.5 c 128,-1,23
 1017 943 1017 943 964.5 930.5 c 128,-1,24
 912 918 912 918 848 918 c 0,25,26
 815 918 815 918 741 922 c 1,27,28
 752 1019 752 1019 752 1071 c 0,29,30
 752 1233 752 1233 627 1233 c 0,31,32
 574 1233 574 1233 543 1198 c 128,-1,33
 512 1163 512 1163 512 1108 c 0,34,35
 512 1052 512 1052 535.5 1008 c 128,-1,36
 559 964 559 964 598.5 934.5 c 128,-1,37
 638 905 638 905 689 880.5 c 128,-1,38
 740 856 740 856 796.5 834 c 128,-1,39
 853 812 853 812 909.5 788.5 c 128,-1,40
 966 765 966 765 1017 732.5 c 128,-1,41
 1068 700 1068 700 1107.5 659 c 128,-1,42
 1147 618 1147 618 1170.5 557 c 128,-1,43
 1194 496 1194 496 1194 420 c 0,44,45
 1194 318 1194 318 1159.5 237.5 c 128,-1,46
 1125 157 1125 157 1066.5 104.5 c 128,-1,47
 1008 52 1008 52 924.5 18 c 128,-1,48
 841 -16 841 -16 747.5 -30.5 c 128,-1,49
 654 -45 654 -45 545 -45 c 0,50,51
 472 -45 472 -45 405.5 -39 c 128,-1,52
 339 -33 339 -33 267 -15 c 128,-1,53
 195 3 195 3 143 31 c 128,-1,54
 91 59 91 59 57 107.5 c 128,-1,55
 23 156 23 156 23 219 c 0,56,57
 23 345 23 345 111 415 c 128,-1,58
 199 485 199 485 328 485 c 0,59,60
 364 485 364 485 434 481 c 1,61,62
 424 403 424 403 424 365 c 0,63,64
 424 309 424 309 430 268 c 128,-1,65
 436 227 436 227 452 190 c 128,-1,66
 468 153 468 153 500 134 c 128,-1,67
 532 115 532 115 580 115 c 0,68,69
 649 115 649 115 687 151 c 128,-1,70
 725 187 725 187 725 254 c 0,71,72
 725 310 725 310 701.5 354 c 128,-1,73
 678 398 678 398 638.5 427.5 c 128,-1,74
 599 457 599 457 548 481.5 c 128,-1,75
 497 506 497 506 440.5 528 c 128,-1,76
 384 550 384 550 327.5 573.5 c 128,-1,77
 271 597 271 597 220 629.5 c 128,-1,78
 169 662 169 662 129.5 703 c 128,-1,79
 90 744 90 744 66.5 805 c 128,-1,80
 43 866 43 866 43 942 c 0,81,82
 43 1051 43 1051 97 1139 c 128,-1,83
 151 1227 151 1227 240 1281 c 128,-1,84
 329 1335 329 1335 437.5 1364 c 128,-1,85
 546 1393 546 1393 662 1393 c 0,14,15
EndSplineSet
Validated: 8388609
Position2: "'cpsp' Capital Spacing lookup 3 subtable" dx=10 dy=0 dh=20 dv=0
EndChar

StartChar: Sdotbelow
Encoding: 7778 7778 114
Width: 1222
Flags: MW
HStem: -414 348<475 608> -45 160<513 626 513 720> 1233 160<591 674>
VStem: 23 401<297 307> 43 469<933 1093> 725 469<245 429> 752 401<1065 1116>
LayerCount: 2
UndoRedoHistory
Layer: 1
Undoes
EndUndoes
Redoes
EndRedoes
EndUndoRedoHistory
Fore
SplineSet
547 -66 m 0,0,1
 653 -66 653 -66 718.5 -113 c 128,-1,2
 784 -160 784 -160 784 -242 c 128,-1,3
 784 -324 784 -324 716 -369 c 128,-1,4
 648 -414 648 -414 537 -414 c 0,5,6
 428 -414 428 -414 360.5 -370 c 128,-1,7
 293 -326 293 -326 293 -246 c 0,8,9
 293 -164 293 -164 365 -115 c 128,-1,10
 437 -66 437 -66 547 -66 c 0,0,1
662 1393 m 0,11,12
 724 1393 724 1393 786.5 1386.5 c 128,-1,13
 849 1380 849 1380 916.5 1363 c 128,-1,14
 984 1346 984 1346 1035.5 1320 c 128,-1,15
 1087 1294 1087 1294 1120 1250.5 c 128,-1,16
 1153 1207 1153 1207 1153 1153 c 0,17,18
 1153 1089 1153 1089 1128.5 1042.5 c 128,-1,19
 1104 996 1104 996 1060.5 969.5 c 128,-1,20
 1017 943 1017 943 964.5 930.5 c 128,-1,21
 912 918 912 918 848 918 c 0,22,23
 815 918 815 918 741 922 c 1,24,25
 752 1019 752 1019 752 1071 c 0,26,27
 752 1233 752 1233 627 1233 c 0,28,29
 574 1233 574 1233 543 1198 c 128,-1,30
 512 1163 512 1163 512 1108 c 0,31,32
 512 1052 512 1052 535.5 1008 c 128,-1,33
 559 964 559 964 598.5 934.5 c 128,-1,34
 638 905 638 905 689 880.5 c 128,-1,35
 740 856 740 856 796.5 834 c 128,-1,36
 853 812 853 812 909.5 788.5 c 128,-1,37
 966 765 966 765 1017 732.5 c 128,-1,38
 1068 700 1068 700 1107.5 659 c 128,-1,39
 1147 618 1147 618 1170.5 557 c 128,-1,40
 1194 496 1194 496 1194 420 c 0,41,42
 1194 318 1194 318 1159.5 237.5 c 128,-1,43
 1125 157 1125 157 1066.5 104.5 c 128,-1,44
 1008 52 1008 52 924.5 18 c 128,-1,45
 841 -16 841 -16 747.5 -30.5 c 128,-1,46
 654 -45 654 -45 545 -45 c 0,47,48
 472 -45 472 -45 405.5 -39 c 128,-1,49
 339 -33 339 -33 267 -15 c 128,-1,50
 195 3 195 3 143 31 c 128,-1,51
 91 59 91 59 57 107.5 c 128,-1,52
 23 156 23 156 23 219 c 0,53,54
 23 345 23 345 111 415 c 128,-1,55
 199 485 199 485 328 485 c 0,56,57
 364 485 364 485 434 481 c 1,58,59
 424 403 424 403 424 365 c 0,60,61
 424 309 424 309 430 268 c 128,-1,62
 436 227 436 227 452 190 c 128,-1,63
 468 153 468 153 500 134 c 128,-1,64
 532 115 532 115 580 115 c 0,65,66
 649 115 649 115 687 151 c 128,-1,67
 725 187 725 187 725 254 c 0,68,69
 725 310 725 310 701.5 354 c 128,-1,70
 678 398 678 398 638.5 427.5 c 128,-1,71
 599 457 599 457 548 481.5 c 128,-1,72
 497 506 497 506 440.5 528 c 128,-1,73
 384 550 384 550 327.5 573.5 c 128,-1,74
 271 597 271 597 220 629.5 c 128,-1,75
 169 662 169 662 129.5 703 c 128,-1,76
 90 744 90 744 66.5 805 c 128,-1,77
 43 866 43 866 43 942 c 0,78,79
 43 1051 43 1051 97 1139 c 128,-1,80
 151 1227 151 1227 240 1281 c 128,-1,81
 329 1335 329 1335 437.5 1364 c 128,-1,82
 546 1393 546 1393 662 1393 c 0,11,12
EndSplineSet
Validated: 8388609
Position2: "'cpsp' Capital Spacing lookup 3 subtable" dx=10 dy=0 dh=20 dv=0
EndChar

StartChar: uni1E9E
Encoding: 7838 7838 115
Width: 1671
Flags: MW
HStem: -45 106<1089 1147 1089 1244> 0 309<72 951> 1233 160<776 926>
VStem: 72 549<0 645 645 645> 672 373<163 206> 774 401<821 879> 1200 432<161 273>
LayerCount: 2
UndoRedoHistory
Layer: 1
Undoes
EndUndoes
Redoes
EndRedoes
EndUndoRedoHistory
Fore
SplineSet
72 645 m 1,0,1
 73 1029 73 1029 270 1211 c 128,-1,2
 467 1393 467 1393 860 1393 c 0,3,4
 1067 1393 1067 1393 1216.5 1336 c 128,-1,5
 1366 1279 1366 1279 1468 1133 c 1,6,7
 1396 1128 1396 1128 1333 1106.5 c 128,-1,8
 1270 1085 1270 1085 1223 1039 c 128,-1,9
 1176 993 1176 993 1176 930 c 0,10,11
 1176 886 1176 886 1201 840.5 c 128,-1,12
 1226 795 1226 795 1266.5 754.5 c 128,-1,13
 1307 714 1307 714 1355.5 672.5 c 128,-1,14
 1404 631 1404 631 1452.5 587 c 128,-1,15
 1501 543 1501 543 1541.5 498.5 c 128,-1,16
 1582 454 1582 454 1607 401.5 c 128,-1,17
 1632 349 1632 349 1632 295 c 0,18,19
 1632 217 1632 217 1603 157 c 128,-1,20
 1574 97 1574 97 1526 59.5 c 128,-1,21
 1478 22 1478 22 1409 -2 c 128,-1,22
 1340 -26 1340 -26 1267.5 -35.5 c 128,-1,23
 1195 -45 1195 -45 1110 -45 c 0,24,25
 1052 -45 1052 -45 1000.5 -41.5 c 128,-1,26
 949 -38 949 -38 886 -26.5 c 128,-1,27
 823 -15 823 -15 778 4.5 c 128,-1,28
 733 24 733 24 702.5 59 c 128,-1,29
 672 94 672 94 672 141 c 0,30,31
 672 187 672 187 695 221 c 128,-1,32
 718 255 718 255 757.5 273.5 c 128,-1,33
 797 292 797 292 842.5 300.5 c 128,-1,34
 888 309 888 309 940 309 c 0,35,36
 1024 309 1024 309 1049 299 c 1,37,38
 1049 282 1049 282 1046.5 248 c 128,-1,39
 1044 214 1044 214 1044 197 c 0,40,41
 1044 135 1044 135 1060 98 c 128,-1,42
 1076 61 1076 61 1122 61 c 0,43,44
 1157 61 1157 61 1178.5 91 c 128,-1,45
 1200 121 1200 121 1200 160 c 0,46,47
 1200 222 1200 222 1156 288 c 128,-1,48
 1112 354 1112 354 1049.5 412 c 128,-1,49
 987 470 987 470 924.5 528 c 128,-1,50
 862 586 862 586 818 653 c 128,-1,51
 774 720 774 720 774 784 c 0,52,53
 774 851 774 851 801 909.5 c 128,-1,54
 828 968 828 968 875.5 1010 c 128,-1,55
 923 1052 923 1052 975.5 1082 c 128,-1,56
 1028 1112 1028 1112 1090 1133 c 1,57,58
 1003 1233 1003 1233 870 1233 c 0,59,60
 775 1233 775 1233 722 1180 c 128,-1,61
 669 1127 669 1127 646 1010 c 128,-1,62
 623 893 623 893 621 680 c 1,63,-1
 621 0 l 1,64,-1
 72 0 l 1,65,-1
 72 645 l 1,0,1
EndSplineSet
Validated: 8388609
Position2: "'cpsp' Capital Spacing lookup 3 subtable" dx=10 dy=0 dh=20 dv=0
EndChar

StartChar: Schwa
Encoding: 399 399 116
Width: 1411
Flags: MW
HStem: -45 160<614 728 614 865> 618 123 1057 342<475 594>
VStem: 25 481<275 426 275 507> 807 578<540 618>
LayerCount: 2
UndoRedoHistory
Layer: 1
Undoes
EndUndoes
Redoes
EndRedoes
EndUndoRedoHistory
Fore
SplineSet
655 115 m 0,0,1
 807 115 807 115 807 618 c 1,2,3
 658 609 658 609 582 540.5 c 128,-1,4
 506 472 506 472 506 324 c 0,5,6
 506 249 506 249 551 182 c 128,-1,7
 596 115 596 115 655 115 c 0,0,1
608 1399 m 0,8,9
 974 1399 974 1399 1179 1205.5 c 128,-1,10
 1384 1012 1384 1012 1384 655 c 0,11,12
 1384 291 1384 291 1191 123 c 128,-1,13
 998 -45 998 -45 621 -45 c 0,14,15
 536 -45 536 -45 456 -34.5 c 128,-1,16
 376 -24 376 -24 296 3.5 c 128,-1,17
 216 31 216 31 157 72 c 128,-1,18
 98 113 98 113 61.5 179.5 c 128,-1,19
 25 246 25 246 25 330 c 0,20,21
 25 433 25 433 55.5 508 c 128,-1,22
 86 583 86 583 136.5 627.5 c 128,-1,23
 187 672 187 672 267 698 c 128,-1,24
 347 724 347 724 429 732.5 c 128,-1,25
 511 741 511 741 623 741 c 0,26,27
 739 741 739 741 805 733 c 1,28,29
 792 878 792 878 714.5 967.5 c 128,-1,30
 637 1057 637 1057 496 1057 c 0,31,32
 397 1057 397 1057 298 1001 c 128,-1,33
 199 945 199 945 154 858 c 1,34,35
 117 875 117 875 92.5 922.5 c 128,-1,36
 68 970 68 970 68 1016 c 0,37,38
 68 1114 68 1114 114.5 1190 c 128,-1,39
 161 1266 161 1266 239 1310 c 128,-1,40
 317 1354 317 1354 410.5 1376.5 c 128,-1,41
 504 1399 504 1399 608 1399 c 0,8,9
EndSplineSet
Validated: 1
Position2: "'cpsp' Capital Spacing lookup 3 subtable" dx=10 dy=0 dh=20 dv=0
EndChar

StartChar: T
Encoding: 84 84 117
Width: 1146
Flags: MW
HStem: 1169 182<39 303 39 1110 844 1094 844 844>
VStem: 303 541<0 1169 0 1169>
LayerCount: 2
UndoRedoHistory
Layer: 1
Undoes
EndUndoes
Redoes
EndRedoes
EndUndoRedoHistory
Fore
SplineSet
1094 1169 m 1,0,-1
 844 1169 l 1,1,-1
 844 0 l 1,2,-1
 303 0 l 1,3,-1
 303 1169 l 1,4,-1
 39 1169 l 1,5,-1
 39 1352 l 1,6,-1
 1110 1352 l 1,7,-1
 1094 1169 l 1,0,-1
EndSplineSet
Validated: 1
Position2: "'cpsp' Capital Spacing lookup 3 subtable" dx=10 dy=0 dh=20 dv=0
EndChar

StartChar: Tbar
Encoding: 358 358 118
Width: 1146
Flags: MW
HStem: 565 211<190 303 190 303 37 303 844 942> 1169 182<39 303 39 1110 844 844 844 1094>
VStem: 303 541<0 565 0 565 776 1169>
LayerCount: 2
UndoRedoHistory
Layer: 1
Undoes
EndUndoes
Redoes
EndRedoes
EndUndoRedoHistory
Fore
SplineSet
1094 776 m 1,0,1
 1096 767 1096 767 1096 721 c 0,2,3
 1096 643 1096 643 1054 604 c 128,-1,4
 1012 565 1012 565 942 565 c 2,5,-1
 844 565 l 1,6,-1
 844 0 l 1,7,-1
 303 0 l 1,8,-1
 303 565 l 1,9,-1
 37 565 l 1,10,11
 33 577 33 577 33 623 c 0,12,13
 33 700 33 700 75 738 c 128,-1,14
 117 776 117 776 190 776 c 2,15,-1
 303 776 l 1,16,-1
 303 1169 l 1,17,-1
 39 1169 l 1,18,-1
 39 1352 l 1,19,-1
 1110 1352 l 1,20,-1
 1094 1169 l 1,21,-1
 844 1169 l 1,22,-1
 844 776 l 1,23,-1
 1094 776 l 1,0,1
EndSplineSet
Validated: 1
Position2: "'cpsp' Capital Spacing lookup 3 subtable" dx=10 dy=0 dh=20 dv=0
EndChar

StartChar: Tcaron
Encoding: 356 356 119
Width: 1146
Flags: MW
HStem: 1169 182<39 303 39 1110 844 1094 844 844>
VStem: 303 541<0 1169 0 1169>
LayerCount: 2
UndoRedoHistory
Layer: 1
Undoes
EndUndoes
Redoes
EndRedoes
EndUndoRedoHistory
Fore
SplineSet
844 1169 m 1,0,-1
 844 0 l 1,1,-1
 303 0 l 1,2,-1
 303 1169 l 1,3,-1
 39 1169 l 1,4,-1
 39 1352 l 1,5,-1
 1110 1352 l 1,6,-1
 1094 1169 l 1,7,-1
 844 1169 l 1,0,-1
981 1663 m 1,8,-1
 684 1413 l 1,9,-1
 473 1413 l 1,10,-1
 170 1663 l 1,11,-1
 260 1769 l 1,12,-1
 575 1663 l 1,13,-1
 889 1769 l 1,14,-1
 981 1663 l 1,8,-1
EndSplineSet
Validated: 1
Position2: "'cpsp' Capital Spacing lookup 3 subtable" dx=10 dy=0 dh=20 dv=0
EndChar

StartChar: Tcedilla
Encoding: 354 354 120
Width: 1146
Flags: MW
HStem: -535 166<502 505 444 615> -223 115 1169 182<39 303 39 1110 844 844 844 1094>
VStem: 303 541<0 1169 0 1169> 555 299<-322 -267>
LayerCount: 2
UndoRedoHistory
Layer: 1
Undoes
EndUndoes
Redoes
EndRedoes
EndUndoRedoHistory
Fore
SplineSet
637 0 m 1,0,-1
 594 -109 l 1,1,2
 713 -111 713 -111 783.5 -160 c 128,-1,3
 854 -209 854 -209 854 -315 c 0,4,5
 854 -385 854 -385 806 -436.5 c 128,-1,6
 758 -488 758 -488 688.5 -511.5 c 128,-1,7
 619 -535 619 -535 541 -535 c 0,8,9
 505 -535 505 -535 470.5 -530 c 128,-1,10
 436 -525 436 -525 396.5 -512.5 c 128,-1,11
 357 -500 357 -500 333 -471.5 c 128,-1,12
 309 -443 309 -443 309 -403 c 0,13,14
 309 -338 309 -338 336 -299 c 1,15,16
 359 -333 359 -333 393 -351 c 128,-1,17
 427 -369 427 -369 487 -369 c 0,18,19
 515 -369 515 -369 535 -350.5 c 128,-1,20
 555 -332 555 -332 555 -297 c 0,21,22
 555 -257 555 -257 521 -240 c 128,-1,23
 487 -223 487 -223 440 -223 c 0,24,25
 414 -223 414 -223 360 -227 c 1,26,-1
 442 0 l 1,27,-1
 303 0 l 1,28,-1
 303 1169 l 1,29,-1
 39 1169 l 1,30,-1
 39 1352 l 1,31,-1
 1110 1352 l 1,32,-1
 1094 1169 l 1,33,-1
 844 1169 l 1,34,-1
 844 0 l 1,35,-1
 637 0 l 1,0,-1
EndSplineSet
Validated: 8388609
Substitution2: "'locl' Localized Forms in Latin lookup 12 subtable" uni021A
Substitution2: "'locl' Localized Forms in Latin lookup 11 subtable" uni021A
Substitution2: "'aalt' Access All Alternates lookup 0 subtable" uni021A
Position2: "'cpsp' Capital Spacing lookup 3 subtable" dx=10 dy=0 dh=20 dv=0
EndChar

StartChar: uni021A
Encoding: 538 538 121
Width: 1146
Flags: MW
HStem: 1169 182<39 303 39 1110 844 1094 844 844>
VStem: 303 541<0 1169 0 1169> 416 317<-353 -297>
LayerCount: 2
UndoRedoHistory
Layer: 1
Undoes
EndUndoes
Redoes
EndRedoes
EndUndoRedoHistory
Fore
SplineSet
516 -106 m 0,0,1
 632 -106 632 -106 682.5 -146 c 128,-1,2
 733 -186 733 -186 733 -279 c 0,3,4
 733 -392 733 -392 640.5 -471.5 c 128,-1,5
 548 -551 548 -551 412 -551 c 0,6,7
 399 -551 399 -551 324 -545 c 1,8,9
 416 -435 416 -435 416 -330 c 128,-1,10
 416 -225 416 -225 365 -139 c 1,11,12
 382 -126 382 -126 428 -116 c 128,-1,13
 474 -106 474 -106 516 -106 c 0,0,1
844 1169 m 1,14,-1
 844 0 l 1,15,-1
 303 0 l 1,16,-1
 303 1169 l 1,17,-1
 39 1169 l 1,18,-1
 39 1352 l 1,19,-1
 1110 1352 l 1,20,-1
 1094 1169 l 1,21,-1
 844 1169 l 1,14,-1
EndSplineSet
Validated: 8388609
Position2: "'cpsp' Capital Spacing lookup 3 subtable" dx=10 dy=0 dh=20 dv=0
EndChar

StartChar: Tdotbelow
Encoding: 7788 7788 122
Width: 1146
Flags: MW
HStem: -414 348<514 647> 1169 182<39 303 39 1110 844 1094 844 844>
VStem: 303 541<0 1169 0 1169>
LayerCount: 2
UndoRedoHistory
Layer: 1
Undoes
EndUndoes
Redoes
EndRedoes
EndUndoRedoHistory
Fore
SplineSet
586 -66 m 0,0,1
 692 -66 692 -66 757.5 -113 c 128,-1,2
 823 -160 823 -160 823 -242 c 128,-1,3
 823 -324 823 -324 754.5 -369 c 128,-1,4
 686 -414 686 -414 575 -414 c 0,5,6
 466 -414 466 -414 399 -370 c 128,-1,7
 332 -326 332 -326 332 -246 c 0,8,9
 332 -164 332 -164 404 -115 c 128,-1,10
 476 -66 476 -66 586 -66 c 0,0,1
844 1169 m 1,11,-1
 844 0 l 1,12,-1
 303 0 l 1,13,-1
 303 1169 l 1,14,-1
 39 1169 l 1,15,-1
 39 1352 l 1,16,-1
 1110 1352 l 1,17,-1
 1094 1169 l 1,18,-1
 844 1169 l 1,11,-1
EndSplineSet
Validated: 1
Position2: "'cpsp' Capital Spacing lookup 3 subtable" dx=10 dy=0 dh=20 dv=0
EndChar

StartChar: U
Encoding: 85 85 123
Width: 1316
Flags: MW
HStem: -45 188<692 799 692 890> 1311 41G<72 612 612 612 883 1245 1245 1245>
VStem: 72 541<494 516 516 1352> 883 362<539 561 561 1352>
LayerCount: 2
UndoRedoHistory
Layer: 1
Undoes
EndUndoes
Redoes
EndRedoes
EndUndoRedoHistory
Fore
SplineSet
1245 561 m 2,0,1
 1245 254 1245 254 1114 104.5 c 128,-1,2
 983 -45 983 -45 688 -45 c 0,3,4
 384 -45 384 -45 228 83 c 128,-1,5
 72 211 72 211 72 494 c 2,6,-1
 72 1352 l 1,7,-1
 612 1352 l 1,8,-1
 612 516 l 2,9,10
 612 306 612 306 639.5 224.5 c 128,-1,11
 667 143 667 143 745 143 c 0,12,13
 825 143 825 143 854 226.5 c 128,-1,14
 883 310 883 310 883 539 c 2,15,-1
 883 1352 l 1,16,-1
 1245 1352 l 1,17,-1
 1245 561 l 2,0,1
EndSplineSet
Validated: 1
Position2: "'cpsp' Capital Spacing lookup 3 subtable" dx=10 dy=0 dh=20 dv=0
EndChar

StartChar: Uacute
Encoding: 218 218 124
Width: 1316
Flags: MW
HStem: -45 188<692 799 692 890> 1311 41G<72 612 612 612 883 1245 1245 1245>
VStem: 72 541<494 516 516 1352> 883 362<539 561 561 1352>
LayerCount: 2
UndoRedoHistory
Layer: 1
Undoes
EndUndoes
Redoes
EndRedoes
EndUndoRedoHistory
Fore
SplineSet
1245 561 m 2,0,1
 1245 254 1245 254 1114 104.5 c 128,-1,2
 983 -45 983 -45 688 -45 c 0,3,4
 384 -45 384 -45 228 83 c 128,-1,5
 72 211 72 211 72 494 c 2,6,-1
 72 1352 l 1,7,-1
 612 1352 l 1,8,-1
 612 516 l 2,9,10
 612 306 612 306 639.5 224.5 c 128,-1,11
 667 143 667 143 745 143 c 0,12,13
 825 143 825 143 854 226.5 c 128,-1,14
 883 310 883 310 883 539 c 2,15,-1
 883 1352 l 1,16,-1
 1245 1352 l 1,17,-1
 1245 561 l 2,0,1
956 1790 m 1,18,19
 994 1758 994 1758 1020.5 1709 c 128,-1,20
 1047 1660 1047 1660 1047 1616 c 0,21,22
 1047 1579 1047 1579 1030 1552.5 c 128,-1,23
 1013 1526 1013 1526 988.5 1512 c 128,-1,24
 964 1498 964 1498 926.5 1489 c 128,-1,25
 889 1480 889 1480 858 1477 c 128,-1,26
 827 1474 827 1474 787 1471 c 0,27,28
 774 1470 774 1470 768 1470 c 2,29,-1
 442 1448 l 1,30,-1
 416 1563 l 1,31,-1
 956 1790 l 1,18,19
EndSplineSet
Validated: 1
Position2: "'cpsp' Capital Spacing lookup 3 subtable" dx=10 dy=0 dh=20 dv=0
EndChar

StartChar: Ubreve
Encoding: 364 364 125
Width: 1316
Flags: MW
HStem: -45 188<692 799 692 890> 1311 41G<72 612 612 612 883 1245 1245 1245> 1432 106<626 701 626 819>
VStem: 72 541<494 516 516 1352> 244 346<1656 1710 1656 1710> 737 344<1656 1710> 883 362<539 561 561 1352>
LayerCount: 2
UndoRedoHistory
Layer: 1
Undoes
EndUndoes
Redoes
EndRedoes
EndUndoRedoHistory
Fore
SplineSet
1245 561 m 2,0,1
 1245 254 1245 254 1114 104.5 c 128,-1,2
 983 -45 983 -45 688 -45 c 0,3,4
 384 -45 384 -45 228 83 c 128,-1,5
 72 211 72 211 72 494 c 2,6,-1
 72 1352 l 1,7,-1
 612 1352 l 1,8,-1
 612 516 l 2,9,10
 612 306 612 306 639.5 224.5 c 128,-1,11
 667 143 667 143 745 143 c 0,12,13
 825 143 825 143 854 226.5 c 128,-1,14
 883 310 883 310 883 539 c 2,15,-1
 883 1352 l 1,16,-1
 1245 1352 l 1,17,-1
 1245 561 l 2,0,1
1081 1710 m 1,18,19
 1081 1432 1081 1432 664 1432 c 0,20,21
 244 1432 244 1432 244 1710 c 1,22,-1
 590 1710 l 1,23,24
 590 1707 590 1707 590 1702 c 0,25,26
 590 1662 590 1662 590.5 1644 c 128,-1,27
 591 1626 591 1626 594.5 1600.5 c 128,-1,28
 598 1575 598 1575 606 1564.5 c 128,-1,29
 614 1554 614 1554 628 1546 c 128,-1,30
 642 1538 642 1538 664 1538 c 128,-1,31
 686 1538 686 1538 700 1546 c 128,-1,32
 714 1554 714 1554 721.5 1564 c 128,-1,33
 729 1574 729 1574 732.5 1599 c 128,-1,34
 736 1624 736 1624 736.5 1641.5 c 128,-1,35
 737 1659 737 1659 737 1698 c 0,36,37
 737 1706 737 1706 737 1710 c 1,38,-1
 1081 1710 l 1,18,19
EndSplineSet
Validated: 8388609
Position2: "'cpsp' Capital Spacing lookup 3 subtable" dx=10 dy=0 dh=20 dv=0
EndChar

StartChar: Ucircumflex
Encoding: 219 219 126
Width: 1316
Flags: MW
HStem: -45 188<692 799 692 890> 1311 41G<72 612 612 612 883 1245 1245 1245>
VStem: 72 541<494 516 516 1352> 883 362<539 561 561 1352>
LayerCount: 2
UndoRedoHistory
Layer: 1
Undoes
EndUndoes
Redoes
EndRedoes
EndUndoRedoHistory
Fore
SplineSet
1245 561 m 2,0,1
 1245 254 1245 254 1114 104.5 c 128,-1,2
 983 -45 983 -45 688 -45 c 0,3,4
 384 -45 384 -45 228 83 c 128,-1,5
 72 211 72 211 72 494 c 2,6,-1
 72 1352 l 1,7,-1
 612 1352 l 1,8,-1
 612 516 l 2,9,10
 612 306 612 306 639.5 224.5 c 128,-1,11
 667 143 667 143 745 143 c 0,12,13
 825 143 825 143 854 226.5 c 128,-1,14
 883 310 883 310 883 539 c 2,15,-1
 883 1352 l 1,16,-1
 1245 1352 l 1,17,-1
 1245 561 l 2,0,1
287 1526 m 1,18,-1
 625 1755 l 1,19,-1
 713 1755 l 1,20,-1
 1057 1526 l 1,21,-1
 967 1419 l 1,22,-1
 672 1485 l 1,23,-1
 379 1419 l 1,24,-1
 287 1526 l 1,18,-1
EndSplineSet
Validated: 1
Position2: "'cpsp' Capital Spacing lookup 3 subtable" dx=10 dy=0 dh=20 dv=0
EndChar

StartChar: Udieresis
Encoding: 220 220 127
Width: 1316
Flags: MW
HStem: -45 188<692 799 692 890> 1311 41G<72 612 612 612 883 1245 1245 1245> 1448 348<365 498 877 1010>
VStem: 72 541<494 516 516 1352> 883 362<539 561 561 1352>
LayerCount: 2
UndoRedoHistory
Layer: 1
Undoes
EndUndoes
Redoes
EndRedoes
EndUndoRedoHistory
Fore
SplineSet
1245 561 m 2,0,1
 1245 254 1245 254 1114 104.5 c 128,-1,2
 983 -45 983 -45 688 -45 c 0,3,4
 384 -45 384 -45 228 83 c 128,-1,5
 72 211 72 211 72 494 c 2,6,-1
 72 1352 l 1,7,-1
 612 1352 l 1,8,-1
 612 516 l 2,9,10
 612 306 612 306 639.5 224.5 c 128,-1,11
 667 143 667 143 745 143 c 0,12,13
 825 143 825 143 854 226.5 c 128,-1,14
 883 310 883 310 883 539 c 2,15,-1
 883 1352 l 1,16,-1
 1245 1352 l 1,17,-1
 1245 561 l 2,0,1
948 1796 m 0,18,19
 1054 1796 1054 1796 1120 1749 c 128,-1,20
 1186 1702 1186 1702 1186 1620 c 128,-1,21
 1186 1538 1186 1538 1117.5 1493 c 128,-1,22
 1049 1448 1049 1448 938 1448 c 0,23,24
 829 1448 829 1448 761.5 1492 c 128,-1,25
 694 1536 694 1536 694 1616 c 0,26,27
 694 1698 694 1698 766 1747 c 128,-1,28
 838 1796 838 1796 948 1796 c 0,18,19
436 1796 m 0,29,30
 542 1796 542 1796 608 1749 c 128,-1,31
 674 1702 674 1702 674 1620 c 128,-1,32
 674 1538 674 1538 605.5 1493 c 128,-1,33
 537 1448 537 1448 426 1448 c 0,34,35
 317 1448 317 1448 249.5 1492 c 128,-1,36
 182 1536 182 1536 182 1616 c 0,37,38
 182 1698 182 1698 254 1747 c 128,-1,39
 326 1796 326 1796 436 1796 c 0,29,30
EndSplineSet
Validated: 1
Position2: "'cpsp' Capital Spacing lookup 3 subtable" dx=10 dy=0 dh=20 dv=0
EndChar

StartChar: Udotbelow
Encoding: 7908 7908 128
Width: 1316
Flags: MW
HStem: -414 348<674 807> -45 188<692 799 692 890> 1311 41G<72 612 612 612 883 1245 1245 1245>
VStem: 72 541<494 516 516 1352> 883 362<539 561 561 1352>
LayerCount: 2
UndoRedoHistory
Layer: 1
Undoes
EndUndoes
Redoes
EndRedoes
EndUndoRedoHistory
Fore
SplineSet
745 -66 m 0,0,1
 851 -66 851 -66 917 -113 c 128,-1,2
 983 -160 983 -160 983 -242 c 128,-1,3
 983 -324 983 -324 914.5 -369 c 128,-1,4
 846 -414 846 -414 735 -414 c 0,5,6
 626 -414 626 -414 559 -370 c 128,-1,7
 492 -326 492 -326 492 -246 c 0,8,9
 492 -164 492 -164 563.5 -115 c 128,-1,10
 635 -66 635 -66 745 -66 c 0,0,1
1245 561 m 2,11,12
 1245 254 1245 254 1114 104.5 c 128,-1,13
 983 -45 983 -45 688 -45 c 0,14,15
 384 -45 384 -45 228 83 c 128,-1,16
 72 211 72 211 72 494 c 2,17,-1
 72 1352 l 1,18,-1
 612 1352 l 1,19,-1
 612 516 l 2,20,21
 612 306 612 306 639.5 224.5 c 128,-1,22
 667 143 667 143 745 143 c 0,23,24
 825 143 825 143 854 226.5 c 128,-1,25
 883 310 883 310 883 539 c 2,26,-1
 883 1352 l 1,27,-1
 1245 1352 l 1,28,-1
 1245 561 l 2,11,12
EndSplineSet
Validated: 1
Position2: "'cpsp' Capital Spacing lookup 3 subtable" dx=10 dy=0 dh=20 dv=0
EndChar

StartChar: Ugrave
Encoding: 217 217 129
Width: 1316
Flags: MW
HStem: -45 188<692 799 692 890> 1311 41G<72 612 612 612 883 1245 1245 1245>
VStem: 72 541<494 516 516 1352> 883 362<539 561 561 1352>
LayerCount: 2
UndoRedoHistory
Layer: 1
Undoes
EndUndoes
Redoes
EndRedoes
EndUndoRedoHistory
Fore
SplineSet
1245 561 m 2,0,1
 1245 254 1245 254 1114 104.5 c 128,-1,2
 983 -45 983 -45 688 -45 c 0,3,4
 384 -45 384 -45 228 83 c 128,-1,5
 72 211 72 211 72 494 c 2,6,-1
 72 1352 l 1,7,-1
 612 1352 l 1,8,-1
 612 516 l 2,9,10
 612 306 612 306 639.5 224.5 c 128,-1,11
 667 143 667 143 745 143 c 0,12,13
 825 143 825 143 854 226.5 c 128,-1,14
 883 310 883 310 883 539 c 2,15,-1
 883 1352 l 1,16,-1
 1245 1352 l 1,17,-1
 1245 561 l 2,0,1
559 1475 m 2,18,19
 434 1484 434 1484 391 1495 c 0,20,21
 281 1525 281 1525 281 1620 c 0,22,23
 281 1664 281 1664 306.5 1713 c 128,-1,24
 332 1762 332 1762 369 1794 c 1,25,-1
 911 1567 l 1,26,-1
 885 1452 l 1,27,-1
 559 1475 l 2,18,19
EndSplineSet
Validated: 1
Position2: "'cpsp' Capital Spacing lookup 3 subtable" dx=10 dy=0 dh=20 dv=0
EndChar

StartChar: Uhungarumlaut
Encoding: 368 368 130
Width: 1316
Flags: MW
HStem: -45 188<692 799 692 890> 1311 41G<72 612 612 612 883 1245 1245 1245>
VStem: 72 541<494 516 516 1352> 883 362<539 561 561 1352>
LayerCount: 2
UndoRedoHistory
Layer: 1
Undoes
EndUndoes
Redoes
EndRedoes
EndUndoRedoHistory
Fore
SplineSet
1245 561 m 2,0,1
 1245 254 1245 254 1114 104.5 c 128,-1,2
 983 -45 983 -45 688 -45 c 0,3,4
 384 -45 384 -45 228 83 c 128,-1,5
 72 211 72 211 72 494 c 2,6,-1
 72 1352 l 1,7,-1
 612 1352 l 1,8,-1
 612 516 l 2,9,10
 612 306 612 306 639.5 224.5 c 128,-1,11
 667 143 667 143 745 143 c 0,12,13
 825 143 825 143 854 226.5 c 128,-1,14
 883 310 883 310 883 539 c 2,15,-1
 883 1352 l 1,16,-1
 1245 1352 l 1,17,-1
 1245 561 l 2,0,1
1153 1780 m 1,18,19
 1247 1721 1247 1721 1247 1642 c 0,20,21
 1247 1566 1247 1566 1203 1521.5 c 128,-1,22
 1159 1477 1159 1477 1065 1464 c 2,23,-1
 834 1430 l 1,24,-1
 788 1556 l 1,25,-1
 1153 1780 l 1,18,19
702 1780 m 1,26,27
 797 1721 797 1721 797 1642 c 0,28,29
 797 1487 797 1487 614 1464 c 1,30,-1
 367 1430 l 1,31,-1
 322 1556 l 1,32,-1
 702 1780 l 1,26,27
EndSplineSet
Validated: 1
Position2: "'cpsp' Capital Spacing lookup 3 subtable" dx=10 dy=0 dh=20 dv=0
EndChar

StartChar: Umacron
Encoding: 362 362 131
Width: 1316
Flags: MW
HStem: -45 188<692 799 692 890> 1311 41G<72 612 612 612 883 1245 1245 1245> 1577 199<461 887 358 983>
VStem: 72 541<494 516 516 1352> 883 362<539 561 561 1352>
LayerCount: 2
UndoRedoHistory
Layer: 1
Undoes
EndUndoes
Redoes
EndRedoes
EndUndoRedoHistory
Fore
SplineSet
1245 561 m 2,0,1
 1245 254 1245 254 1114 104.5 c 128,-1,2
 983 -45 983 -45 688 -45 c 0,3,4
 384 -45 384 -45 228 83 c 128,-1,5
 72 211 72 211 72 494 c 2,6,-1
 72 1352 l 1,7,-1
 612 1352 l 1,8,-1
 612 516 l 2,9,10
 612 306 612 306 639.5 224.5 c 128,-1,11
 667 143 667 143 745 143 c 0,12,13
 825 143 825 143 854 226.5 c 128,-1,14
 883 310 883 310 883 539 c 2,15,-1
 883 1352 l 1,16,-1
 1245 1352 l 1,17,-1
 1245 561 l 2,0,1
983 1776 m 1,18,19
 1001 1750 1001 1750 1001 1696 c 0,20,21
 1001 1643 1001 1643 969 1610 c 128,-1,22
 937 1577 937 1577 887 1577 c 2,23,-1
 358 1577 l 1,24,25
 338 1606 338 1606 338 1661 c 0,26,27
 338 1712 338 1712 372 1744 c 128,-1,28
 406 1776 406 1776 461 1776 c 2,29,-1
 983 1776 l 1,18,19
EndSplineSet
Validated: 1
Position2: "'cpsp' Capital Spacing lookup 3 subtable" dx=10 dy=0 dh=20 dv=0
EndChar

StartChar: Uogonek
Encoding: 370 370 132
Width: 1316
Flags: MW
HStem: -561 209<749 937> -45 188<493 799 692 700> 1311 41G<72 612 612 612 883 1245 1245 1245>
VStem: 72 541<494 516 516 1352> 512 283<-295 -273> 883 362<539 561 561 1352>
LayerCount: 2
UndoRedoHistory
Layer: 1
Undoes
EndUndoes
Redoes
EndRedoes
EndUndoRedoHistory
Fore
SplineSet
1245 561 m 2,0,1
 1245 346 1245 346 1182.5 209.5 c 128,-1,2
 1120 73 1120 73 985 10 c 1,3,4
 795 -122 795 -122 795 -256 c 0,5,6
 795 -311 795 -311 825.5 -331.5 c 128,-1,7
 856 -352 856 -352 918 -352 c 0,8,9
 955 -352 955 -352 994.5 -338.5 c 128,-1,10
 1034 -325 1034 -325 1047 -297 c 1,11,12
 1112 -342 1112 -342 1112 -410 c 0,13,14
 1112 -449 1112 -449 1080.5 -480 c 128,-1,15
 1049 -511 1049 -511 1001.5 -527.5 c 128,-1,16
 954 -544 954 -544 907 -552.5 c 128,-1,17
 860 -561 860 -561 821 -561 c 0,18,19
 775 -561 775 -561 733 -555 c 128,-1,20
 691 -549 691 -549 650 -534 c 128,-1,21
 609 -519 609 -519 579 -496 c 128,-1,22
 549 -473 549 -473 530.5 -435.5 c 128,-1,23
 512 -398 512 -398 512 -350 c 0,24,25
 512 -145 512 -145 700 -45 c 1,26,-1
 688 -45 l 2,27,28
 384 -45 384 -45 228 83 c 128,-1,29
 72 211 72 211 72 494 c 2,30,-1
 72 1352 l 1,31,-1
 612 1352 l 1,32,-1
 612 516 l 2,33,34
 612 306 612 306 639.5 224.5 c 128,-1,35
 667 143 667 143 745 143 c 0,36,37
 825 143 825 143 854 226.5 c 128,-1,38
 883 310 883 310 883 539 c 2,39,-1
 883 1352 l 1,40,-1
 1245 1352 l 1,41,-1
 1245 561 l 2,0,1
EndSplineSet
Validated: 8388609
Position2: "'cpsp' Capital Spacing lookup 3 subtable" dx=10 dy=0 dh=20 dv=0
EndChar

StartChar: Uring
Encoding: 366 366 133
Width: 1316
Flags: MW
HStem: -45 188<692 799 692 890> 1311 41G<72 612 612 612 883 1245 1245 1245> 1427 90<629 696 629 737> 1759 88<630 696>
VStem: 72 541<494 516 516 1352> 412 156<1606 1674 1606 1708> 758 158<1606 1674> 883 362<539 561 561 1352>
LayerCount: 2
UndoRedoHistory
Layer: 1
Undoes
EndUndoes
Redoes
EndRedoes
EndUndoRedoHistory
Fore
SplineSet
1245 561 m 2,0,1
 1245 254 1245 254 1114 104.5 c 128,-1,2
 983 -45 983 -45 688 -45 c 0,3,4
 384 -45 384 -45 228 83 c 128,-1,5
 72 211 72 211 72 494 c 2,6,-1
 72 1352 l 1,7,-1
 612 1352 l 1,8,-1
 612 516 l 2,9,10
 612 306 612 306 639.5 224.5 c 128,-1,11
 667 143 667 143 745 143 c 0,12,13
 825 143 825 143 854 226.5 c 128,-1,14
 883 310 883 310 883 539 c 2,15,-1
 883 1352 l 1,16,-1
 1245 1352 l 1,17,-1
 1245 561 l 2,0,1
664 1518 m 0,18,19
 711 1518 711 1518 734.5 1551 c 128,-1,20
 758 1584 758 1584 758 1640 c 0,21,22
 758 1694 758 1694 734.5 1726.5 c 128,-1,23
 711 1759 711 1759 664 1759 c 0,24,25
 615 1759 615 1759 591 1726.5 c 128,-1,26
 567 1694 567 1694 567 1640 c 0,27,28
 567 1518 567 1518 664 1518 c 0,18,19
664 1427 m 128,-1,30
 552 1427 552 1427 482 1485 c 128,-1,31
 412 1543 412 1543 412 1640 c 0,32,33
 412 1739 412 1739 480.5 1793 c 128,-1,34
 549 1847 549 1847 664 1847 c 128,-1,35
 779 1847 779 1847 847 1793 c 128,-1,36
 915 1739 915 1739 915 1640 c 0,37,38
 915 1543 915 1543 845.5 1485 c 128,-1,29
 776 1427 776 1427 664 1427 c 128,-1,30
EndSplineSet
Validated: 8388609
Position2: "'cpsp' Capital Spacing lookup 3 subtable" dx=10 dy=0 dh=20 dv=0
EndChar

StartChar: Utilde
Encoding: 360 360 134
Width: 1316
Flags: MW
HStem: -45 188<692 799 692 890> 1311 41G<72 612 612 612 883 1245 1245 1245> 1446 233<871 944> 1483 233<389 461>
VStem: 72 541<494 516 516 1352> 883 362<539 561 561 1352>
LayerCount: 2
UndoRedoHistory
Layer: 1
Undoes
EndUndoes
Redoes
EndRedoes
EndUndoRedoHistory
Fore
SplineSet
1245 561 m 2,0,1
 1245 254 1245 254 1114 104.5 c 128,-1,2
 983 -45 983 -45 688 -45 c 0,3,4
 384 -45 384 -45 228 83 c 128,-1,5
 72 211 72 211 72 494 c 2,6,-1
 72 1352 l 1,7,-1
 612 1352 l 1,8,-1
 612 516 l 2,9,10
 612 306 612 306 639.5 224.5 c 128,-1,11
 667 143 667 143 745 143 c 0,12,13
 825 143 825 143 854 226.5 c 128,-1,14
 883 310 883 310 883 539 c 2,15,-1
 883 1352 l 1,16,-1
 1245 1352 l 1,17,-1
 1245 561 l 2,0,1
1081 1726 m 1,18,19
 1124 1653 1124 1653 1124 1593 c 0,20,21
 1124 1547 1124 1547 1105 1516 c 128,-1,22
 1086 1485 1086 1485 1049.5 1470.5 c 128,-1,23
 1013 1456 1013 1456 974 1451 c 128,-1,24
 935 1446 935 1446 879 1446 c 0,25,26
 817 1446 817 1446 639 1464.5 c 128,-1,27
 461 1483 461 1483 395 1483 c 0,28,29
 297 1483 297 1483 252 1436 c 1,30,31
 209 1509 209 1509 209 1569 c 0,32,33
 209 1615 209 1615 228 1646 c 128,-1,34
 247 1677 247 1677 284 1691.5 c 128,-1,35
 321 1706 321 1706 360 1711 c 128,-1,36
 399 1716 399 1716 455 1716 c 0,37,38
 516 1716 516 1716 693 1697.5 c 128,-1,39
 870 1679 870 1679 938 1679 c 0,40,41
 1036 1679 1036 1679 1081 1726 c 1,18,19
EndSplineSet
Validated: 8388609
Position2: "'cpsp' Capital Spacing lookup 3 subtable" dx=10 dy=0 dh=20 dv=0
EndChar

StartChar: V
Encoding: 86 86 135
Width: 1306
Flags: MW
HStem: 1311 41G<14 569 569 569 973 1346 1346 1346>
VStem: 14 1331<1352 1352>
LayerCount: 2
UndoRedoHistory
Layer: 1
Undoes
EndUndoes
Redoes
EndRedoes
EndUndoRedoHistory
Fore
SplineSet
963 0 m 1,0,-1
 330 0 l 1,1,-1
 14 1352 l 1,2,-1
 569 1352 l 1,3,-1
 776 299 l 1,4,-1
 973 1352 l 1,5,-1
 1346 1352 l 1,6,-1
 963 0 l 1,0,-1
EndSplineSet
Validated: 1
Position2: "'cpsp' Capital Spacing lookup 3 subtable" dx=10 dy=0 dh=20 dv=0
EndChar

StartChar: W
Encoding: 87 87 136
Width: 2154
Flags: MW
HStem: 1311 41G<14 569 569 569 1004 1386 1386 1386 1819 2193 2193 2193>
VStem: 14 2179<1352 1352>
LayerCount: 2
UndoRedoHistory
Layer: 1
Undoes
EndUndoes
Redoes
EndRedoes
EndUndoRedoHistory
Fore
SplineSet
1794 0 m 1,0,-1
 1161 0 l 1,1,-1
 1063 520 l 1,2,-1
 979 0 l 1,3,-1
 346 0 l 1,4,-1
 14 1352 l 1,5,-1
 569 1352 l 1,6,-1
 791 299 l 1,7,-1
 1004 1352 l 1,8,-1
 1386 1352 l 1,9,-1
 1608 299 l 1,10,-1
 1819 1352 l 1,11,-1
 2193 1352 l 1,12,-1
 1794 0 l 1,0,-1
EndSplineSet
Validated: 1
Position2: "'cpsp' Capital Spacing lookup 3 subtable" dx=10 dy=0 dh=20 dv=0
EndChar

StartChar: Wacute
Encoding: 7810 7810 137
Width: 2154
Flags: MW
HStem: 1311 41G<14 569 569 569 1004 1386 1386 1386 1819 2193 2193 2193>
VStem: 14 2179<1352 1352>
LayerCount: 2
UndoRedoHistory
Layer: 1
Undoes
EndUndoes
Redoes
EndRedoes
EndUndoRedoHistory
Fore
SplineSet
1161 0 m 1,0,-1
 1063 520 l 1,1,-1
 979 0 l 1,2,-1
 346 0 l 1,3,-1
 14 1352 l 1,4,-1
 569 1352 l 1,5,-1
 791 299 l 1,6,-1
 1004 1352 l 1,7,-1
 1386 1352 l 1,8,-1
 1608 299 l 1,9,-1
 1819 1352 l 1,10,-1
 2193 1352 l 1,11,-1
 1794 0 l 1,12,-1
 1161 0 l 1,0,-1
1425 1790 m 1,13,14
 1463 1758 1463 1758 1489.5 1709 c 128,-1,15
 1516 1660 1516 1660 1516 1616 c 0,16,17
 1516 1579 1516 1579 1499 1552.5 c 128,-1,18
 1482 1526 1482 1526 1457.5 1512 c 128,-1,19
 1433 1498 1433 1498 1395.5 1489 c 128,-1,20
 1358 1480 1358 1480 1327 1477 c 128,-1,21
 1296 1474 1296 1474 1256 1471 c 0,22,23
 1252 1471 1252 1471 1249.5 1471 c 128,-1,24
 1247 1471 1247 1471 1243.5 1470.5 c 128,-1,25
 1240 1470 1240 1470 1237 1470 c 2,26,-1
 911 1448 l 1,27,-1
 885 1563 l 1,28,-1
 1425 1790 l 1,13,14
EndSplineSet
Validated: 1
Position2: "'cpsp' Capital Spacing lookup 3 subtable" dx=10 dy=0 dh=20 dv=0
EndChar

StartChar: Wcircumflex
Encoding: 372 372 138
Width: 2154
Flags: MW
HStem: 1311 41G<14 569 569 569 1004 1386 1386 1386 1819 2193 2193 2193>
VStem: 14 2179<1352 1352>
LayerCount: 2
UndoRedoHistory
Layer: 1
Undoes
EndUndoes
Redoes
EndRedoes
EndUndoRedoHistory
Fore
SplineSet
1161 0 m 1,0,-1
 1063 520 l 1,1,-1
 979 0 l 1,2,-1
 346 0 l 1,3,-1
 14 1352 l 1,4,-1
 569 1352 l 1,5,-1
 791 299 l 1,6,-1
 1004 1352 l 1,7,-1
 1386 1352 l 1,8,-1
 1608 299 l 1,9,-1
 1819 1352 l 1,10,-1
 2193 1352 l 1,11,-1
 1794 0 l 1,12,-1
 1161 0 l 1,0,-1
756 1526 m 1,13,-1
 1094 1755 l 1,14,-1
 1182 1755 l 1,15,-1
 1526 1526 l 1,16,-1
 1436 1419 l 1,17,-1
 1141 1485 l 1,18,-1
 848 1419 l 1,19,-1
 756 1526 l 1,13,-1
EndSplineSet
Validated: 1
Position2: "'cpsp' Capital Spacing lookup 3 subtable" dx=10 dy=0 dh=20 dv=0
EndChar

StartChar: Wdieresis
Encoding: 7812 7812 139
Width: 2154
Flags: MW
HStem: 1311 41G<14 569 569 569 1004 1386 1386 1386 1819 2193 2193 2193> 1448 348<834 967 1346 1479>
VStem: 14 2179<1352 1352>
LayerCount: 2
UndoRedoHistory
Layer: 1
Undoes
EndUndoes
Redoes
EndRedoes
EndUndoRedoHistory
Fore
SplineSet
1161 0 m 1,0,-1
 1063 520 l 1,1,-1
 979 0 l 1,2,-1
 346 0 l 1,3,-1
 14 1352 l 1,4,-1
 569 1352 l 1,5,-1
 791 299 l 1,6,-1
 1004 1352 l 1,7,-1
 1386 1352 l 1,8,-1
 1608 299 l 1,9,-1
 1819 1352 l 1,10,-1
 2193 1352 l 1,11,-1
 1794 0 l 1,12,-1
 1161 0 l 1,0,-1
1417 1796 m 0,13,14
 1523 1796 1523 1796 1589 1749 c 128,-1,15
 1655 1702 1655 1702 1655 1620 c 128,-1,16
 1655 1538 1655 1538 1586.5 1493 c 128,-1,17
 1518 1448 1518 1448 1407 1448 c 0,18,19
 1298 1448 1298 1448 1230.5 1492 c 128,-1,20
 1163 1536 1163 1536 1163 1616 c 0,21,22
 1163 1698 1163 1698 1235 1747 c 128,-1,23
 1307 1796 1307 1796 1417 1796 c 0,13,14
905 1796 m 0,24,25
 1011 1796 1011 1796 1077 1749 c 128,-1,26
 1143 1702 1143 1702 1143 1620 c 128,-1,27
 1143 1538 1143 1538 1074.5 1493 c 128,-1,28
 1006 1448 1006 1448 895 1448 c 0,29,30
 786 1448 786 1448 718.5 1492 c 128,-1,31
 651 1536 651 1536 651 1616 c 0,32,33
 651 1698 651 1698 723 1747 c 128,-1,34
 795 1796 795 1796 905 1796 c 0,24,25
EndSplineSet
Validated: 1
Position2: "'cpsp' Capital Spacing lookup 3 subtable" dx=10 dy=0 dh=20 dv=0
EndChar

